# MagicaVoxel @ Ephtracy

# group
o 

# material

# normals
vn -1 0 0
vn 1 0 0
vn 0 0 1
vn 0 0 -1
vn 0 -1 0
vn 0 1 0

# texcoords
vt 0.0410156 0.5
vt 0.841797 0.5
vt 0.876953 0.5

# verts
v 0 0.4 -0.4
v 0 0.4 -0.9
v 0 0.6 -0.4
v 0 0.6 -0.9
v 0.1 0 -0.4
v 0.1 0 -0.9
v 0.1 0.1 -0.4
v 0.1 0.1 -0.9
v 0.2 0.1 -0.7
v 0.2 0.1 -0.8
v 0.2 0.3 -0.2
v 0.2 0.3 -0.7
v 0.2 0.3 -0.8
v 0.2 0.3 -1.1
v 0.2 0.4 -0.4
v 0.2 0.4 -0.9
v 0.2 0.6 -0.4
v 0.2 0.6 -0.9
v 0.2 0.7 -0.8
v 0.2 0.7 -1.1
v 0.2 1.4 -0.2
v 0.2 1.4 -0.8
v 0.3 0 -0.4
v 0.3 0 -0.5
v 0.3 0.1 -0.4
v 0.3 0.1 -0.5
v 0.3 0.3 -1.1
v 0.3 0.3 -1.2
v 0.3 0.7 -1.1
v 0.3 0.7 -1.2
v 0.4 0.8 -0.1
v 0.4 0.8 -0.2
v 0.4 0.9 0
v 0.4 0.9 -0.1
v 0.4 1.1 0
v 0.4 1.1 -0.2
v 0.4 1.4 -0.3
v 0.4 1.4 -0.7
v 0.4 1.6 -0.3
v 0.4 1.6 -0.7
v 0.6 0 -0.4
v 0.6 0 -0.9
v 0.6 0.1 -0.4
v 0.6 0.1 -0.9
v 0.7 0.1 -0.7
v 0.7 0.1 -0.8
v 0.7 0.3 -0.7
v 0.7 0.3 -0.8
v 0.8 0 -0.4
v 0.8 0 -0.5
v 0.8 0.1 -0.4
v 0.8 0.1 -0.5
v 0.2 0 -0.4
v 0.2 0 -0.5
v 0.2 0.1 -0.4
v 0.2 0.1 -0.5
v 0.3 0.1 -0.7
v 0.3 0.1 -0.8
v 0.3 0.3 -0.7
v 0.3 0.3 -0.8
v 0.4 0 -0.4
v 0.4 0 -0.9
v 0.4 0.1 -0.4
v 0.4 0.1 -0.9
v 0.6 0.8 -0.1
v 0.6 0.8 -0.2
v 0.6 0.9 0
v 0.6 0.9 -0.1
v 0.6 1.1 0
v 0.6 1.1 -0.2
v 0.6 1.4 -0.3
v 0.6 1.4 -0.7
v 0.6 1.6 -0.3
v 0.6 1.6 -0.7
v 0.7 0 -0.4
v 0.7 0 -0.5
v 0.7 0.1 -0.4
v 0.7 0.1 -0.5
v 0.7 0.3 -1.1
v 0.7 0.3 -1.2
v 0.7 0.7 -1.1
v 0.7 0.7 -1.2
v 0.8 0.1 -0.7
v 0.8 0.1 -0.8
v 0.8 0.3 -0.2
v 0.8 0.3 -0.7
v 0.8 0.3 -0.8
v 0.8 0.3 -1.1
v 0.8 0.4 -0.4
v 0.8 0.4 -0.9
v 0.8 0.6 -0.4
v 0.8 0.6 -0.9
v 0.8 0.7 -0.8
v 0.8 0.7 -1.1
v 0.8 1.4 -0.2
v 0.8 1.4 -0.8
v 0.9 0 -0.4
v 0.9 0 -0.9
v 0.9 0.1 -0.4
v 0.9 0.1 -0.9
v 1 0.4 -0.4
v 1 0.4 -0.9
v 1 0.6 -0.4
v 1 0.6 -0.9
v 0.4 0.9 0
v 0.4 1.1 0
v 0.6 0.9 0
v 0.6 1.1 0
v 0.4 0.8 -0.1
v 0.4 0.9 -0.1
v 0.6 0.8 -0.1
v 0.6 0.9 -0.1
v 0.2 0.3 -0.2
v 0.2 1.4 -0.2
v 0.3 1.2 -0.2
v 0.3 1.3 -0.2
v 0.4 0.8 -0.2
v 0.4 1.1 -0.2
v 0.4 1.2 -0.2
v 0.4 1.3 -0.2
v 0.6 0.8 -0.2
v 0.6 1.1 -0.2
v 0.6 1.2 -0.2
v 0.6 1.3 -0.2
v 0.7 1.2 -0.2
v 0.7 1.3 -0.2
v 0.8 0.3 -0.2
v 0.8 1.4 -0.2
v 0.4 1.4 -0.3
v 0.4 1.6 -0.3
v 0.6 1.4 -0.3
v 0.6 1.6 -0.3
v 0 0.4 -0.4
v 0 0.6 -0.4
v 0.1 0 -0.4
v 0.1 0.1 -0.4
v 0.2 0 -0.4
v 0.2 0.1 -0.4
v 0.2 0.4 -0.4
v 0.2 0.6 -0.4
v 0.3 0 -0.4
v 0.3 0.1 -0.4
v 0.4 0 -0.4
v 0.4 0.1 -0.4
v 0.6 0 -0.4
v 0.6 0.1 -0.4
v 0.7 0 -0.4
v 0.7 0.1 -0.4
v 0.8 0 -0.4
v 0.8 0.1 -0.4
v 0.8 0.4 -0.4
v 0.8 0.6 -0.4
v 0.9 0 -0.4
v 0.9 0.1 -0.4
v 1 0.4 -0.4
v 1 0.6 -0.4
v 0.2 0 -0.5
v 0.2 0.1 -0.5
v 0.3 0 -0.5
v 0.3 0.1 -0.5
v 0.7 0 -0.5
v 0.7 0.1 -0.5
v 0.8 0 -0.5
v 0.8 0.1 -0.5
v 0.2 0.1 -0.7
v 0.2 0.3 -0.7
v 0.3 0.1 -0.7
v 0.3 0.3 -0.7
v 0.7 0.1 -0.7
v 0.7 0.3 -0.7
v 0.8 0.1 -0.7
v 0.8 0.3 -0.7
v 0.4 1.4 -0.7
v 0.4 1.6 -0.7
v 0.6 1.4 -0.7
v 0.6 1.6 -0.7
v 0.2 0.1 -0.8
v 0.2 0.3 -0.8
v 0.2 0.7 -0.8
v 0.2 1.4 -0.8
v 0.3 0.1 -0.8
v 0.3 0.3 -0.8
v 0.7 0.1 -0.8
v 0.7 0.3 -0.8
v 0.8 0.1 -0.8
v 0.8 0.3 -0.8
v 0.8 0.7 -0.8
v 0.8 1.4 -0.8
v 0 0.4 -0.9
v 0 0.6 -0.9
v 0.1 0 -0.9
v 0.1 0.1 -0.9
v 0.2 0.4 -0.9
v 0.2 0.6 -0.9
v 0.4 0 -0.9
v 0.4 0.1 -0.9
v 0.6 0 -0.9
v 0.6 0.1 -0.9
v 0.8 0.4 -0.9
v 0.8 0.6 -0.9
v 0.9 0 -0.9
v 0.9 0.1 -0.9
v 1 0.4 -0.9
v 1 0.6 -0.9
v 0.2 0.3 -1.1
v 0.2 0.7 -1.1
v 0.3 0.3 -1.1
v 0.3 0.7 -1.1
v 0.7 0.3 -1.1
v 0.7 0.7 -1.1
v 0.8 0.3 -1.1
v 0.8 0.7 -1.1
v 0.3 0.3 -1.2
v 0.3 0.7 -1.2
v 0.7 0.3 -1.2
v 0.7 0.7 -1.2
v 0.1 0 -0.4
v 0.2 0 -0.4
v 0.3 0 -0.4
v 0.4 0 -0.4
v 0.6 0 -0.4
v 0.7 0 -0.4
v 0.8 0 -0.4
v 0.9 0 -0.4
v 0.2 0 -0.5
v 0.3 0 -0.5
v 0.7 0 -0.5
v 0.8 0 -0.5
v 0.1 0 -0.9
v 0.4 0 -0.9
v 0.6 0 -0.9
v 0.9 0 -0.9
v 0.2 0.3 -0.2
v 0.8 0.3 -0.2
v 0.2 0.3 -0.7
v 0.3 0.3 -0.7
v 0.7 0.3 -0.7
v 0.8 0.3 -0.7
v 0.2 0.3 -0.8
v 0.3 0.3 -0.8
v 0.7 0.3 -0.8
v 0.8 0.3 -0.8
v 0.2 0.3 -1.1
v 0.3 0.3 -1.1
v 0.7 0.3 -1.1
v 0.8 0.3 -1.1
v 0.3 0.3 -1.2
v 0.7 0.3 -1.2
v 0 0.4 -0.4
v 0.2 0.4 -0.4
v 0.8 0.4 -0.4
v 1 0.4 -0.4
v 0 0.4 -0.9
v 0.2 0.4 -0.9
v 0.8 0.4 -0.9
v 1 0.4 -0.9
v 0.4 0.8 -0.1
v 0.6 0.8 -0.1
v 0.4 0.8 -0.2
v 0.6 0.8 -0.2
v 0.4 0.9 0
v 0.6 0.9 0
v 0.4 0.9 -0.1
v 0.6 0.9 -0.1
v 0.1 0.1 -0.4
v 0.2 0.1 -0.4
v 0.3 0.1 -0.4
v 0.4 0.1 -0.4
v 0.6 0.1 -0.4
v 0.7 0.1 -0.4
v 0.8 0.1 -0.4
v 0.9 0.1 -0.4
v 0.2 0.1 -0.5
v 0.3 0.1 -0.5
v 0.7 0.1 -0.5
v 0.8 0.1 -0.5
v 0.2 0.1 -0.7
v 0.3 0.1 -0.7
v 0.7 0.1 -0.7
v 0.8 0.1 -0.7
v 0.2 0.1 -0.8
v 0.3 0.1 -0.8
v 0.7 0.1 -0.8
v 0.8 0.1 -0.8
v 0.1 0.1 -0.9
v 0.4 0.1 -0.9
v 0.6 0.1 -0.9
v 0.9 0.1 -0.9
v 0 0.6 -0.4
v 0.2 0.6 -0.4
v 0.8 0.6 -0.4
v 1 0.6 -0.4
v 0 0.6 -0.9
v 0.2 0.6 -0.9
v 0.8 0.6 -0.9
v 1 0.6 -0.9
v 0.2 0.7 -0.8
v 0.8 0.7 -0.8
v 0.2 0.7 -1.1
v 0.3 0.7 -1.1
v 0.7 0.7 -1.1
v 0.8 0.7 -1.1
v 0.3 0.7 -1.2
v 0.7 0.7 -1.2
v 0.4 1.1 0
v 0.6 1.1 0
v 0.4 1.1 -0.2
v 0.6 1.1 -0.2
v 0.2 1.4 -0.2
v 0.8 1.4 -0.2
v 0.4 1.4 -0.3
v 0.6 1.4 -0.3
v 0.4 1.4 -0.7
v 0.6 1.4 -0.7
v 0.2 1.4 -0.8
v 0.8 1.4 -0.8
v 0.4 1.6 -0.3
v 0.6 1.6 -0.3
v 0.4 1.6 -0.7
v 0.6 1.6 -0.7

# faces
f 3/1/1 2/1/1 1/1/1
f 4/1/1 2/1/1 3/1/1
f 7/2/1 6/2/1 5/2/1
f 8/2/1 6/2/1 7/2/1
f 12/2/1 10/2/1 9/2/1
f 13/2/1 10/2/1 12/2/1
f 15/1/1 12/1/1 11/1/1
f 15/1/1 14/1/1 13/1/1
f 15/1/1 13/1/1 12/1/1
f 16/1/1 14/1/1 15/1/1
f 17/1/1 15/1/1 11/1/1
f 18/1/1 14/1/1 16/1/1
f 19/1/1 18/1/1 17/1/1
f 20/1/1 14/1/1 18/1/1
f 20/1/1 18/1/1 19/1/1
f 21/1/1 17/1/1 11/1/1
f 21/1/1 19/1/1 17/1/1
f 22/1/1 19/1/1 21/1/1
f 25/2/1 24/2/1 23/2/1
f 26/2/1 24/2/1 25/2/1
f 29/1/1 28/1/1 27/1/1
f 30/1/1 28/1/1 29/1/1
f 34/2/1 32/2/1 31/2/1
f 35/2/1 34/2/1 33/2/1
f 36/2/1 32/2/1 34/2/1
f 36/2/1 34/2/1 35/2/1
f 39/2/1 38/2/1 37/2/1
f 40/2/1 38/2/1 39/2/1
f 43/2/1 42/2/1 41/2/1
f 44/2/1 42/2/1 43/2/1
f 47/2/1 46/2/1 45/2/1
f 48/2/1 46/2/1 47/2/1
f 51/2/1 50/2/1 49/2/1
f 52/2/1 50/2/1 51/2/1
f 53/2/2 54/2/2 55/2/2
f 55/2/2 54/2/2 56/2/2
f 57/2/2 58/2/2 59/2/2
f 59/2/2 58/2/2 60/2/2
f 61/2/2 62/2/2 63/2/2
f 63/2/2 62/2/2 64/2/2
f 65/2/2 66/2/2 68/2/2
f 67/2/2 68/2/2 69/2/2
f 68/2/2 66/2/2 70/2/2
f 69/2/2 68/2/2 70/2/2
f 71/2/2 72/2/2 73/2/2
f 73/2/2 72/2/2 74/2/2
f 75/2/2 76/2/2 77/2/2
f 77/2/2 76/2/2 78/2/2
f 79/1/2 80/1/2 81/1/2
f 81/1/2 80/1/2 82/1/2
f 83/2/2 84/2/2 86/2/2
f 86/2/2 84/2/2 87/2/2
f 85/1/2 86/1/2 89/1/2
f 87/1/2 88/1/2 89/1/2
f 86/1/2 87/1/2 89/1/2
f 89/1/2 88/1/2 90/1/2
f 85/1/2 89/1/2 91/1/2
f 90/1/2 88/1/2 92/1/2
f 91/1/2 92/1/2 93/1/2
f 92/1/2 88/1/2 94/1/2
f 93/1/2 92/1/2 94/1/2
f 85/1/2 91/1/2 95/1/2
f 91/1/2 93/1/2 95/1/2
f 95/1/2 93/1/2 96/1/2
f 97/2/2 98/2/2 99/2/2
f 99/2/2 98/2/2 100/2/2
f 101/1/2 102/1/2 103/1/2
f 103/1/2 102/1/2 104/1/2
f 107/2/3 106/2/3 105/2/3
f 108/2/3 106/2/3 107/2/3
f 111/2/3 110/2/3 109/2/3
f 112/2/3 110/2/3 111/2/3
f 115/1/3 114/1/3 113/1/3
f 116/1/3 114/1/3 115/1/3
f 117/1/3 115/1/3 113/1/3
f 118/1/3 115/1/3 117/1/3
f 119/3/3 116/3/3 115/3/3
f 119/1/3 115/1/3 118/1/3
f 120/1/3 114/1/3 116/1/3
f 120/3/3 116/3/3 119/3/3
f 121/1/3 117/1/3 113/1/3
f 122/1/3 119/1/3 118/1/3
f 122/1/3 120/1/3 119/1/3
f 123/1/3 120/1/3 122/1/3
f 124/1/3 114/1/3 120/1/3
f 124/1/3 120/1/3 123/1/3
f 125/1/3 123/1/3 122/1/3
f 125/1/3 122/1/3 121/1/3
f 125/3/3 124/3/3 123/3/3
f 126/1/3 114/1/3 124/1/3
f 126/3/3 124/3/3 125/3/3
f 127/1/3 121/1/3 113/1/3
f 127/1/3 125/1/3 121/1/3
f 127/1/3 126/1/3 125/1/3
f 128/1/3 114/1/3 126/1/3
f 128/1/3 126/1/3 127/1/3
f 131/2/3 130/2/3 129/2/3
f 132/2/3 130/2/3 131/2/3
f 137/2/3 136/2/3 135/2/3
f 138/2/3 136/2/3 137/2/3
f 139/1/3 134/1/3 133/1/3
f 140/1/3 134/1/3 139/1/3
f 143/2/3 142/2/3 141/2/3
f 144/2/3 142/2/3 143/2/3
f 147/2/3 146/2/3 145/2/3
f 148/2/3 146/2/3 147/2/3
f 153/2/3 150/2/3 149/2/3
f 154/2/3 150/2/3 153/2/3
f 155/1/3 152/1/3 151/1/3
f 156/1/3 152/1/3 155/1/3
f 159/2/3 158/2/3 157/2/3
f 160/2/3 158/2/3 159/2/3
f 163/2/3 162/2/3 161/2/3
f 164/2/3 162/2/3 163/2/3
f 167/2/3 166/2/3 165/2/3
f 168/2/3 166/2/3 167/2/3
f 171/2/3 170/2/3 169/2/3
f 172/2/3 170/2/3 171/2/3
f 173/2/4 174/2/4 175/2/4
f 175/2/4 174/2/4 176/2/4
f 177/2/4 178/2/4 181/2/4
f 181/2/4 178/2/4 182/2/4
f 183/2/4 184/2/4 185/2/4
f 185/2/4 184/2/4 186/2/4
f 179/1/4 180/1/4 187/1/4
f 187/1/4 180/1/4 188/1/4
f 189/1/4 190/1/4 193/1/4
f 193/1/4 190/1/4 194/1/4
f 191/2/4 192/2/4 195/2/4
f 195/2/4 192/2/4 196/2/4
f 197/2/4 198/2/4 201/2/4
f 201/2/4 198/2/4 202/2/4
f 199/1/4 200/1/4 203/1/4
f 203/1/4 200/1/4 204/1/4
f 205/1/4 206/1/4 207/1/4
f 207/1/4 206/1/4 208/1/4
f 209/1/4 210/1/4 211/1/4
f 211/1/4 210/1/4 212/1/4
f 213/1/4 214/1/4 215/1/4
f 215/1/4 214/1/4 216/1/4
f 225/2/5 218/2/5 217/2/5
f 226/2/5 220/2/5 219/2/5
f 227/2/5 222/2/5 221/2/5
f 228/2/5 224/2/5 223/2/5
f 229/2/5 225/2/5 217/2/5
f 229/2/5 226/2/5 225/2/5
f 230/2/5 220/2/5 226/2/5
f 230/2/5 226/2/5 229/2/5
f 231/2/5 227/2/5 221/2/5
f 231/2/5 228/2/5 227/2/5
f 232/2/5 224/2/5 228/2/5
f 232/2/5 228/2/5 231/2/5
f 235/1/5 234/1/5 233/1/5
f 236/1/5 234/1/5 235/1/5
f 237/1/5 234/1/5 236/1/5
f 238/1/5 234/1/5 237/1/5
f 240/1/5 237/1/5 236/1/5
f 241/1/5 237/1/5 240/1/5
f 243/1/5 240/1/5 239/1/5
f 243/1/5 242/1/5 241/1/5
f 243/1/5 241/1/5 240/1/5
f 244/1/5 242/1/5 243/1/5
f 245/1/5 242/1/5 244/1/5
f 246/1/5 242/1/5 245/1/5
f 247/1/5 245/1/5 244/1/5
f 248/1/5 245/1/5 247/1/5
f 253/1/5 250/1/5 249/1/5
f 254/1/5 250/1/5 253/1/5
f 255/1/5 252/1/5 251/1/5
f 256/1/5 252/1/5 255/1/5
f 259/2/5 258/2/5 257/2/5
f 260/2/5 258/2/5 259/2/5
f 263/2/5 262/2/5 261/2/5
f 264/2/5 262/2/5 263/2/5
f 265/2/6 266/2/6 273/2/6
f 267/2/6 268/2/6 274/2/6
f 269/2/6 270/2/6 275/2/6
f 271/2/6 272/2/6 276/2/6
f 265/2/6 273/2/6 277/2/6
f 273/2/6 274/2/6 277/2/6
f 274/2/6 268/2/6 278/2/6
f 277/2/6 274/2/6 278/2/6
f 269/2/6 275/2/6 279/2/6
f 275/2/6 276/2/6 279/2/6
f 276/2/6 272/2/6 280/2/6
f 279/2/6 276/2/6 280/2/6
f 265/2/6 277/2/6 281/2/6
f 278/2/6 268/2/6 282/2/6
f 269/2/6 279/2/6 283/2/6
f 280/2/6 272/2/6 284/2/6
f 265/2/6 281/2/6 285/2/6
f 281/2/6 282/2/6 285/2/6
f 282/2/6 268/2/6 286/2/6
f 285/2/6 282/2/6 286/2/6
f 283/2/6 284/2/6 287/2/6
f 269/2/6 283/2/6 287/2/6
f 284/2/6 272/2/6 288/2/6
f 287/2/6 284/2/6 288/2/6
f 289/1/6 290/1/6 293/1/6
f 293/1/6 290/1/6 294/1/6
f 291/1/6 292/1/6 295/1/6
f 295/1/6 292/1/6 296/1/6
f 297/1/6 298/1/6 299/1/6
f 299/1/6 298/1/6 300/1/6
f 300/1/6 298/1/6 301/1/6
f 301/1/6 298/1/6 302/1/6
f 300/1/6 301/1/6 303/1/6
f 303/1/6 301/1/6 304/1/6
f 305/2/6 306/2/6 307/2/6
f 307/2/6 306/2/6 308/2/6
f 309/1/6 310/1/6 311/1/6
f 311/1/6 310/1/6 312/1/6
f 309/1/6 311/1/6 313/1/6
f 312/1/6 310/1/6 314/1/6
f 309/1/6 313/1/6 315/1/6
f 313/1/6 314/1/6 315/1/6
f 314/1/6 310/1/6 316/1/6
f 315/1/6 314/1/6 316/1/6
f 317/2/6 318/2/6 319/2/6
f 319/2/6 318/2/6 320/2/6