# MagicaVoxel @ Ephtracy

# group
o 

# material

# normals
vn -1 0 0
vn 1 0 0
vn 0 0 1
vn 0 0 -1
vn 0 -1 0
vn 0 1 0

# texcoords
vt 0.958984 0.5
vt 0.966797 0.5

# verts
v 0 0.1 -0.2
v 0 0.1 -0.7
v 0 0.2 -0.1
v 0 0.2 -0.2
v 0 0.2 -0.3
v 0 0.2 -0.4
v 0 0.2 -0.5
v 0 0.2 -0.6
v 0 0.2 -0.7
v 0 0.2 -0.8
v 0 0.3 -0.5
v 0 0.3 -0.6
v 0 0.4 -0.1
v 0 0.4 -0.2
v 0 0.4 -0.3
v 0 0.4 -0.4
v 0 0.4 -0.7
v 0 0.4 -0.8
v 0 0.5 -0.2
v 0 0.5 -0.7
v 0.1 0.1 -0.1
v 0.1 0.1 -0.2
v 0.1 0.1 -0.7
v 0.1 0.1 -0.8
v 0.1 0.2 0
v 0.1 0.2 -0.1
v 0.1 0.2 -0.2
v 0.1 0.2 -0.7
v 0.1 0.2 -0.8
v 0.1 0.2 -0.9
v 0.1 0.4 0
v 0.1 0.4 -0.1
v 0.1 0.4 -0.2
v 0.1 0.4 -0.7
v 0.1 0.4 -0.8
v 0.1 0.4 -0.9
v 0.1 0.5 -0.1
v 0.1 0.5 -0.2
v 0.1 0.5 -0.7
v 0.1 0.5 -0.8
v 0.2 0.1 -0.8
v 0.2 0.1 -0.9
v 0.2 0.2 -0.8
v 0.2 0.2 -0.9
v 0.2 0.4 0
v 0.2 0.4 -0.1
v 0.2 0.5 0
v 0.2 0.5 -0.1
v 0.3 0.1 0
v 0.3 0.1 -0.1
v 0.3 0.2 0
v 0.3 0.2 -0.1
v 0.3 0.4 -0.8
v 0.3 0.4 -0.9
v 0.3 0.5 -0.8
v 0.3 0.5 -0.9
v 0.9 0.1 0
v 0.9 0.1 -0.1
v 0.9 0.1 -0.8
v 0.9 0.1 -0.9
v 0.9 0.2 0
v 0.9 0.2 -0.1
v 0.9 0.2 -0.8
v 0.9 0.2 -0.9
v 1 0.4 0
v 1 0.4 -0.1
v 1 0.4 -0.7
v 1 0.4 -0.9
v 1 0.5 0
v 1 0.5 -0.1
v 1 0.5 -0.7
v 1 0.5 -0.9
v 1.1 0.1 -0.1
v 1.1 0.1 -0.2
v 1.1 0.1 -0.7
v 1.1 0.1 -0.8
v 1.1 0.2 0
v 1.1 0.2 -0.1
v 1.1 0.2 -0.2
v 1.1 0.2 -0.7
v 1.1 0.2 -0.8
v 1.1 0.2 -0.9
v 1.1 0.4 0
v 1.1 0.4 -0.1
v 1.1 0.4 -0.2
v 1.1 0.4 -0.6
v 1.1 0.4 -0.7
v 1.1 0.4 -0.8
v 1.1 0.4 -0.9
v 1.1 0.5 -0.1
v 1.1 0.5 -0.2
v 1.1 0.5 -0.6
v 1.1 0.5 -0.7
v 1.2 0.1 -0.2
v 1.2 0.1 -0.7
v 1.2 0.2 -0.1
v 1.2 0.2 -0.2
v 1.2 0.2 -0.5
v 1.2 0.2 -0.6
v 1.2 0.2 -0.7
v 1.2 0.2 -0.8
v 1.2 0.3 -0.2
v 1.2 0.3 -0.3
v 1.2 0.3 -0.5
v 1.2 0.3 -0.6
v 1.2 0.4 -0.1
v 1.2 0.4 -0.2
v 1.2 0.4 -0.3
v 1.2 0.4 -0.6
v 1.2 0.4 -0.8
v 1.2 0.5 -0.2
v 1.2 0.5 -0.6
v 0.1 0.2 0
v 0.1 0.4 0
v 0.2 0.4 0
v 0.2 0.5 0
v 0.3 0.1 0
v 0.3 0.2 0
v 0.4 0.3 0
v 0.4 0.4 0
v 0.5 0.3 0
v 0.5 0.4 0
v 0.9 0.1 0
v 0.9 0.2 0
v 1 0.4 0
v 1 0.5 0
v 1.1 0.2 0
v 1.1 0.4 0
v 0 0.2 -0.1
v 0 0.4 -0.1
v 0.1 0.1 -0.1
v 0.1 0.2 -0.1
v 0.1 0.4 -0.1
v 0.1 0.5 -0.1
v 0.2 0.4 -0.1
v 0.2 0.5 -0.1
v 0.3 0.1 -0.1
v 0.3 0.2 -0.1
v 0.9 0.1 -0.1
v 0.9 0.2 -0.1
v 1 0.4 -0.1
v 1 0.5 -0.1
v 1.1 0.1 -0.1
v 1.1 0.2 -0.1
v 1.1 0.4 -0.1
v 1.1 0.5 -0.1
v 1.2 0.2 -0.1
v 1.2 0.4 -0.1
v 0 0.1 -0.2
v 0 0.2 -0.2
v 0 0.4 -0.2
v 0 0.5 -0.2
v 0.1 0.1 -0.2
v 0.1 0.2 -0.2
v 0.1 0.4 -0.2
v 0.1 0.5 -0.2
v 1.1 0.1 -0.2
v 1.1 0.2 -0.2
v 1.1 0.4 -0.2
v 1.1 0.5 -0.2
v 1.2 0.1 -0.2
v 1.2 0.2 -0.2
v 1.2 0.4 -0.2
v 1.2 0.5 -0.2
v 1.1 0.4 -0.6
v 1.1 0.5 -0.6
v 1.2 0.4 -0.6
v 1.2 0.5 -0.6
v 0 0.1 -0.7
v 0 0.2 -0.7
v 0 0.4 -0.7
v 0 0.5 -0.7
v 0.1 0.1 -0.7
v 0.1 0.2 -0.7
v 0.1 0.4 -0.7
v 0.1 0.5 -0.7
v 1 0.4 -0.7
v 1 0.5 -0.7
v 1.1 0.1 -0.7
v 1.1 0.2 -0.7
v 1.1 0.4 -0.7
v 1.1 0.5 -0.7
v 1.2 0.1 -0.7
v 1.2 0.2 -0.7
v 0 0.2 -0.8
v 0 0.4 -0.8
v 0.1 0.1 -0.8
v 0.1 0.2 -0.8
v 0.1 0.4 -0.8
v 0.1 0.5 -0.8
v 0.2 0.1 -0.8
v 0.2 0.2 -0.8
v 0.3 0.4 -0.8
v 0.3 0.5 -0.8
v 0.9 0.1 -0.8
v 0.9 0.2 -0.8
v 1.1 0.1 -0.8
v 1.1 0.2 -0.8
v 1.1 0.4 -0.8
v 1.2 0.2 -0.8
v 1.2 0.4 -0.8
v 0.1 0.2 -0.9
v 0.1 0.4 -0.9
v 0.2 0.1 -0.9
v 0.2 0.2 -0.9
v 0.3 0.1 -0.9
v 0.3 0.2 -0.9
v 0.3 0.4 -0.9
v 0.3 0.5 -0.9
v 0.4 0.1 -0.9
v 0.4 0.2 -0.9
v 0.5 0.2 -0.9
v 0.5 0.3 -0.9
v 0.6 0.2 -0.9
v 0.6 0.3 -0.9
v 0.8 0.3 -0.9
v 0.8 0.4 -0.9
v 0.9 0.1 -0.9
v 0.9 0.2 -0.9
v 0.9 0.3 -0.9
v 0.9 0.4 -0.9
v 1 0.4 -0.9
v 1 0.5 -0.9
v 1.1 0.2 -0.9
v 1.1 0.4 -0.9
v 0.3 0.1 0
v 0.9 0.1 0
v 0.1 0.1 -0.1
v 0.3 0.1 -0.1
v 0.9 0.1 -0.1
v 1.1 0.1 -0.1
v 0 0.1 -0.2
v 0.1 0.1 -0.2
v 1.1 0.1 -0.2
v 1.2 0.1 -0.2
v 0 0.1 -0.7
v 0.1 0.1 -0.7
v 1.1 0.1 -0.7
v 1.2 0.1 -0.7
v 0.1 0.1 -0.8
v 0.2 0.1 -0.8
v 0.3 0.1 -0.8
v 0.4 0.1 -0.8
v 0.9 0.1 -0.8
v 1.1 0.1 -0.8
v 0.2 0.1 -0.9
v 0.3 0.1 -0.9
v 0.4 0.1 -0.9
v 0.9 0.1 -0.9
v 0.1 0.2 0
v 0.3 0.2 0
v 0.9 0.2 0
v 1.1 0.2 0
v 0 0.2 -0.1
v 0.1 0.2 -0.1
v 0.3 0.2 -0.1
v 0.9 0.2 -0.1
v 1.1 0.2 -0.1
v 1.2 0.2 -0.1
v 0 0.2 -0.2
v 0.1 0.2 -0.2
v 1.1 0.2 -0.2
v 1.2 0.2 -0.2
v 0 0.2 -0.7
v 0.1 0.2 -0.7
v 1.1 0.2 -0.7
v 1.2 0.2 -0.7
v 0 0.2 -0.8
v 0.1 0.2 -0.8
v 0.2 0.2 -0.8
v 0.9 0.2 -0.8
v 1.1 0.2 -0.8
v 1.2 0.2 -0.8
v 0.1 0.2 -0.9
v 0.2 0.2 -0.9
v 0.9 0.2 -0.9
v 1.1 0.2 -0.9
v 0.1 0.4 0
v 0.2 0.4 0
v 1 0.4 0
v 1.1 0.4 0
v 0 0.4 -0.1
v 0.1 0.4 -0.1
v 0.2 0.4 -0.1
v 1 0.4 -0.1
v 1.1 0.4 -0.1
v 1.2 0.4 -0.1
v 0 0.4 -0.2
v 0.1 0.4 -0.2
v 1.1 0.4 -0.2
v 1.2 0.4 -0.2
v 1.1 0.4 -0.6
v 1.2 0.4 -0.6
v 0 0.4 -0.7
v 0.1 0.4 -0.7
v 1 0.4 -0.7
v 1.1 0.4 -0.7
v 0 0.4 -0.8
v 0.1 0.4 -0.8
v 0.3 0.4 -0.8
v 1.1 0.4 -0.8
v 1.2 0.4 -0.8
v 0.1 0.4 -0.9
v 0.3 0.4 -0.9
v 1 0.4 -0.9
v 1.1 0.4 -0.9
v 0.2 0.5 0
v 1 0.5 0
v 0.1 0.5 -0.1
v 0.2 0.5 -0.1
v 0.6 0.5 -0.1
v 0.9 0.5 -0.1
v 1 0.5 -0.1
v 1.1 0.5 -0.1
v 0 0.5 -0.2
v 0.1 0.5 -0.2
v 0.4 0.5 -0.2
v 0.5 0.5 -0.2
v 0.6 0.5 -0.2
v 0.9 0.5 -0.2
v 1.1 0.5 -0.2
v 1.2 0.5 -0.2
v 0.1 0.5 -0.3
v 0.4 0.5 -0.3
v 0.5 0.5 -0.3
v 0.6 0.5 -0.3
v 0.7 0.5 -0.3
v 0.8 0.5 -0.3
v 1 0.5 -0.3
v 0.1 0.5 -0.4
v 0.4 0.5 -0.4
v 0.8 0.5 -0.4
v 1 0.5 -0.4
v 1.1 0.5 -0.4
v 0.2 0.5 -0.5
v 0.4 0.5 -0.5
v 0.5 0.5 -0.5
v 0.6 0.5 -0.5
v 0.7 0.5 -0.5
v 1 0.5 -0.5
v 1.1 0.5 -0.5
v 0.2 0.5 -0.6
v 0.4 0.5 -0.6
v 0.5 0.5 -0.6
v 0.6 0.5 -0.6
v 0.8 0.5 -0.6
v 0.9 0.5 -0.6
v 1.1 0.5 -0.6
v 1.2 0.5 -0.6
v 0 0.5 -0.7
v 0.1 0.5 -0.7
v 0.5 0.5 -0.7
v 0.7 0.5 -0.7
v 0.8 0.5 -0.7
v 0.9 0.5 -0.7
v 1 0.5 -0.7
v 1.1 0.5 -0.7
v 0.1 0.5 -0.8
v 0.3 0.5 -0.8
v 0.5 0.5 -0.8
v 0.7 0.5 -0.8
v 0.3 0.5 -0.9
v 1 0.5 -0.9

# faces
f 4/1/1 2/1/1 1/1/1
f 5/1/1 2/1/1 4/1/1
f 6/1/1 2/1/1 5/1/1
f 7/1/1 2/1/1 6/1/1
f 8/1/1 2/1/1 7/1/1
f 9/1/1 2/1/1 8/1/1
f 11/1/1 7/1/1 6/1/1
f 11/2/1 8/2/1 7/2/1
f 12/1/1 10/1/1 9/1/1
f 12/2/1 8/2/1 11/2/1
f 12/1/1 9/1/1 8/1/1
f 13/1/1 4/1/1 3/1/1
f 13/1/1 5/1/1 4/1/1
f 14/1/1 5/1/1 13/1/1
f 15/2/1 6/2/1 5/2/1
f 15/1/1 5/1/1 14/1/1
f 16/1/1 12/1/1 11/1/1
f 16/2/1 6/2/1 15/2/1
f 16/1/1 11/1/1 6/1/1
f 17/1/1 10/1/1 12/1/1
f 17/1/1 12/1/1 16/1/1
f 18/1/1 10/1/1 17/1/1
f 19/1/1 16/1/1 15/1/1
f 19/1/1 15/1/1 14/1/1
f 19/1/1 17/1/1 16/1/1
f 20/1/1 17/1/1 19/1/1
f 26/1/1 22/1/1 21/1/1
f 27/1/1 22/1/1 26/1/1
f 28/1/1 24/1/1 23/1/1
f 29/1/1 24/1/1 28/1/1
f 31/1/1 26/1/1 25/1/1
f 32/1/1 26/1/1 31/1/1
f 35/1/1 30/1/1 29/1/1
f 36/1/1 30/1/1 35/1/1
f 37/1/1 33/1/1 32/1/1
f 38/1/1 33/1/1 37/1/1
f 39/1/1 35/1/1 34/1/1
f 40/1/1 35/1/1 39/1/1
f 43/1/1 42/1/1 41/1/1
f 44/1/1 42/1/1 43/1/1
f 47/1/1 46/1/1 45/1/1
f 48/1/1 46/1/1 47/1/1
f 51/1/1 50/1/1 49/1/1
f 52/1/1 50/1/1 51/1/1
f 55/1/1 54/1/1 53/1/1
f 56/1/1 54/1/1 55/1/1
f 57/1/2 58/1/2 61/1/2
f 61/1/2 58/1/2 62/1/2
f 59/1/2 60/1/2 63/1/2
f 63/1/2 60/1/2 64/1/2
f 65/1/2 66/1/2 69/1/2
f 69/1/2 66/1/2 70/1/2
f 67/1/2 68/1/2 71/1/2
f 71/1/2 68/1/2 72/1/2
f 73/1/2 74/1/2 78/1/2
f 78/1/2 74/1/2 79/1/2
f 75/1/2 76/1/2 80/1/2
f 80/1/2 76/1/2 81/1/2
f 77/1/2 78/1/2 83/1/2
f 83/1/2 78/1/2 84/1/2
f 81/1/2 82/1/2 88/1/2
f 88/1/2 82/1/2 89/1/2
f 84/1/2 85/1/2 90/1/2
f 90/1/2 85/1/2 91/1/2
f 86/1/2 87/1/2 92/1/2
f 92/1/2 87/1/2 93/1/2
f 94/1/2 95/1/2 97/1/2
f 97/1/2 95/1/2 98/1/2
f 98/1/2 95/1/2 99/1/2
f 99/1/2 95/1/2 100/1/2
f 96/1/2 97/1/2 102/1/2
f 97/1/2 98/1/2 102/1/2
f 102/1/2 98/1/2 103/1/2
f 98/2/2 99/2/2 104/2/2
f 103/1/2 98/1/2 104/1/2
f 100/1/2 101/1/2 105/1/2
f 104/2/2 99/2/2 105/2/2
f 99/1/2 100/1/2 105/1/2
f 96/1/2 102/1/2 106/1/2
f 102/2/2 103/2/2 107/2/2
f 106/1/2 102/1/2 107/1/2
f 103/1/2 104/1/2 108/1/2
f 107/2/2 103/2/2 108/2/2
f 104/1/2 105/1/2 108/1/2
f 105/1/2 101/1/2 109/1/2
f 108/1/2 105/1/2 109/1/2
f 109/1/2 101/1/2 110/1/2
f 107/1/2 108/1/2 111/1/2
f 108/1/2 109/1/2 111/1/2
f 111/1/2 109/1/2 112/1/2
f 115/1/3 114/1/3 113/1/3
f 118/1/3 115/1/3 113/1/3
f 118/1/3 116/1/3 115/1/3
f 119/1/3 116/1/3 118/1/3
f 119/1/3 118/1/3 117/1/3
f 120/1/3 116/1/3 119/1/3
f 121/1/3 119/1/3 117/1/3
f 121/2/3 120/2/3 119/2/3
f 122/1/3 116/1/3 120/1/3
f 122/2/3 120/2/3 121/2/3
f 123/1/3 121/1/3 117/1/3
f 123/1/3 122/1/3 121/1/3
f 124/1/3 122/1/3 123/1/3
f 125/1/3 116/1/3 122/1/3
f 125/1/3 122/1/3 124/1/3
f 126/1/3 116/1/3 125/1/3
f 127/1/3 125/1/3 124/1/3
f 128/1/3 125/1/3 127/1/3
f 132/1/3 130/1/3 129/1/3
f 133/1/3 130/1/3 132/1/3
f 135/1/3 134/1/3 133/1/3
f 136/1/3 134/1/3 135/1/3
f 137/1/3 132/1/3 131/1/3
f 138/1/3 132/1/3 137/1/3
f 143/1/3 140/1/3 139/1/3
f 144/1/3 140/1/3 143/1/3
f 145/1/3 142/1/3 141/1/3
f 146/1/3 142/1/3 145/1/3
f 147/1/3 145/1/3 144/1/3
f 148/1/3 145/1/3 147/1/3
f 153/1/3 150/1/3 149/1/3
f 154/1/3 150/1/3 153/1/3
f 155/1/3 152/1/3 151/1/3
f 156/1/3 152/1/3 155/1/3
f 161/1/3 158/1/3 157/1/3
f 162/1/3 158/1/3 161/1/3
f 163/1/3 160/1/3 159/1/3
f 164/1/3 160/1/3 163/1/3
f 165/1/4 166/1/4 167/1/4
f 167/1/4 166/1/4 168/1/4
f 169/1/4 170/1/4 173/1/4
f 173/1/4 170/1/4 174/1/4
f 171/1/4 172/1/4 175/1/4
f 175/1/4 172/1/4 176/1/4
f 177/1/4 178/1/4 181/1/4
f 181/1/4 178/1/4 182/1/4
f 179/1/4 180/1/4 183/1/4
f 183/1/4 180/1/4 184/1/4
f 185/1/4 186/1/4 188/1/4
f 188/1/4 186/1/4 189/1/4
f 187/1/4 188/1/4 191/1/4
f 191/1/4 188/1/4 192/1/4
f 189/1/4 190/1/4 193/1/4
f 193/1/4 190/1/4 194/1/4
f 195/1/4 196/1/4 197/1/4
f 197/1/4 196/1/4 198/1/4
f 198/1/4 199/1/4 200/1/4
f 200/1/4 199/1/4 201/1/4
f 202/1/4 203/1/4 205/1/4
f 204/1/4 205/1/4 206/1/4
f 205/1/4 203/1/4 207/1/4
f 206/1/4 205/1/4 207/1/4
f 207/1/4 203/1/4 208/1/4
f 206/2/4 207/2/4 210/2/4
f 208/1/4 209/1/4 211/1/4
f 210/2/4 207/2/4 211/2/4
f 207/1/4 208/1/4 211/1/4
f 210/1/4 211/1/4 212/1/4
f 211/1/4 209/1/4 212/1/4
f 212/1/4 209/1/4 213/1/4
f 210/1/4 212/1/4 214/1/4
f 212/2/4 213/2/4 214/2/4
f 213/1/4 209/1/4 215/1/4
f 214/2/4 213/2/4 215/2/4
f 214/1/4 215/1/4 216/1/4
f 215/1/4 209/1/4 216/1/4
f 216/1/4 209/1/4 217/1/4
f 210/1/4 214/1/4 218/1/4
f 214/1/4 216/1/4 218/1/4
f 218/1/4 216/1/4 219/1/4
f 216/2/4 217/2/4 220/2/4
f 219/1/4 216/1/4 220/1/4
f 217/1/4 209/1/4 221/1/4
f 220/2/4 217/2/4 221/2/4
f 219/1/4 220/1/4 222/1/4
f 221/1/4 209/1/4 222/1/4
f 220/1/4 221/1/4 222/1/4
f 222/1/4 209/1/4 223/1/4
f 219/1/4 222/1/4 224/1/4
f 224/1/4 222/1/4 225/1/4
f 229/1/5 227/1/5 226/1/5
f 230/1/5 227/1/5 229/1/5
f 233/1/5 229/1/5 228/1/5
f 233/1/5 231/1/5 230/1/5
f 233/1/5 230/1/5 229/1/5
f 234/1/5 231/1/5 233/1/5
f 236/1/5 233/1/5 232/1/5
f 236/1/5 235/1/5 234/1/5
f 236/1/5 234/1/5 233/1/5
f 237/1/5 235/1/5 236/1/5
f 238/1/5 235/1/5 237/1/5
f 239/1/5 235/1/5 238/1/5
f 240/1/5 238/1/5 237/1/5
f 241/1/5 238/1/5 240/1/5
f 242/1/5 238/1/5 241/1/5
f 243/1/5 238/1/5 242/1/5
f 244/1/5 238/1/5 243/1/5
f 245/1/5 238/1/5 244/1/5
f 246/1/5 242/1/5 241/1/5
f 247/2/5 243/2/5 242/2/5
f 247/1/5 242/1/5 246/1/5
f 248/1/5 244/1/5 243/1/5
f 248/2/5 243/2/5 247/2/5
f 249/1/5 244/1/5 248/1/5
f 255/1/5 251/1/5 250/1/5
f 256/1/5 251/1/5 255/1/5
f 257/1/5 253/1/5 252/1/5
f 258/1/5 253/1/5 257/1/5
f 260/1/5 255/1/5 254/1/5
f 261/1/5 255/1/5 260/1/5
f 262/1/5 259/1/5 258/1/5
f 263/1/5 259/1/5 262/1/5
f 268/1/5 265/1/5 264/1/5
f 269/1/5 265/1/5 268/1/5
f 272/1/5 267/1/5 266/1/5
f 273/1/5 267/1/5 272/1/5
f 274/1/5 270/1/5 269/1/5
f 275/1/5 270/1/5 274/1/5
f 276/1/5 272/1/5 271/1/5
f 277/1/5 272/1/5 276/1/5
f 278/1/6 279/1/6 283/1/6
f 283/1/6 279/1/6 284/1/6
f 280/1/6 281/1/6 285/1/6
f 285/1/6 281/1/6 286/1/6
f 282/1/6 283/1/6 288/1/6
f 288/1/6 283/1/6 289/1/6
f 286/1/6 287/1/6 290/1/6
f 290/1/6 287/1/6 291/1/6
f 292/1/6 293/1/6 297/1/6
f 294/1/6 295/1/6 298/1/6
f 298/1/6 295/1/6 299/1/6
f 296/1/6 297/1/6 301/1/6
f 297/1/6 293/1/6 301/1/6
f 301/1/6 293/1/6 302/1/6
f 299/1/6 300/1/6 303/1/6
f 303/1/6 300/1/6 304/1/6
f 296/1/6 301/1/6 305/1/6
f 305/1/6 301/1/6 306/1/6
f 307/1/6 308/1/6 310/1/6
f 310/1/6 308/1/6 311/1/6
f 311/1/6 308/1/6 312/1/6
f 312/1/6 308/1/6 313/1/6
f 309/1/6 310/1/6 316/1/6
f 310/1/6 311/1/6 316/1/6
f 316/1/6 311/1/6 317/1/6
f 317/1/6 311/1/6 318/1/6
f 311/2/6 312/2/6 319/2/6
f 318/1/6 311/1/6 319/1/6
f 313/1/6 314/1/6 320/1/6
f 319/2/6 312/2/6 320/2/6
f 312/1/6 313/1/6 320/1/6
f 320/1/6 314/1/6 321/1/6
f 316/1/6 317/1/6 323/1/6
f 315/1/6 316/1/6 323/1/6
f 317/2/6 318/2/6 324/2/6
f 323/1/6 317/1/6 324/1/6
f 318/1/6 319/1/6 325/1/6
f 324/2/6 318/2/6 325/2/6
f 321/1/6 322/1/6 325/1/6
f 319/1/6 320/1/6 325/1/6
f 320/1/6 321/1/6 325/1/6
f 325/1/6 322/1/6 326/1/6
f 326/1/6 322/1/6 327/1/6
f 327/1/6 322/1/6 328/1/6
f 328/1/6 322/1/6 329/1/6
f 323/2/6 324/2/6 330/2/6
f 315/1/6 323/1/6 330/1/6
f 324/1/6 325/1/6 331/1/6
f 330/2/6 324/2/6 331/2/6
f 325/1/6 326/1/6 331/1/6
f 328/2/6 329/2/6 332/2/6
f 327/1/6 328/1/6 332/1/6
f 329/1/6 322/1/6 333/1/6
f 332/2/6 329/2/6 333/2/6
f 333/1/6 322/1/6 334/1/6
f 330/1/6 331/1/6 335/1/6
f 331/1/6 326/1/6 336/1/6
f 335/1/6 331/1/6 336/1/6
f 336/1/6 326/1/6 337/1/6
f 326/2/6 327/2/6 338/2/6
f 337/1/6 326/1/6 338/1/6
f 327/1/6 332/1/6 339/1/6
f 338/2/6 327/2/6 339/2/6
f 332/1/6 333/1/6 339/1/6
f 333/2/6 334/2/6 340/2/6
f 339/1/6 333/1/6 340/1/6
f 334/1/6 322/1/6 341/1/6
f 340/2/6 334/2/6 341/2/6
f 330/1/6 335/1/6 342/1/6
f 335/2/6 336/2/6 342/2/6
f 336/1/6 337/1/6 343/1/6
f 342/2/6 336/2/6 343/2/6
f 337/2/6 338/2/6 344/2/6
f 343/1/6 337/1/6 344/1/6
f 339/1/6 340/1/6 345/1/6
f 344/2/6 338/2/6 345/2/6
f 340/1/6 341/1/6 345/1/6
f 338/1/6 339/1/6 345/1/6
f 345/1/6 341/1/6 346/1/6
f 346/1/6 341/1/6 347/1/6
f 341/1/6 322/1/6 348/1/6
f 347/1/6 341/1/6 348/1/6
f 348/1/6 322/1/6 349/1/6
f 342/1/6 343/1/6 350/1/6
f 315/1/6 330/1/6 350/1/6
f 343/1/6 344/1/6 350/1/6
f 345/1/6 346/1/6 350/1/6
f 344/1/6 345/1/6 350/1/6
f 330/1/6 342/1/6 350/1/6
f 350/1/6 346/1/6 351/1/6
f 351/1/6 346/1/6 352/1/6
f 352/1/6 346/1/6 353/1/6
f 346/2/6 347/2/6 354/2/6
f 353/1/6 346/1/6 354/1/6
f 347/1/6 348/1/6 355/1/6
f 354/2/6 347/2/6 355/2/6
f 355/1/6 348/1/6 356/1/6
f 356/1/6 348/1/6 357/1/6
f 351/1/6 352/1/6 358/1/6
f 358/1/6 352/1/6 359/1/6
f 352/2/6 353/2/6 360/2/6
f 359/1/6 352/1/6 360/1/6
f 353/1/6 354/1/6 361/1/6
f 360/2/6 353/2/6 361/2/6
f 355/1/6 356/1/6 361/1/6
f 354/1/6 355/1/6 361/1/6
f 359/1/6 360/1/6 362/1/6
f 360/1/6 361/1/6 362/1/6
f 361/1/6 356/1/6 363/1/6
f 362/1/6 361/1/6 363/1/6