# Blender v2.79 (sub 0) OBJ File: ''
# www.blender.org
o vegetable_slice
v 0.000000 0.100000 0.000000
v 0.000000 0.000000 -0.200000
v 0.000000 0.000000 0.000000
v 0.000000 0.100000 -0.200000
v 0.000000 0.000000 -0.500000
v 0.000000 0.100000 -0.500000
v 0.000000 0.000000 -0.700000
v 0.000000 0.100000 -0.700000
v 0.700000 0.000000 0.000000
v 0.700000 0.000000 -0.300000
v 0.700000 0.100000 0.000000
v 0.700000 0.000000 -0.500000
v 0.700000 0.100000 -0.300000
v 0.700000 0.000000 -0.700000
v 0.700000 0.100000 -0.500000
v 0.700000 0.100000 -0.700000
v 0.200000 0.000000 0.000000
v 0.000000 0.100000 0.000000
v 0.000000 0.000000 0.000000
v 0.200000 0.100000 0.000000
v 0.500000 0.000000 0.000000
v 0.500000 0.100000 0.000000
v 0.700000 0.000000 0.000000
v 0.700000 0.100000 0.000000
v 0.000000 0.000000 -0.700000
v 0.000000 0.100000 -0.700000
v 0.200000 0.000000 -0.700000
v 0.200000 0.100000 -0.700000
v 0.500000 0.000000 -0.700000
v 0.500000 0.100000 -0.700000
v 0.700000 0.000000 -0.700000
v 0.700000 0.100000 -0.700000
v 0.100000 0.000000 -0.100000
v 0.200000 0.000000 0.000000
v 0.000000 0.000000 0.000000
v 0.200000 0.000000 -0.100000
v 0.500000 0.000000 0.000000
v 0.300000 0.000000 -0.100000
v 0.400000 0.000000 -0.100000
v 0.500000 0.000000 -0.100000
v 0.700000 0.000000 0.000000
v 0.600000 0.000000 -0.100000
v 0.000000 0.000000 -0.200000
v 0.100000 0.000000 -0.200000
v 0.400000 0.000000 -0.200000
v 0.500000 0.000000 -0.200000
v 0.100000 0.000000 -0.300000
v 0.200000 0.000000 -0.300000
v 0.300000 0.000000 -0.300000
v 0.400000 0.000000 -0.300000
v 0.500000 0.000000 -0.300000
v 0.600000 0.000000 -0.300000
v 0.700000 0.000000 -0.300000
v 0.300000 0.000000 -0.400000
v 0.400000 0.000000 -0.400000
v 0.000000 0.000000 -0.500000
v 0.100000 0.000000 -0.500000
v 0.200000 0.000000 -0.500000
v 0.300000 0.000000 -0.500000
v 0.400000 0.000000 -0.500000
v 0.600000 0.000000 -0.500000
v 0.700000 0.000000 -0.500000
v 0.100000 0.000000 -0.600000
v 0.200000 0.000000 -0.600000
v 0.300000 0.000000 -0.600000
v 0.400000 0.000000 -0.600000
v 0.500000 0.000000 -0.600000
v 0.600000 0.000000 -0.600000
v 0.000000 0.000000 -0.700000
v 0.200000 0.000000 -0.700000
v 0.500000 0.000000 -0.700000
v 0.700000 0.000000 -0.700000
v 0.000000 0.100000 0.000000
v 0.200000 0.100000 0.000000
v 0.100000 0.100000 -0.100000
v 0.500000 0.100000 0.000000
v 0.200000 0.100000 -0.100000
v 0.300000 0.100000 -0.100000
v 0.400000 0.100000 -0.100000
v 0.700000 0.100000 0.000000
v 0.500000 0.100000 -0.100000
v 0.600000 0.100000 -0.100000
v 0.000000 0.100000 -0.200000
v 0.100000 0.100000 -0.200000
v 0.400000 0.100000 -0.200000
v 0.500000 0.100000 -0.200000
v 0.100000 0.100000 -0.300000
v 0.200000 0.100000 -0.300000
v 0.300000 0.100000 -0.300000
v 0.400000 0.100000 -0.300000
v 0.500000 0.100000 -0.300000
v 0.600000 0.100000 -0.300000
v 0.700000 0.100000 -0.300000
v 0.300000 0.100000 -0.400000
v 0.400000 0.100000 -0.400000
v 0.000000 0.100000 -0.500000
v 0.100000 0.100000 -0.500000
v 0.200000 0.100000 -0.500000
v 0.300000 0.100000 -0.500000
v 0.400000 0.100000 -0.500000
v 0.600000 0.100000 -0.500000
v 0.700000 0.100000 -0.500000
v 0.100000 0.100000 -0.600000
v 0.200000 0.100000 -0.600000
v 0.300000 0.100000 -0.600000
v 0.400000 0.100000 -0.600000
v 0.500000 0.100000 -0.600000
v 0.600000 0.100000 -0.600000
v 0.000000 0.100000 -0.700000
v 0.200000 0.100000 -0.700000
v 0.500000 0.100000 -0.700000
v 0.700000 0.100000 -0.700000
vt 0.556641 0.500000
vt 0.556641 0.500000
vt 0.556641 0.500000
vt 0.560547 0.500000
vt 0.560547 0.500000
vt 0.560547 0.500000
vt 0.556641 0.500000
vt 0.556641 0.500000
vt 0.556641 0.500000
vt 0.556641 0.500000
vt 0.560547 0.500000
vt 0.556641 0.500000
vt 0.556641 0.500000
vt 0.556641 0.500000
vt 0.556641 0.500000
vt 0.560547 0.500000
vt 0.560547 0.500000
vt 0.560547 0.500000
vt 0.556641 0.500000
vt 0.556641 0.500000
vt 0.556641 0.500000
vt 0.556641 0.500000
vt 0.560547 0.500000
vt 0.556641 0.500000
vt 0.556641 0.500000
vt 0.556641 0.500000
vt 0.556641 0.500000
vt 0.556641 0.500000
vt 0.560547 0.500000
vt 0.560547 0.500000
vt 0.560547 0.500000
vt 0.560547 0.500000
vt 0.556641 0.500000
vt 0.556641 0.500000
vt 0.556641 0.500000
vt 0.556641 0.500000
vt 0.556641 0.500000
vt 0.556641 0.500000
vt 0.556641 0.500000
vt 0.556641 0.500000
vt 0.560547 0.500000
vt 0.560547 0.500000
vt 0.560547 0.500000
vt 0.560547 0.500000
vt 0.556641 0.500000
vt 0.556641 0.500000
vt 0.556641 0.500000
vt 0.556641 0.500000
vt 0.556641 0.500000
vt 0.556641 0.500000
vt 0.556641 0.500000
vt 0.560547 0.500000
vt 0.560547 0.500000
vt 0.560547 0.500000
vt 0.556641 0.500000
vt 0.560547 0.500000
vt 0.560547 0.500000
vt 0.556641 0.500000
vt 0.556641 0.500000
vt 0.556641 0.500000
vt 0.560547 0.500000
vt 0.556641 0.500000
vt 0.556641 0.500000
vt 0.560547 0.500000
vt 0.560547 0.500000
vt 0.556641 0.500000
vt 0.560547 0.500000
vt 0.556641 0.500000
vt 0.556641 0.500000
vt 0.560547 0.500000
vt 0.560547 0.500000
vt 0.556641 0.500000
vt 0.560547 0.500000
vt 0.560547 0.500000
vt 0.556641 0.500000
vt 0.556641 0.500000
vt 0.560547 0.500000
vt 0.560547 0.500000
vt 0.556641 0.500000
vt 0.560547 0.500000
vt 0.560547 0.500000
vt 0.556641 0.500000
vt 0.560547 0.500000
vt 0.556641 0.500000
vt 0.560547 0.500000
vt 0.556641 0.500000
vt 0.556641 0.500000
vt 0.556641 0.500000
vt 0.560547 0.500000
vt 0.560547 0.500000
vt 0.556641 0.500000
vt 0.556641 0.500000
vt 0.560547 0.500000
vt 0.560547 0.500000
vt 0.556641 0.500000
vt 0.556641 0.500000
vt 0.556641 0.500000
vt 0.560547 0.500000
vt 0.556641 0.500000
vt 0.560547 0.500000
vt 0.560547 0.500000
vt 0.560547 0.500000
vt 0.556641 0.500000
vt 0.556641 0.500000
vt 0.560547 0.500000
vt 0.556641 0.500000
vt 0.560547 0.500000
vt 0.560547 0.500000
vt 0.560547 0.500000
vt 0.556641 0.500000
vt 0.556641 0.500000
vt 0.560547 0.500000
vt 0.560547 0.500000
vt 0.556641 0.500000
vt 0.556641 0.500000
vt 0.556641 0.500000
vt 0.556641 0.500000
vt 0.560547 0.500000
vt 0.556641 0.500000
vt 0.560547 0.500000
vt 0.556641 0.500000
vt 0.556641 0.500000
vt 0.560547 0.500000
vt 0.556641 0.500000
vt 0.556641 0.500000
vt 0.556641 0.500000
vt 0.556641 0.500000
vt 0.560547 0.500000
vt 0.560547 0.500000
vt 0.560547 0.500000
vt 0.556641 0.500000
vt 0.560547 0.500000
vt 0.560547 0.500000
vt 0.556641 0.500000
vt 0.556641 0.500000
vt 0.556641 0.500000
vt 0.560547 0.500000
vt 0.556641 0.500000
vt 0.556641 0.500000
vt 0.560547 0.500000
vt 0.560547 0.500000
vt 0.556641 0.500000
vt 0.560547 0.500000
vt 0.556641 0.500000
vt 0.556641 0.500000
vt 0.560547 0.500000
vt 0.560547 0.500000
vt 0.556641 0.500000
vt 0.560547 0.500000
vt 0.560547 0.500000
vt 0.556641 0.500000
vt 0.556641 0.500000
vt 0.560547 0.500000
vt 0.560547 0.500000
vt 0.556641 0.500000
vt 0.560547 0.500000
vt 0.560547 0.500000
vt 0.556641 0.500000
vt 0.560547 0.500000
vt 0.556641 0.500000
vt 0.560547 0.500000
vt 0.556641 0.500000
vt 0.556641 0.500000
vt 0.556641 0.500000
vt 0.560547 0.500000
vt 0.560547 0.500000
vt 0.556641 0.500000
vt 0.556641 0.500000
vt 0.560547 0.500000
vt 0.560547 0.500000
vt 0.556641 0.500000
vt 0.556641 0.500000
vt 0.556641 0.500000
vt 0.560547 0.500000
vt 0.556641 0.500000
vt 0.560547 0.500000
vt 0.560547 0.500000
vt 0.560547 0.500000
vt 0.556641 0.500000
vt 0.556641 0.500000
vt 0.560547 0.500000
vt 0.556641 0.500000
vt 0.560547 0.500000
vt 0.560547 0.500000
vt 0.560547 0.500000
vt 0.556641 0.500000
vt 0.556641 0.500000
vt 0.560547 0.500000
vt 0.560547 0.500000
vt 0.556641 0.500000
vt 0.556641 0.500000
vt 0.556641 0.500000
vt 0.556641 0.500000
vt 0.560547 0.500000
vt 0.556641 0.500000
vt 0.560547 0.500000
vt 0.556641 0.500000
vt 0.556641 0.500000
vt 0.560547 0.500000
vt 0.556641 0.500000
vn -1.0000 0.0000 0.0000
vn 1.0000 0.0000 0.0000
vn 0.0000 -0.0000 1.0000
vn 0.0000 0.0000 -1.0000
vn 0.0000 -1.0000 -0.0000
vn -0.0000 1.0000 0.0000
usemtl None
s 1
f 1/1/1 2/2/1 3/3/1
f 4/4/1 5/5/1 2/6/1
f 4/7/1 2/2/1 1/1/1
f 6/8/1 7/9/1 5/10/1
f 6/11/1 5/5/1 4/4/1
f 8/12/1 7/9/1 6/8/1
f 9/13/2 10/14/2 11/15/2
f 10/16/2 12/17/2 13/18/2
f 11/15/2 10/14/2 13/19/2
f 12/20/2 14/21/2 15/22/2
f 13/18/2 12/17/2 15/23/2
f 15/22/2 14/21/2 16/24/2
f 17/25/3 18/26/3 19/27/3
f 20/28/3 18/26/3 17/25/3
f 21/29/3 20/30/3 17/31/3
f 22/32/3 20/30/3 21/29/3
f 23/33/3 22/34/3 21/35/3
f 24/36/3 22/34/3 23/33/3
f 25/37/4 26/38/4 27/39/4
f 27/39/4 26/38/4 28/40/4
f 27/41/4 28/42/4 29/43/4
f 29/43/4 28/42/4 30/44/4
f 29/45/4 30/46/4 31/47/4
f 31/47/4 30/46/4 32/48/4
f 33/49/5 34/50/5 35/51/5
f 36/52/5 37/53/5 34/54/5
f 36/55/5 34/50/5 33/49/5
f 38/56/5 37/53/5 36/52/5
f 39/57/5 37/53/5 38/56/5
f 40/58/5 41/59/5 37/60/5
f 40/61/5 37/53/5 39/57/5
f 42/62/5 41/59/5 40/58/5
f 43/63/5 33/49/5 35/51/5
f 44/64/5 36/52/5 33/65/5
f 44/66/5 33/49/5 43/63/5
f 45/67/5 39/57/5 38/56/5
f 45/68/5 40/58/5 39/69/5
f 46/70/5 42/71/5 40/61/5
f 46/72/5 40/58/5 45/68/5
f 47/73/5 36/52/5 44/64/5
f 47/73/5 44/64/5 43/74/5
f 48/75/5 38/76/5 36/55/5
f 48/77/5 36/52/5 47/73/5
f 49/78/5 46/70/5 45/67/5
f 49/79/5 38/76/5 48/75/5
f 49/78/5 45/67/5 38/56/5
f 50/80/5 46/70/5 49/78/5
f 51/81/5 42/71/5 46/70/5
f 51/81/5 46/70/5 50/80/5
f 52/82/5 41/59/5 42/62/5
f 52/83/5 42/71/5 51/81/5
f 53/84/5 41/59/5 52/82/5
f 54/85/5 50/80/5 49/78/5
f 54/85/5 49/78/5 48/77/5
f 55/86/5 51/87/5 50/88/5
f 55/89/5 50/80/5 54/85/5
f 56/90/5 47/73/5 43/74/5
f 57/91/5 48/75/5 47/92/5
f 57/93/5 47/73/5 56/90/5
f 58/94/5 54/85/5 48/77/5
f 58/95/5 48/75/5 57/91/5
f 59/96/5 55/86/5 54/97/5
f 59/98/5 54/85/5 58/94/5
f 60/99/5 51/87/5 55/86/5
f 60/99/5 55/86/5 59/96/5
f 61/100/5 53/101/5 52/83/5
f 61/100/5 52/83/5 51/81/5
f 62/102/5 53/101/5 61/100/5
f 63/103/5 57/91/5 56/104/5
f 63/105/5 58/94/5 57/93/5
f 64/106/5 59/96/5 58/95/5
f 64/107/5 58/94/5 63/105/5
f 65/108/5 60/109/5 59/98/5
f 65/110/5 59/96/5 64/106/5
f 66/111/5 51/87/5 60/99/5
f 66/112/5 60/109/5 65/108/5
f 67/113/5 61/100/5 51/81/5
f 67/114/5 51/87/5 66/111/5
f 68/115/5 62/116/5 61/117/5
f 68/118/5 61/100/5 67/113/5
f 69/119/5 63/103/5 56/104/5
f 69/119/5 64/106/5 63/103/5
f 70/120/5 65/108/5 64/107/5
f 70/121/5 64/106/5 69/119/5
f 70/120/5 67/113/5 66/112/5
f 70/120/5 66/112/5 65/108/5
f 71/122/5 68/115/5 67/114/5
f 71/123/5 67/113/5 70/120/5
f 72/124/5 62/116/5 68/115/5
f 72/124/5 68/115/5 71/122/5
f 73/125/6 74/126/6 75/127/6
f 74/128/6 76/129/6 77/130/6
f 75/127/6 74/126/6 77/131/6
f 77/130/6 76/129/6 78/132/6
f 78/132/6 76/129/6 79/133/6
f 76/134/6 80/135/6 81/136/6
f 79/133/6 76/129/6 81/137/6
f 81/136/6 80/135/6 82/138/6
f 73/125/6 75/127/6 83/139/6
f 75/140/6 77/130/6 84/141/6
f 83/139/6 75/127/6 84/142/6
f 78/132/6 79/133/6 85/143/6
f 79/144/6 81/136/6 85/145/6
f 81/137/6 82/146/6 86/147/6
f 85/145/6 81/136/6 86/148/6
f 84/141/6 77/130/6 87/149/6
f 83/150/6 84/141/6 87/149/6
f 77/131/6 78/151/6 88/152/6
f 87/149/6 77/130/6 88/153/6
f 85/143/6 86/147/6 89/154/6
f 88/152/6 78/151/6 89/155/6
f 78/132/6 85/143/6 89/154/6
f 89/154/6 86/147/6 90/156/6
f 86/147/6 82/146/6 91/157/6
f 90/156/6 86/147/6 91/157/6
f 82/138/6 80/135/6 92/158/6
f 91/157/6 82/146/6 92/159/6
f 92/158/6 80/135/6 93/160/6
f 89/154/6 90/156/6 94/161/6
f 88/153/6 89/154/6 94/161/6
f 90/162/6 91/163/6 95/164/6
f 94/161/6 90/156/6 95/165/6
f 83/150/6 87/149/6 96/166/6
f 87/167/6 88/152/6 97/168/6
f 96/166/6 87/149/6 97/169/6
f 88/153/6 94/161/6 98/170/6
f 97/168/6 88/152/6 98/171/6
f 94/172/6 95/164/6 99/173/6
f 98/170/6 94/161/6 99/174/6
f 95/164/6 91/163/6 100/175/6
f 99/173/6 95/164/6 100/175/6
f 92/159/6 93/176/6 101/177/6
f 91/157/6 92/159/6 101/177/6
f 101/177/6 93/176/6 102/178/6
f 96/179/6 97/168/6 103/180/6
f 97/169/6 98/170/6 103/181/6
f 98/171/6 99/173/6 104/182/6
f 103/181/6 98/170/6 104/183/6
f 99/174/6 100/184/6 105/185/6
f 104/182/6 99/173/6 105/186/6
f 100/175/6 91/163/6 106/187/6
f 105/185/6 100/184/6 106/188/6
f 91/157/6 101/177/6 107/189/6
f 106/187/6 91/163/6 107/190/6
f 101/191/6 102/192/6 108/193/6
f 107/189/6 101/177/6 108/194/6
f 96/179/6 103/180/6 109/195/6
f 103/180/6 104/182/6 109/195/6
f 104/183/6 105/185/6 110/196/6
f 109/195/6 104/182/6 110/197/6
f 106/188/6 107/189/6 110/196/6
f 105/185/6 106/188/6 110/196/6
f 107/190/6 108/193/6 111/198/6
f 110/196/6 107/189/6 111/199/6
f 108/193/6 102/192/6 112/200/6
f 111/198/6 108/193/6 112/200/6
