# MagicaVoxel @ Ephtracy

# group
g display

# material

# normals
vn -1 0 0
vn 1 0 0
vn 0 0 1
vn 0 0 -1
vn 0 -1 0
vn 0 1 0

# texcoords
vt 0.919922 0.5
vt 0.931641 0.5

# verts
v -0.49998600000000004 0.583317 0.49998600000000004
v -0.49998600000000004 0.583317 -0.49998600000000004
v -0.49998600000000004 0.6388710000000001 0.49998600000000004
v -0.49998600000000004 0.6388710000000001 -0.49998600000000004
v -0.416655 0.0 0.416655
v -0.416655 0.0 -0.416655
v -0.416655 0.583317 0.416655
v -0.416655 0.583317 -0.416655
v -0.305547 0.6388710000000001 0.19443900000000003
v -0.305547 0.6388710000000001 -0.19443900000000003
v -0.305547 0.805533 0.19443900000000003
v -0.305547 0.805533 -0.19443900000000003
v 0.22221600000000002 0.6388710000000001 0.19443900000000003
v 0.22221600000000002 0.6388710000000001 -0.19443900000000003
v 0.22221600000000002 0.666648 0.19443900000000003
v 0.22221600000000002 0.666648 -0.19443900000000003
v 0.24999300000000002 0.6944250000000001 0.138885
v 0.24999300000000002 0.6944250000000001 -0.138885
v 0.24999300000000002 0.805533 0.138885
v 0.24999300000000002 0.805533 -0.138885
v -0.24999300000000002 0.6944250000000001 0.138885
v -0.24999300000000002 0.6944250000000001 -0.138885
v -0.24999300000000002 0.805533 0.138885
v -0.24999300000000002 0.805533 -0.138885
v -0.22221600000000002 0.6388710000000001 0.19443900000000003
v -0.22221600000000002 0.6388710000000001 -0.19443900000000003
v -0.22221600000000002 0.666648 0.19443900000000003
v -0.22221600000000002 0.666648 -0.19443900000000003
v 0.305547 0.6388710000000001 0.19443900000000003
v 0.305547 0.6388710000000001 -0.19443900000000003
v 0.305547 0.805533 0.19443900000000003
v 0.305547 0.805533 -0.19443900000000003
v 0.416655 0.0 0.416655
v 0.416655 0.0 -0.416655
v 0.416655 0.583317 0.416655
v 0.416655 0.583317 -0.416655
v 0.49998600000000004 0.583317 0.49998600000000004
v 0.49998600000000004 0.583317 -0.49998600000000004
v 0.49998600000000004 0.6388710000000001 0.49998600000000004
v 0.49998600000000004 0.6388710000000001 -0.49998600000000004
v -0.49998600000000004 0.583317 0.49998600000000004
v -0.49998600000000004 0.6388710000000001 0.49998600000000004
v 0.49998600000000004 0.583317 0.49998600000000004
v 0.49998600000000004 0.6388710000000001 0.49998600000000004
v -0.416655 0.0 0.416655
v -0.416655 0.583317 0.416655
v 0.416655 0.0 0.416655
v 0.416655 0.583317 0.416655
v -0.305547 0.6388710000000001 0.19443900000000003
v -0.305547 0.805533 0.19443900000000003
v -0.22221600000000002 0.6388710000000001 0.19443900000000003
v -0.22221600000000002 0.666648 0.19443900000000003
v 0.22221600000000002 0.6388710000000001 0.19443900000000003
v 0.22221600000000002 0.666648 0.19443900000000003
v 0.305547 0.6388710000000001 0.19443900000000003
v 0.305547 0.805533 0.19443900000000003
v -0.24999300000000002 0.6944250000000001 -0.138885
v -0.24999300000000002 0.805533 -0.138885
v 0.24999300000000002 0.6944250000000001 -0.138885
v 0.24999300000000002 0.805533 -0.138885
v -0.24999300000000002 0.6944250000000001 0.138885
v -0.24999300000000002 0.805533 0.138885
v 0.24999300000000002 0.6944250000000001 0.138885
v 0.24999300000000002 0.805533 0.138885
v -0.305547 0.6388710000000001 -0.19443900000000003
v -0.305547 0.805533 -0.19443900000000003
v -0.22221600000000002 0.6388710000000001 -0.19443900000000003
v -0.22221600000000002 0.666648 -0.19443900000000003
v 0.22221600000000002 0.6388710000000001 -0.19443900000000003
v 0.22221600000000002 0.666648 -0.19443900000000003
v 0.305547 0.6388710000000001 -0.19443900000000003
v 0.305547 0.805533 -0.19443900000000003
v -0.416655 0.0 -0.416655
v -0.416655 0.583317 -0.416655
v 0.416655 0.0 -0.416655
v 0.416655 0.583317 -0.416655
v -0.49998600000000004 0.583317 -0.49998600000000004
v -0.49998600000000004 0.6388710000000001 -0.49998600000000004
v 0.49998600000000004 0.583317 -0.49998600000000004
v 0.49998600000000004 0.6388710000000001 -0.49998600000000004
v -0.416655 0.0 0.416655
v 0.416655 0.0 0.416655
v -0.416655 0.0 -0.416655
v 0.416655 0.0 -0.416655
v -0.49998600000000004 0.583317 0.49998600000000004
v 0.49998600000000004 0.583317 0.49998600000000004
v -0.416655 0.583317 0.416655
v 0.416655 0.583317 0.416655
v -0.416655 0.583317 -0.416655
v 0.416655 0.583317 -0.416655
v -0.49998600000000004 0.583317 -0.49998600000000004
v 0.49998600000000004 0.583317 -0.49998600000000004
v -0.22221600000000002 0.666648 0.19443900000000003
v 0.22221600000000002 0.666648 0.19443900000000003
v -0.22221600000000002 0.666648 -0.19443900000000003
v 0.22221600000000002 0.666648 -0.19443900000000003
v -0.49998600000000004 0.6388710000000001 0.49998600000000004
v 0.49998600000000004 0.6388710000000001 0.49998600000000004
v -0.305547 0.6388710000000001 0.19443900000000003
v -0.22221600000000002 0.6388710000000001 0.19443900000000003
v 0.22221600000000002 0.6388710000000001 0.19443900000000003
v 0.305547 0.6388710000000001 0.19443900000000003
v -0.305547 0.6388710000000001 -0.19443900000000003
v -0.22221600000000002 0.6388710000000001 -0.19443900000000003
v 0.22221600000000002 0.6388710000000001 -0.19443900000000003
v 0.305547 0.6388710000000001 -0.19443900000000003
v -0.49998600000000004 0.6388710000000001 -0.49998600000000004
v 0.49998600000000004 0.6388710000000001 -0.49998600000000004
v -0.24999300000000002 0.6944250000000001 0.138885
v 0.24999300000000002 0.6944250000000001 0.138885
v -0.24999300000000002 0.6944250000000001 -0.138885
v 0.24999300000000002 0.6944250000000001 -0.138885
v -0.305547 0.805533 0.19443900000000003
v 0.305547 0.805533 0.19443900000000003
v -0.24999300000000002 0.805533 0.138885
v 0.24999300000000002 0.805533 0.138885
v -0.24999300000000002 0.805533 -0.138885
v 0.24999300000000002 0.805533 -0.138885
v -0.305547 0.805533 -0.19443900000000003
v 0.305547 0.805533 -0.19443900000000003

# faces
f 3/1/1 2/1/1 1/1/1
f 4/1/1 2/1/1 3/1/1
f 7/1/1 6/1/1 5/1/1
f 8/1/1 6/1/1 7/1/1
f 11/2/1 10/2/1 9/2/1
f 12/2/1 10/2/1 11/2/1
f 15/2/1 14/2/1 13/2/1
f 16/2/1 14/2/1 15/2/1
f 19/2/1 18/2/1 17/2/1
f 20/2/1 18/2/1 19/2/1
f 21/2/2 22/2/2 23/2/2
f 23/2/2 22/2/2 24/2/2
f 25/2/2 26/2/2 27/2/2
f 27/2/2 26/2/2 28/2/2
f 29/2/2 30/2/2 31/2/2
f 31/2/2 30/2/2 32/2/2
f 33/1/2 34/1/2 35/1/2
f 35/1/2 34/1/2 36/1/2
f 37/1/2 38/1/2 39/1/2
f 39/1/2 38/1/2 40/1/2
f 43/1/3 42/1/3 41/1/3
f 44/1/3 42/1/3 43/1/3
f 47/1/3 46/1/3 45/1/3
f 48/1/3 46/1/3 47/1/3
f 51/2/3 50/2/3 49/2/3
f 52/2/3 50/2/3 51/2/3
f 54/2/3 50/2/3 52/2/3
f 55/2/3 54/2/3 53/2/3
f 56/2/3 50/2/3 54/2/3
f 56/2/3 54/2/3 55/2/3
f 59/2/3 58/2/3 57/2/3
f 60/2/3 58/2/3 59/2/3
f 61/2/4 62/2/4 63/2/4
f 63/2/4 62/2/4 64/2/4
f 65/2/4 66/2/4 67/2/4
f 67/2/4 66/2/4 68/2/4
f 68/2/4 66/2/4 70/2/4
f 69/2/4 70/2/4 71/2/4
f 70/2/4 66/2/4 72/2/4
f 71/2/4 70/2/4 72/2/4
f 73/1/4 74/1/4 75/1/4
f 75/1/4 74/1/4 76/1/4
f 77/1/4 78/1/4 79/1/4
f 79/1/4 78/1/4 80/1/4
f 83/1/5 82/1/5 81/1/5
f 84/1/5 82/1/5 83/1/5
f 87/1/5 86/1/5 85/1/5
f 88/1/5 86/1/5 87/1/5
f 89/1/5 87/1/5 85/1/5
f 90/1/5 86/1/5 88/1/5
f 91/1/5 89/1/5 85/1/5
f 91/1/5 90/1/5 89/1/5
f 92/1/5 86/1/5 90/1/5
f 92/1/5 90/1/5 91/1/5
f 95/2/5 94/2/5 93/2/5
f 96/2/5 94/2/5 95/2/5
f 97/1/6 98/1/6 99/1/6
f 99/1/6 98/1/6 100/1/6
f 100/1/6 98/1/6 101/1/6
f 101/1/6 98/1/6 102/1/6
f 97/1/6 99/1/6 103/1/6
f 100/1/6 101/1/6 104/1/6
f 104/1/6 101/1/6 105/1/6
f 102/1/6 98/1/6 106/1/6
f 104/1/6 105/1/6 107/1/6
f 105/1/6 106/1/6 107/1/6
f 97/1/6 103/1/6 107/1/6
f 103/1/6 104/1/6 107/1/6
f 106/1/6 98/1/6 108/1/6
f 107/1/6 106/1/6 108/1/6
f 109/2/6 110/2/6 111/2/6
f 111/2/6 110/2/6 112/2/6
f 113/2/6 114/2/6 115/2/6
f 115/2/6 114/2/6 116/2/6
f 113/2/6 115/2/6 117/2/6
f 116/2/6 114/2/6 118/2/6
f 113/2/6 117/2/6 119/2/6
f 117/2/6 118/2/6 119/2/6
f 118/2/6 114/2/6 120/2/6
f 119/2/6 118/2/6 120/2/6