# MagicaVoxel @ Ephtracy

# group
g floor

# material

# normals
vn -1 0 0
vn 1 0 0
vn 0 0 1
vn 0 0 -1
vn 0 -1 0
vn 0 1 0

# texcoords
vt 0.919922 0.5
vt 0.935547 0.5

# verts
v -0.49998600000000004 0.9444444 0.49998600000000004
v -0.49998600000000004 0.9444444 -0.49998600000000004
v -0.49998600000000004 0.9722214 0.0
v -0.49998600000000004 0.9722214 -0.49998600000000004
v -0.49998600000000004 0.9999984000000001 0.49998600000000004
v -0.49998600000000004 0.9999984000000001 0.0
v -0.49998600000000004 0.9999984000000001 -0.49998600000000004
v 0.49998600000000004 0.9444444 0.49998600000000004
v 0.49998600000000004 0.9444444 -0.49998600000000004
v 0.49998600000000004 0.9722214 0.49998600000000004
v 0.49998600000000004 0.9722214 0.0
v 0.49998600000000004 0.9999984000000001 0.49998600000000004
v 0.49998600000000004 0.9999984000000001 0.0
v 0.49998600000000004 0.9999984000000001 -0.49998600000000004
v -0.49998600000000004 0.9444444 0.49998600000000004
v -0.49998600000000004 0.9999984000000001 0.49998600000000004
v 0.0 0.9722214 0.49998600000000004
v 0.0 0.9999984000000001 0.49998600000000004
v 0.49998600000000004 0.9444444 0.49998600000000004
v 0.49998600000000004 0.9722214 0.49998600000000004
v 0.49998600000000004 0.9999984000000001 0.49998600000000004
v -0.49998600000000004 0.9444444 -0.49998600000000004
v -0.49998600000000004 0.9722214 -0.49998600000000004
v -0.49998600000000004 0.9999984000000001 -0.49998600000000004
v 0.0 0.9722214 -0.49998600000000004
v 0.0 0.9999984000000001 -0.49998600000000004
v 0.49998600000000004 0.9444444 -0.49998600000000004
v 0.49998600000000004 0.9999984000000001 -0.49998600000000004
v -0.49998600000000004 0.9444444 0.49998600000000004
v 0.49998600000000004 0.9444444 0.49998600000000004
v -0.49998600000000004 0.9444444 -0.49998600000000004
v 0.49998600000000004 0.9444444 -0.49998600000000004
v -0.49998600000000004 0.9999984000000001 0.49998600000000004
v 0.0 0.9999984000000001 0.49998600000000004
v 0.49998600000000004 0.9999984000000001 0.49998600000000004
v -0.49998600000000004 0.9999984000000001 0.0
v 0.0 0.9999984000000001 0.0
v 0.49998600000000004 0.9999984000000001 0.0
v -0.49998600000000004 0.9999984000000001 -0.49998600000000004
v 0.0 0.9999984000000001 -0.49998600000000004
v 0.49998600000000004 0.9999984000000001 -0.49998600000000004

# faces
f 3/2/1 2/2/1 1/2/1
f 4/2/1 2/2/1 3/2/1
f 5/2/1 3/2/1 1/2/1
f 6/1/1 4/1/1 3/1/1
f 6/2/1 3/2/1 5/2/1
f 7/1/1 4/1/1 6/1/1
f 8/2/2 9/2/2 10/2/2
f 10/2/2 9/2/2 11/2/2
f 10/1/2 11/1/2 12/1/2
f 11/2/2 9/2/2 13/2/2
f 12/1/2 11/1/2 13/1/2
f 13/2/2 9/2/2 14/2/2
f 17/2/3 16/2/3 15/2/3
f 18/2/3 16/2/3 17/2/3
f 19/2/3 17/2/3 15/2/3
f 20/1/3 18/1/3 17/1/3
f 20/2/3 17/2/3 19/2/3
f 21/1/3 18/1/3 20/1/3
f 22/2/4 23/2/4 25/2/4
f 23/1/4 24/1/4 25/1/4
f 25/1/4 24/1/4 26/1/4
f 22/2/4 25/2/4 27/2/4
f 25/2/4 26/2/4 27/2/4
f 27/2/4 26/2/4 28/2/4
f 31/2/5 30/2/5 29/2/5
f 32/2/5 30/2/5 31/2/5
f 33/2/6 34/2/6 36/2/6
f 34/1/6 35/1/6 37/1/6
f 36/2/6 34/2/6 37/2/6
f 37/1/6 35/1/6 38/1/6
f 36/1/6 37/1/6 39/1/6
f 37/2/6 38/2/6 40/2/6
f 39/1/6 37/1/6 40/1/6
f 40/2/6 38/2/6 41/2/6