# MagicaVoxel @ Ephtracy

# group
g oven_1

# material

# normals
vn -1 0 0
vn 1 0 0
vn 0 0 1
vn 0 0 -1
vn 0 -1 0
vn 0 1 0

# texcoords
vt 0.146484 0.5
vt 0.919922 0.5
vt 0.931641 0.5
vt 0.935547 0.5
vt 0.958984 0.5
vt 0.994141 0.5

# verts
v -0.49998600000000004 0.583317 0.49998600000000004
v -0.49998600000000004 0.583317 -0.49998600000000004
v -0.49998600000000004 0.6388710000000001 0.49998600000000004
v -0.49998600000000004 0.6388710000000001 -0.49998600000000004
v -0.416655 0.0 0.416655
v -0.416655 0.0 -0.416655
v -0.416655 0.583317 0.416655
v -0.416655 0.583317 -0.416655
v -0.305547 0.6388710000000001 0.138885
v -0.305547 0.6388710000000001 -0.305547
v -0.305547 0.9999720000000001 0.138885
v -0.305547 0.9999720000000001 -0.305547
v 0.166662 0.6944250000000001 0.19443900000000003
v 0.166662 0.6944250000000001 0.138885
v 0.166662 0.7222020000000001 0.166662
v 0.166662 0.7222020000000001 0.138885
v 0.166662 0.9166410000000002 0.166662
v 0.166662 0.9166410000000002 0.138885
v 0.166662 0.9444180000000002 0.19443900000000003
v 0.166662 0.9444180000000002 0.138885
v 0.24999300000000002 0.6388710000000001 -0.305547
v 0.24999300000000002 0.6388710000000001 -0.333324
v 0.24999300000000002 0.6944250000000001 0.166662
v 0.24999300000000002 0.6944250000000001 0.138885
v 0.24999300000000002 0.6944250000000001 -0.305547
v 0.24999300000000002 0.6944250000000001 -0.333324
v 0.24999300000000002 0.7499790000000002 0.166662
v 0.24999300000000002 0.7499790000000002 0.138885
v 0.24999300000000002 0.7777560000000001 0.166662
v 0.24999300000000002 0.7777560000000001 0.138885
v 0.24999300000000002 0.83331 0.166662
v 0.24999300000000002 0.83331 0.138885
v 0.24999300000000002 0.861087 0.166662
v 0.24999300000000002 0.861087 0.138885
v 0.24999300000000002 0.9444180000000002 0.166662
v 0.24999300000000002 0.9444180000000002 0.138885
v 0.27777 0.611094 -0.24999300000000002
v 0.27777 0.611094 -0.27777
v 0.27777 0.6388710000000001 -0.24999300000000002
v 0.27777 0.6388710000000001 -0.27777
v 0.22221600000000002 0.6944250000000001 0.19443900000000003
v 0.22221600000000002 0.6944250000000001 0.138885
v 0.22221600000000002 0.7222020000000001 0.166662
v 0.22221600000000002 0.7222020000000001 0.138885
v 0.22221600000000002 0.9166410000000002 0.166662
v 0.22221600000000002 0.9166410000000002 0.138885
v 0.22221600000000002 0.9444180000000002 0.19443900000000003
v 0.22221600000000002 0.9444180000000002 0.138885
v 0.24999300000000002 0.611094 -0.24999300000000002
v 0.24999300000000002 0.611094 -0.27777
v 0.24999300000000002 0.6388710000000001 -0.24999300000000002
v 0.24999300000000002 0.6388710000000001 -0.27777
v 0.27777 0.6388710000000001 -0.305547
v 0.27777 0.6388710000000001 -0.333324
v 0.27777 0.6944250000000001 0.166662
v 0.27777 0.6944250000000001 0.138885
v 0.27777 0.6944250000000001 -0.305547
v 0.27777 0.6944250000000001 -0.333324
v 0.27777 0.7499790000000002 0.166662
v 0.27777 0.7499790000000002 0.138885
v 0.27777 0.7777560000000001 0.166662
v 0.27777 0.7777560000000001 0.138885
v 0.27777 0.83331 0.166662
v 0.27777 0.83331 0.138885
v 0.27777 0.861087 0.166662
v 0.27777 0.861087 0.138885
v 0.27777 0.9444180000000002 0.166662
v 0.27777 0.9444180000000002 0.138885
v 0.305547 0.6388710000000001 0.138885
v 0.305547 0.6388710000000001 -0.305547
v 0.305547 0.9999720000000001 0.138885
v 0.305547 0.9999720000000001 -0.305547
v 0.416655 0.0 0.416655
v 0.416655 0.0 -0.416655
v 0.416655 0.583317 0.416655
v 0.416655 0.583317 -0.416655
v 0.49998600000000004 0.583317 0.49998600000000004
v 0.49998600000000004 0.583317 -0.49998600000000004
v 0.49998600000000004 0.6388710000000001 0.49998600000000004
v 0.49998600000000004 0.6388710000000001 -0.49998600000000004
v -0.49998600000000004 0.583317 0.49998600000000004
v -0.49998600000000004 0.6388710000000001 0.49998600000000004
v 0.49998600000000004 0.583317 0.49998600000000004
v 0.49998600000000004 0.6388710000000001 0.49998600000000004
v -0.416655 0.0 0.416655
v -0.416655 0.583317 0.416655
v 0.416655 0.0 0.416655
v 0.416655 0.583317 0.416655
v 0.166662 0.6944250000000001 0.19443900000000003
v 0.166662 0.9444180000000002 0.19443900000000003
v 0.22221600000000002 0.6944250000000001 0.19443900000000003
v 0.22221600000000002 0.9444180000000002 0.19443900000000003
v 0.24999300000000002 0.6944250000000001 0.166662
v 0.24999300000000002 0.7499790000000002 0.166662
v 0.24999300000000002 0.7777560000000001 0.166662
v 0.24999300000000002 0.83331 0.166662
v 0.24999300000000002 0.861087 0.166662
v 0.24999300000000002 0.9444180000000002 0.166662
v 0.27777 0.6944250000000001 0.166662
v 0.27777 0.7499790000000002 0.166662
v 0.27777 0.7777560000000001 0.166662
v 0.27777 0.83331 0.166662
v 0.27777 0.861087 0.166662
v 0.27777 0.9444180000000002 0.166662
v -0.305547 0.6388710000000001 0.138885
v -0.305547 0.9999720000000001 0.138885
v -0.27777 0.9444180000000002 0.138885
v -0.27777 0.9721950000000001 0.138885
v -0.24999300000000002 0.6944250000000001 0.138885
v -0.24999300000000002 0.9444180000000002 0.138885
v -0.24999300000000002 0.9721950000000001 0.138885
v -0.22221600000000002 0.805533 0.138885
v -0.22221600000000002 0.83331 0.138885
v -0.19443900000000003 0.6944250000000001 0.138885
v -0.19443900000000003 0.7222020000000001 0.138885
v -0.19443900000000003 0.805533 0.138885
v -0.19443900000000003 0.83331 0.138885
v -0.19443900000000003 0.861087 0.138885
v -0.166662 0.6944250000000001 0.138885
v -0.166662 0.7222020000000001 0.138885
v -0.166662 0.7499790000000002 0.138885
v -0.166662 0.83331 0.138885
v -0.166662 0.861087 0.138885
v -0.166662 0.8888640000000001 0.138885
v -0.138885 0.7222020000000001 0.138885
v -0.138885 0.7499790000000002 0.138885
v -0.138885 0.7777560000000001 0.138885
v -0.138885 0.861087 0.138885
v -0.138885 0.8888640000000001 0.138885
v -0.138885 0.9166410000000002 0.138885
v -0.11110800000000001 0.7499790000000002 0.138885
v -0.11110800000000001 0.7777560000000001 0.138885
v -0.11110800000000001 0.805533 0.138885
v -0.11110800000000001 0.8888640000000001 0.138885
v -0.11110800000000001 0.9166410000000002 0.138885
v -0.083331 0.7777560000000001 0.138885
v -0.083331 0.805533 0.138885
v -0.083331 0.83331 0.138885
v -0.055554000000000006 0.805533 0.138885
v -0.055554000000000006 0.83331 0.138885
v -0.055554000000000006 0.861087 0.138885
v -0.027777000000000003 0.83331 0.138885
v -0.027777000000000003 0.861087 0.138885
v -0.027777000000000003 0.8888640000000001 0.138885
v 0.0 0.7222020000000001 0.138885
v 0.0 0.7499790000000002 0.138885
v 0.0 0.861087 0.138885
v 0.0 0.8888640000000001 0.138885
v 0.0 0.9166410000000002 0.138885
v 0.027777000000000003 0.7222020000000001 0.138885
v 0.027777000000000003 0.7499790000000002 0.138885
v 0.027777000000000003 0.7777560000000001 0.138885
v 0.027777000000000003 0.8888640000000001 0.138885
v 0.027777000000000003 0.9166410000000002 0.138885
v 0.055554000000000006 0.7499790000000002 0.138885
v 0.055554000000000006 0.7777560000000001 0.138885
v 0.055554000000000006 0.805533 0.138885
v 0.083331 0.7777560000000001 0.138885
v 0.083331 0.805533 0.138885
v 0.083331 0.83331 0.138885
v 0.11110800000000001 0.805533 0.138885
v 0.11110800000000001 0.83331 0.138885
v 0.138885 0.6944250000000001 0.138885
v 0.138885 0.9444180000000002 0.138885
v 0.166662 0.6944250000000001 0.138885
v 0.166662 0.7222020000000001 0.138885
v 0.166662 0.9166410000000002 0.138885
v 0.166662 0.9444180000000002 0.138885
v 0.22221600000000002 0.6944250000000001 0.138885
v 0.22221600000000002 0.7222020000000001 0.138885
v 0.22221600000000002 0.9166410000000002 0.138885
v 0.22221600000000002 0.9444180000000002 0.138885
v 0.24999300000000002 0.6944250000000001 0.138885
v 0.24999300000000002 0.7499790000000002 0.138885
v 0.24999300000000002 0.7777560000000001 0.138885
v 0.24999300000000002 0.83331 0.138885
v 0.24999300000000002 0.861087 0.138885
v 0.24999300000000002 0.9444180000000002 0.138885
v 0.27777 0.6944250000000001 0.138885
v 0.27777 0.7499790000000002 0.138885
v 0.27777 0.7777560000000001 0.138885
v 0.27777 0.83331 0.138885
v 0.27777 0.861087 0.138885
v 0.27777 0.9444180000000002 0.138885
v 0.305547 0.6388710000000001 0.138885
v 0.305547 0.9999720000000001 0.138885
v 0.24999300000000002 0.611094 -0.27777
v 0.24999300000000002 0.6388710000000001 -0.27777
v 0.27777 0.611094 -0.27777
v 0.27777 0.6388710000000001 -0.27777
v 0.166662 0.7222020000000001 0.166662
v 0.166662 0.9166410000000002 0.166662
v 0.22221600000000002 0.7222020000000001 0.166662
v 0.22221600000000002 0.9166410000000002 0.166662
v 0.24999300000000002 0.611094 -0.24999300000000002
v 0.24999300000000002 0.6388710000000001 -0.24999300000000002
v 0.27777 0.611094 -0.24999300000000002
v 0.27777 0.6388710000000001 -0.24999300000000002
v -0.305547 0.6388710000000001 -0.305547
v -0.305547 0.9999720000000001 -0.305547
v 0.24999300000000002 0.6388710000000001 -0.305547
v 0.24999300000000002 0.6944250000000001 -0.305547
v 0.27777 0.6388710000000001 -0.305547
v 0.27777 0.6944250000000001 -0.305547
v 0.305547 0.6388710000000001 -0.305547
v 0.305547 0.9999720000000001 -0.305547
v 0.24999300000000002 0.6388710000000001 -0.333324
v 0.24999300000000002 0.6944250000000001 -0.333324
v 0.27777 0.6388710000000001 -0.333324
v 0.27777 0.6944250000000001 -0.333324
v -0.416655 0.0 -0.416655
v -0.416655 0.583317 -0.416655
v 0.416655 0.0 -0.416655
v 0.416655 0.583317 -0.416655
v -0.49998600000000004 0.583317 -0.49998600000000004
v -0.49998600000000004 0.6388710000000001 -0.49998600000000004
v 0.49998600000000004 0.583317 -0.49998600000000004
v 0.49998600000000004 0.6388710000000001 -0.49998600000000004
v -0.416655 0.0 0.416655
v 0.416655 0.0 0.416655
v -0.416655 0.0 -0.416655
v 0.416655 0.0 -0.416655
v -0.49998600000000004 0.583317 0.49998600000000004
v 0.49998600000000004 0.583317 0.49998600000000004
v -0.416655 0.583317 0.416655
v 0.416655 0.583317 0.416655
v -0.416655 0.583317 -0.416655
v 0.416655 0.583317 -0.416655
v -0.49998600000000004 0.583317 -0.49998600000000004
v 0.49998600000000004 0.583317 -0.49998600000000004
v 0.24999300000000002 0.6388710000000001 -0.24999300000000002
v 0.27777 0.6388710000000001 -0.24999300000000002
v 0.24999300000000002 0.6388710000000001 -0.27777
v 0.27777 0.6388710000000001 -0.27777
v 0.166662 0.6944250000000001 0.19443900000000003
v 0.22221600000000002 0.6944250000000001 0.19443900000000003
v 0.24999300000000002 0.6944250000000001 0.166662
v 0.27777 0.6944250000000001 0.166662
v 0.166662 0.6944250000000001 0.138885
v 0.22221600000000002 0.6944250000000001 0.138885
v 0.24999300000000002 0.6944250000000001 0.138885
v 0.27777 0.6944250000000001 0.138885
v 0.24999300000000002 0.7777560000000001 0.166662
v 0.27777 0.7777560000000001 0.166662
v 0.24999300000000002 0.7777560000000001 0.138885
v 0.27777 0.7777560000000001 0.138885
v 0.24999300000000002 0.861087 0.166662
v 0.27777 0.861087 0.166662
v 0.24999300000000002 0.861087 0.138885
v 0.27777 0.861087 0.138885
v 0.166662 0.9166410000000002 0.166662
v 0.22221600000000002 0.9166410000000002 0.166662
v 0.166662 0.9166410000000002 0.138885
v 0.22221600000000002 0.9166410000000002 0.138885
v 0.24999300000000002 0.611094 -0.24999300000000002
v 0.27777 0.611094 -0.24999300000000002
v 0.24999300000000002 0.611094 -0.27777
v 0.27777 0.611094 -0.27777
v -0.49998600000000004 0.6388710000000001 0.49998600000000004
v 0.49998600000000004 0.6388710000000001 0.49998600000000004
v -0.305547 0.6388710000000001 0.138885
v 0.305547 0.6388710000000001 0.138885
v -0.305547 0.6388710000000001 -0.305547
v 0.24999300000000002 0.6388710000000001 -0.305547
v 0.27777 0.6388710000000001 -0.305547
v 0.305547 0.6388710000000001 -0.305547
v 0.24999300000000002 0.6388710000000001 -0.333324
v 0.27777 0.6388710000000001 -0.333324
v 0.24999300000000002 0.6388710000000001 -0.36110100000000006
v 0.27777 0.6388710000000001 -0.36110100000000006
v -0.49998600000000004 0.6388710000000001 -0.49998600000000004
v 0.49998600000000004 0.6388710000000001 -0.49998600000000004
v 0.24999300000000002 0.6944250000000001 -0.305547
v 0.27777 0.6944250000000001 -0.305547
v 0.24999300000000002 0.6944250000000001 -0.333324
v 0.27777 0.6944250000000001 -0.333324
v 0.166662 0.7222020000000001 0.166662
v 0.22221600000000002 0.7222020000000001 0.166662
v 0.166662 0.7222020000000001 0.138885
v 0.22221600000000002 0.7222020000000001 0.138885
v 0.24999300000000002 0.7499790000000002 0.166662
v 0.27777 0.7499790000000002 0.166662
v 0.24999300000000002 0.7499790000000002 0.138885
v 0.27777 0.7499790000000002 0.138885
v 0.24999300000000002 0.83331 0.166662
v 0.27777 0.83331 0.166662
v 0.24999300000000002 0.83331 0.138885
v 0.27777 0.83331 0.138885
v 0.166662 0.9444180000000002 0.19443900000000003
v 0.22221600000000002 0.9444180000000002 0.19443900000000003
v 0.24999300000000002 0.9444180000000002 0.166662
v 0.27777 0.9444180000000002 0.166662
v 0.166662 0.9444180000000002 0.138885
v 0.22221600000000002 0.9444180000000002 0.138885
v 0.24999300000000002 0.9444180000000002 0.138885
v 0.27777 0.9444180000000002 0.138885
v -0.305547 0.9999720000000001 0.138885
v 0.305547 0.9999720000000001 0.138885
v -0.305547 0.9999720000000001 -0.305547
v 0.305547 0.9999720000000001 -0.305547

# faces
f 3/2/1 2/2/1 1/2/1
f 4/2/1 2/2/1 3/2/1
f 7/2/1 6/2/1 5/2/1
f 8/2/1 6/2/1 7/2/1
f 11/5/1 10/5/1 9/5/1
f 12/5/1 10/5/1 11/5/1
f 15/6/1 14/6/1 13/6/1
f 16/6/1 14/6/1 15/6/1
f 17/6/1 15/6/1 13/6/1
f 19/6/1 17/6/1 13/6/1
f 19/6/1 18/6/1 17/6/1
f 20/6/1 18/6/1 19/6/1
f 25/6/1 22/6/1 21/6/1
f 26/6/1 22/6/1 25/6/1
f 27/2/1 24/2/1 23/2/1
f 28/2/1 24/2/1 27/2/1
f 31/2/1 30/2/1 29/2/1
f 32/2/1 30/2/1 31/2/1
f 35/2/1 34/2/1 33/2/1
f 36/2/1 34/2/1 35/2/1
f 39/4/1 38/4/1 37/4/1
f 40/4/1 38/4/1 39/4/1
f 41/6/2 42/6/2 43/6/2
f 43/6/2 42/6/2 44/6/2
f 41/6/2 43/6/2 45/6/2
f 41/6/2 45/6/2 47/6/2
f 45/6/2 46/6/2 47/6/2
f 47/6/2 46/6/2 48/6/2
f 49/4/2 50/4/2 51/4/2
f 51/4/2 50/4/2 52/4/2
f 53/6/2 54/6/2 57/6/2
f 57/6/2 54/6/2 58/6/2
f 55/2/2 56/2/2 59/2/2
f 59/2/2 56/2/2 60/2/2
f 61/2/2 62/2/2 63/2/2
f 63/2/2 62/2/2 64/2/2
f 65/2/2 66/2/2 67/2/2
f 67/2/2 66/2/2 68/2/2
f 69/5/2 70/5/2 71/5/2
f 71/5/2 70/5/2 72/5/2
f 73/2/2 74/2/2 75/2/2
f 75/2/2 74/2/2 76/2/2
f 77/2/2 78/2/2 79/2/2
f 79/2/2 78/2/2 80/2/2
f 83/2/3 82/2/3 81/2/3
f 84/2/3 82/2/3 83/2/3
f 87/2/3 86/2/3 85/2/3
f 88/2/3 86/2/3 87/2/3
f 91/6/3 90/6/3 89/6/3
f 92/6/3 90/6/3 91/6/3
f 99/2/3 94/2/3 93/2/3
f 100/2/3 94/2/3 99/2/3
f 101/2/3 96/2/3 95/2/3
f 102/2/3 96/2/3 101/2/3
f 103/2/3 98/2/3 97/2/3
f 104/2/3 98/2/3 103/2/3
f 107/5/3 106/5/3 105/5/3
f 108/5/3 106/5/3 107/5/3
f 109/5/3 107/5/3 105/5/3
f 110/1/3 108/1/3 107/1/3
f 110/5/3 107/5/3 109/5/3
f 111/5/3 106/5/3 108/5/3
f 111/1/3 108/1/3 110/1/3
f 112/3/3 110/3/3 109/3/3
f 113/3/3 110/3/3 112/3/3
f 114/5/3 109/5/3 105/5/3
f 114/3/3 112/3/3 109/3/3
f 115/3/3 112/3/3 114/3/3
f 116/4/3 113/4/3 112/4/3
f 116/3/3 112/3/3 115/3/3
f 117/3/3 110/3/3 113/3/3
f 117/4/3 113/4/3 116/4/3
f 118/3/3 110/3/3 117/3/3
f 119/4/3 115/4/3 114/4/3
f 119/5/3 114/5/3 105/5/3
f 120/3/3 116/3/3 115/3/3
f 120/4/3 115/4/3 119/4/3
f 120/3/3 117/3/3 116/3/3
f 121/3/3 117/3/3 120/3/3
f 122/4/3 118/4/3 117/4/3
f 122/3/3 117/3/3 121/3/3
f 123/3/3 110/3/3 118/3/3
f 123/4/3 118/4/3 122/4/3
f 124/3/3 110/3/3 123/3/3
f 125/4/3 121/4/3 120/4/3
f 125/3/3 120/3/3 119/3/3
f 126/3/3 122/3/3 121/3/3
f 126/4/3 121/4/3 125/4/3
f 126/3/3 123/3/3 122/3/3
f 127/3/3 123/3/3 126/3/3
f 128/4/3 124/4/3 123/4/3
f 128/3/3 123/3/3 127/3/3
f 129/3/3 110/3/3 124/3/3
f 129/4/3 124/4/3 128/4/3
f 130/3/3 110/3/3 129/3/3
f 131/4/3 127/4/3 126/4/3
f 131/3/3 126/3/3 125/3/3
f 132/3/3 128/3/3 127/3/3
f 132/4/3 127/4/3 131/4/3
f 132/3/3 129/3/3 128/3/3
f 133/3/3 129/3/3 132/3/3
f 134/4/3 130/4/3 129/4/3
f 134/3/3 129/3/3 133/3/3
f 135/3/3 110/3/3 130/3/3
f 135/4/3 130/4/3 134/4/3
f 136/4/3 133/4/3 132/4/3
f 136/3/3 132/3/3 131/3/3
f 137/3/3 134/3/3 133/3/3
f 137/4/3 133/4/3 136/4/3
f 137/3/3 135/3/3 134/3/3
f 138/3/3 135/3/3 137/3/3
f 139/3/3 137/3/3 136/3/3
f 139/4/3 138/4/3 137/4/3
f 140/3/3 135/3/3 138/3/3
f 140/4/3 138/4/3 139/4/3
f 141/3/3 135/3/3 140/3/3
f 142/3/3 140/3/3 139/3/3
f 142/4/3 141/4/3 140/4/3
f 143/3/3 135/3/3 141/3/3
f 143/4/3 141/4/3 142/4/3
f 144/3/3 135/3/3 143/3/3
f 145/3/3 125/3/3 119/3/3
f 145/3/3 131/3/3 125/3/3
f 145/3/3 136/3/3 131/3/3
f 145/3/3 143/3/3 142/3/3
f 145/3/3 142/3/3 139/3/3
f 145/3/3 139/3/3 136/3/3
f 146/3/3 143/3/3 145/3/3
f 147/4/3 144/4/3 143/4/3
f 147/3/3 143/3/3 146/3/3
f 148/3/3 135/3/3 144/3/3
f 148/4/3 144/4/3 147/4/3
f 149/3/3 110/3/3 135/3/3
f 149/3/3 135/3/3 148/3/3
f 150/4/3 146/4/3 145/4/3
f 150/3/3 145/3/3 119/3/3
f 151/3/3 147/3/3 146/3/3
f 151/4/3 146/4/3 150/4/3
f 151/3/3 148/3/3 147/3/3
f 152/3/3 148/3/3 151/3/3
f 153/4/3 149/4/3 148/4/3
f 153/3/3 148/3/3 152/3/3
f 154/3/3 110/3/3 149/3/3
f 154/4/3 149/4/3 153/4/3
f 155/4/3 152/4/3 151/4/3
f 155/3/3 151/3/3 150/3/3
f 156/3/3 153/3/3 152/3/3
f 156/4/3 152/4/3 155/4/3
f 156/3/3 154/3/3 153/3/3
f 157/3/3 154/3/3 156/3/3
f 158/3/3 156/3/3 155/3/3
f 158/4/3 157/4/3 156/4/3
f 159/3/3 154/3/3 157/3/3
f 159/4/3 157/4/3 158/4/3
f 160/3/3 154/3/3 159/3/3
f 161/3/3 159/3/3 158/3/3
f 161/4/3 160/4/3 159/4/3
f 162/3/3 154/3/3 160/3/3
f 162/4/3 160/4/3 161/4/3
f 163/5/3 119/5/3 105/5/3
f 163/3/3 150/3/3 119/3/3
f 163/3/3 162/3/3 161/3/3
f 163/3/3 161/3/3 158/3/3
f 163/3/3 158/3/3 155/3/3
f 163/3/3 155/3/3 150/3/3
f 164/3/3 154/3/3 162/3/3
f 164/3/3 162/3/3 163/3/3
f 164/5/3 111/5/3 110/5/3
f 164/3/3 110/3/3 154/3/3
f 165/5/3 163/5/3 105/5/3
f 165/5/3 164/5/3 163/5/3
f 166/5/3 164/5/3 165/5/3
f 167/5/3 164/5/3 166/5/3
f 168/5/3 111/5/3 164/5/3
f 168/5/3 164/5/3 167/5/3
f 169/5/3 165/5/3 105/5/3
f 170/5/3 167/5/3 166/5/3
f 171/5/3 167/5/3 170/5/3
f 172/5/3 111/5/3 168/5/3
f 173/5/3 169/5/3 105/5/3
f 173/5/3 172/5/3 171/5/3
f 173/5/3 171/5/3 170/5/3
f 173/5/3 170/5/3 169/5/3
f 174/5/3 172/5/3 173/5/3
f 175/5/3 172/5/3 174/5/3
f 176/5/3 172/5/3 175/5/3
f 177/5/3 172/5/3 176/5/3
f 178/5/3 111/5/3 172/5/3
f 178/5/3 172/5/3 177/5/3
f 179/5/3 173/5/3 105/5/3
f 180/5/3 175/5/3 174/5/3
f 181/5/3 175/5/3 180/5/3
f 182/5/3 177/5/3 176/5/3
f 183/5/3 177/5/3 182/5/3
f 184/5/3 111/5/3 178/5/3
f 185/5/3 181/5/3 180/5/3
f 185/5/3 184/5/3 183/5/3
f 185/5/3 183/5/3 182/5/3
f 185/5/3 179/5/3 105/5/3
f 185/5/3 182/5/3 181/5/3
f 185/5/3 180/5/3 179/5/3
f 186/5/3 106/5/3 111/5/3
f 186/5/3 184/5/3 185/5/3
f 186/5/3 111/5/3 184/5/3
f 189/4/3 188/4/3 187/4/3
f 190/4/3 188/4/3 189/4/3
f 191/6/4 192/6/4 193/6/4
f 193/6/4 192/6/4 194/6/4
f 195/4/4 196/4/4 197/4/4
f 197/4/4 196/4/4 198/4/4
f 199/5/4 200/5/4 201/5/4
f 201/5/4 200/5/4 202/5/4
f 202/5/4 200/5/4 204/5/4
f 203/5/4 204/5/4 205/5/4
f 204/5/4 200/5/4 206/5/4
f 205/5/4 204/5/4 206/5/4
f 207/6/4 208/6/4 209/6/4
f 209/6/4 208/6/4 210/6/4
f 211/2/4 212/2/4 213/2/4
f 213/2/4 212/2/4 214/2/4
f 215/2/4 216/2/4 217/2/4
f 217/2/4 216/2/4 218/2/4
f 221/2/5 220/2/5 219/2/5
f 222/2/5 220/2/5 221/2/5
f 225/2/5 224/2/5 223/2/5
f 226/2/5 224/2/5 225/2/5
f 227/2/5 225/2/5 223/2/5
f 228/2/5 224/2/5 226/2/5
f 229/2/5 227/2/5 223/2/5
f 229/2/5 228/2/5 227/2/5
f 230/2/5 224/2/5 228/2/5
f 230/2/5 228/2/5 229/2/5
f 233/5/5 232/5/5 231/5/5
f 234/5/5 232/5/5 233/5/5
f 239/6/5 236/6/5 235/6/5
f 240/6/5 236/6/5 239/6/5
f 241/2/5 238/2/5 237/2/5
f 242/2/5 238/2/5 241/2/5
f 245/2/5 244/2/5 243/2/5
f 246/2/5 244/2/5 245/2/5
f 249/2/5 248/2/5 247/2/5
f 250/2/5 248/2/5 249/2/5
f 253/6/5 252/6/5 251/6/5
f 254/6/5 252/6/5 253/6/5
f 255/4/6 256/4/6 257/4/6
f 257/4/6 256/4/6 258/4/6
f 259/2/6 260/2/6 261/2/6
f 261/2/6 260/2/6 262/2/6
f 259/2/6 261/2/6 263/2/6
f 262/2/6 260/2/6 266/2/6
f 263/2/6 264/2/6 267/2/6
f 265/2/6 266/2/6 268/2/6
f 263/2/6 267/2/6 269/2/6
f 267/6/6 268/6/6 269/6/6
f 268/2/6 266/2/6 270/2/6
f 269/6/6 268/6/6 270/6/6
f 263/2/6 269/2/6 271/2/6
f 259/2/6 263/2/6 271/2/6
f 269/2/6 270/2/6 271/2/6
f 270/2/6 266/2/6 272/2/6
f 271/2/6 270/2/6 272/2/6
f 266/2/6 260/2/6 272/2/6
f 273/6/6 274/6/6 275/6/6
f 275/6/6 274/6/6 276/6/6
f 277/6/6 278/6/6 279/6/6
f 279/6/6 278/6/6 280/6/6
f 281/2/6 282/2/6 283/2/6
f 283/2/6 282/2/6 284/2/6
f 285/2/6 286/2/6 287/2/6
f 287/2/6 286/2/6 288/2/6
f 289/6/6 290/6/6 293/6/6
f 293/6/6 290/6/6 294/6/6
f 291/2/6 292/2/6 295/2/6
f 295/2/6 292/2/6 296/2/6
f 297/5/6 298/5/6 299/5/6
f 299/5/6 298/5/6 300/5/6