# MagicaVoxel @ Ephtracy

# group
g table

# material

# normals
vn -1 0 0
vn 1 0 0
vn 0 0 1
vn 0 0 -1
vn 0 -1 0
vn 0 1 0

# texcoords
vt 0.310547 0.5
vt 0.318359 0.5

# verts
v -0.49998600000000004 0.611094 0.49998600000000004
v -0.49998600000000004 0.611094 -0.49998600000000004
v -0.49998600000000004 0.6388710000000001 0.36110100000000006
v -0.49998600000000004 0.6388710000000001 0.333324
v -0.49998600000000004 0.6388710000000001 0.138885
v -0.49998600000000004 0.6388710000000001 0.11110800000000001
v -0.49998600000000004 0.6388710000000001 -0.27777
v -0.49998600000000004 0.6388710000000001 -0.305547
v -0.49998600000000004 0.666648 0.49998600000000004
v -0.49998600000000004 0.666648 0.36110100000000006
v -0.49998600000000004 0.666648 0.333324
v -0.49998600000000004 0.666648 0.138885
v -0.49998600000000004 0.666648 0.11110800000000001
v -0.49998600000000004 0.666648 -0.27777
v -0.49998600000000004 0.666648 -0.305547
v -0.49998600000000004 0.666648 -0.49998600000000004
v -0.416655 0.0 0.38887800000000006
v -0.416655 0.0 0.305547
v -0.416655 0.0 -0.305547
v -0.416655 0.0 -0.38887800000000006
v -0.416655 0.4722090000000001 0.305547
v -0.416655 0.4722090000000001 -0.305547
v -0.416655 0.611094 0.38887800000000006
v -0.416655 0.611094 -0.38887800000000006
v 0.305547 0.4722090000000001 0.305547
v 0.305547 0.4722090000000001 -0.305547
v 0.305547 0.583317 0.305547
v 0.305547 0.583317 -0.305547
v 0.333324 0.0 0.38887800000000006
v 0.333324 0.0 0.305547
v 0.333324 0.0 -0.305547
v 0.333324 0.0 -0.38887800000000006
v 0.333324 0.4722090000000001 0.38887800000000006
v 0.333324 0.4722090000000001 0.305547
v 0.333324 0.4722090000000001 -0.305547
v 0.333324 0.4722090000000001 -0.38887800000000006
v -0.333324 0.0 0.38887800000000006
v -0.333324 0.0 0.305547
v -0.333324 0.0 -0.305547
v -0.333324 0.0 -0.38887800000000006
v -0.333324 0.4722090000000001 0.38887800000000006
v -0.333324 0.4722090000000001 0.305547
v -0.333324 0.4722090000000001 -0.305547
v -0.333324 0.4722090000000001 -0.38887800000000006
v -0.305547 0.4722090000000001 0.305547
v -0.305547 0.4722090000000001 -0.305547
v -0.305547 0.583317 0.305547
v -0.305547 0.583317 -0.305547
v 0.416655 0.0 0.38887800000000006
v 0.416655 0.0 0.305547
v 0.416655 0.0 -0.305547
v 0.416655 0.0 -0.38887800000000006
v 0.416655 0.4722090000000001 0.305547
v 0.416655 0.4722090000000001 -0.305547
v 0.416655 0.611094 0.38887800000000006
v 0.416655 0.611094 -0.38887800000000006
v 0.49998600000000004 0.611094 0.49998600000000004
v 0.49998600000000004 0.611094 -0.49998600000000004
v 0.49998600000000004 0.6388710000000001 0.333324
v 0.49998600000000004 0.6388710000000001 0.305547
v 0.49998600000000004 0.6388710000000001 -0.083331
v 0.49998600000000004 0.6388710000000001 -0.11110800000000001
v 0.49998600000000004 0.666648 0.49998600000000004
v 0.49998600000000004 0.666648 0.333324
v 0.49998600000000004 0.666648 0.305547
v 0.49998600000000004 0.666648 -0.083331
v 0.49998600000000004 0.666648 -0.11110800000000001
v 0.49998600000000004 0.666648 -0.49998600000000004
v -0.49998600000000004 0.611094 0.49998600000000004
v -0.49998600000000004 0.666648 0.49998600000000004
v 0.49998600000000004 0.611094 0.49998600000000004
v 0.49998600000000004 0.666648 0.49998600000000004
v -0.416655 0.0 0.38887800000000006
v -0.416655 0.611094 0.38887800000000006
v -0.333324 0.0 0.38887800000000006
v -0.333324 0.4722090000000001 0.38887800000000006
v 0.333324 0.0 0.38887800000000006
v 0.333324 0.4722090000000001 0.38887800000000006
v 0.416655 0.0 0.38887800000000006
v 0.416655 0.611094 0.38887800000000006
v -0.416655 0.0 -0.305547
v -0.416655 0.4722090000000001 -0.305547
v -0.333324 0.0 -0.305547
v -0.333324 0.4722090000000001 -0.305547
v -0.305547 0.4722090000000001 -0.305547
v -0.305547 0.583317 -0.305547
v 0.305547 0.4722090000000001 -0.305547
v 0.305547 0.583317 -0.305547
v 0.333324 0.0 -0.305547
v 0.333324 0.4722090000000001 -0.305547
v 0.416655 0.0 -0.305547
v 0.416655 0.4722090000000001 -0.305547
v -0.416655 0.0 0.305547
v -0.416655 0.4722090000000001 0.305547
v -0.333324 0.0 0.305547
v -0.333324 0.4722090000000001 0.305547
v -0.305547 0.4722090000000001 0.305547
v -0.305547 0.583317 0.305547
v 0.305547 0.4722090000000001 0.305547
v 0.305547 0.583317 0.305547
v 0.333324 0.0 0.305547
v 0.333324 0.4722090000000001 0.305547
v 0.416655 0.0 0.305547
v 0.416655 0.4722090000000001 0.305547
v -0.416655 0.0 -0.38887800000000006
v -0.416655 0.611094 -0.38887800000000006
v -0.333324 0.0 -0.38887800000000006
v -0.333324 0.4722090000000001 -0.38887800000000006
v 0.333324 0.0 -0.38887800000000006
v 0.333324 0.4722090000000001 -0.38887800000000006
v 0.416655 0.0 -0.38887800000000006
v 0.416655 0.611094 -0.38887800000000006
v -0.49998600000000004 0.611094 -0.49998600000000004
v -0.49998600000000004 0.666648 -0.49998600000000004
v 0.49998600000000004 0.611094 -0.49998600000000004
v 0.49998600000000004 0.666648 -0.49998600000000004
v -0.416655 0.0 0.38887800000000006
v -0.333324 0.0 0.38887800000000006
v 0.333324 0.0 0.38887800000000006
v 0.416655 0.0 0.38887800000000006
v -0.416655 0.0 0.305547
v -0.333324 0.0 0.305547
v 0.333324 0.0 0.305547
v 0.416655 0.0 0.305547
v -0.416655 0.0 -0.305547
v -0.333324 0.0 -0.305547
v 0.333324 0.0 -0.305547
v 0.416655 0.0 -0.305547
v -0.416655 0.0 -0.38887800000000006
v -0.333324 0.0 -0.38887800000000006
v 0.333324 0.0 -0.38887800000000006
v 0.416655 0.0 -0.38887800000000006
v -0.333324 0.4722090000000001 0.38887800000000006
v 0.333324 0.4722090000000001 0.38887800000000006
v -0.416655 0.4722090000000001 0.305547
v -0.333324 0.4722090000000001 0.305547
v -0.305547 0.4722090000000001 0.305547
v 0.305547 0.4722090000000001 0.305547
v 0.333324 0.4722090000000001 0.305547
v 0.416655 0.4722090000000001 0.305547
v -0.416655 0.4722090000000001 -0.305547
v -0.333324 0.4722090000000001 -0.305547
v -0.305547 0.4722090000000001 -0.305547
v 0.305547 0.4722090000000001 -0.305547
v 0.333324 0.4722090000000001 -0.305547
v 0.416655 0.4722090000000001 -0.305547
v -0.333324 0.4722090000000001 -0.38887800000000006
v 0.333324 0.4722090000000001 -0.38887800000000006
v -0.305547 0.583317 0.305547
v 0.305547 0.583317 0.305547
v -0.305547 0.583317 -0.305547
v 0.305547 0.583317 -0.305547
v -0.49998600000000004 0.611094 0.49998600000000004
v 0.49998600000000004 0.611094 0.49998600000000004
v -0.416655 0.611094 0.38887800000000006
v 0.416655 0.611094 0.38887800000000006
v -0.416655 0.611094 -0.38887800000000006
v 0.416655 0.611094 -0.38887800000000006
v -0.49998600000000004 0.611094 -0.49998600000000004
v 0.49998600000000004 0.611094 -0.49998600000000004
v -0.49998600000000004 0.666648 0.49998600000000004
v 0.49998600000000004 0.666648 0.49998600000000004
v -0.333324 0.666648 0.4722090000000001
v 0.0 0.666648 0.4722090000000001
v -0.333324 0.666648 0.44443200000000005
v 0.0 0.666648 0.44443200000000005
v -0.49998600000000004 0.666648 0.36110100000000006
v -0.305547 0.666648 0.36110100000000006
v -0.083331 0.666648 0.36110100000000006
v 0.305547 0.666648 0.36110100000000006
v -0.49998600000000004 0.666648 0.333324
v -0.305547 0.666648 0.333324
v -0.083331 0.666648 0.333324
v 0.305547 0.666648 0.333324
v 0.38887800000000006 0.666648 0.333324
v 0.49998600000000004 0.666648 0.333324
v 0.38887800000000006 0.666648 0.305547
v 0.49998600000000004 0.666648 0.305547
v -0.36110100000000006 0.666648 0.27777
v 0.083331 0.666648 0.27777
v -0.36110100000000006 0.666648 0.24999300000000002
v 0.083331 0.666648 0.24999300000000002
v -0.138885 0.666648 0.19443900000000003
v 0.36110100000000006 0.666648 0.19443900000000003
v -0.138885 0.666648 0.166662
v 0.36110100000000006 0.666648 0.166662
v -0.49998600000000004 0.666648 0.138885
v -0.44443200000000005 0.666648 0.138885
v -0.49998600000000004 0.666648 0.11110800000000001
v -0.44443200000000005 0.666648 0.11110800000000001
v -0.38887800000000006 0.666648 0.11110800000000001
v -0.27777 0.666648 0.11110800000000001
v 0.24999300000000002 0.666648 0.11110800000000001
v -0.44443200000000005 0.666648 0.083331
v -0.38887800000000006 0.666648 0.083331
v -0.27777 0.666648 0.083331
v 0.24999300000000002 0.666648 0.083331
v -0.333324 0.666648 0.055554000000000006
v -0.27777 0.666648 0.055554000000000006
v -0.138885 0.666648 0.027777000000000003
v -0.083331 0.666648 0.027777000000000003
v -0.027777000000000003 0.666648 0.027777000000000003
v 0.24999300000000002 0.666648 0.027777000000000003
v -0.333324 0.666648 -0.0
v -0.27777 0.666648 -0.0
v -0.138885 0.666648 -0.0
v -0.083331 0.666648 -0.0
v -0.027777000000000003 0.666648 -0.0
v 0.24999300000000002 0.666648 -0.0
v -0.333324 0.666648 -0.083331
v 0.49998600000000004 0.666648 -0.083331
v -0.333324 0.666648 -0.11110800000000001
v 0.49998600000000004 0.666648 -0.11110800000000001
v -0.19443900000000003 0.666648 -0.138885
v -0.11110800000000001 0.666648 -0.138885
v -0.24999300000000002 0.666648 -0.166662
v -0.22221600000000002 0.666648 -0.166662
v -0.19443900000000003 0.666648 -0.166662
v -0.11110800000000001 0.666648 -0.166662
v -0.305547 0.666648 -0.19443900000000003
v -0.24999300000000002 0.666648 -0.19443900000000003
v -0.22221600000000002 0.666648 -0.19443900000000003
v -0.166662 0.666648 -0.19443900000000003
v 0.0 0.666648 -0.19443900000000003
v -0.305547 0.666648 -0.22221600000000002
v -0.24999300000000002 0.666648 -0.22221600000000002
v 0.083331 0.666648 -0.22221600000000002
v 0.24999300000000002 0.666648 -0.22221600000000002
v -0.166662 0.666648 -0.24999300000000002
v 0.0 0.666648 -0.24999300000000002
v 0.083331 0.666648 -0.24999300000000002
v 0.24999300000000002 0.666648 -0.24999300000000002
v -0.49998600000000004 0.666648 -0.27777
v -0.27777 0.666648 -0.27777
v -0.49998600000000004 0.666648 -0.305547
v -0.27777 0.666648 -0.305547
v -0.27777 0.666648 -0.333324
v 0.305547 0.666648 -0.333324
v -0.27777 0.666648 -0.36110100000000006
v 0.305547 0.666648 -0.36110100000000006
v -0.083331 0.666648 -0.416655
v 0.027777000000000003 0.666648 -0.416655
v 0.24999300000000002 0.666648 -0.416655
v 0.44443200000000005 0.666648 -0.416655
v -0.166662 0.666648 -0.44443200000000005
v -0.083331 0.666648 -0.44443200000000005
v 0.027777000000000003 0.666648 -0.44443200000000005
v 0.24999300000000002 0.666648 -0.44443200000000005
v 0.44443200000000005 0.666648 -0.44443200000000005
v -0.166662 0.666648 -0.4722090000000001
v -0.083331 0.666648 -0.4722090000000001
v -0.49998600000000004 0.666648 -0.49998600000000004
v 0.49998600000000004 0.666648 -0.49998600000000004

# faces
f 3/2/1 2/2/1 1/2/1
f 4/2/1 2/2/1 3/2/1
f 5/2/1 2/2/1 4/2/1
f 6/2/1 2/2/1 5/2/1
f 7/2/1 2/2/1 6/2/1
f 8/2/1 2/2/1 7/2/1
f 9/2/1 3/2/1 1/2/1
f 10/1/1 4/1/1 3/1/1
f 10/2/1 3/2/1 9/2/1
f 11/2/1 5/2/1 4/2/1
f 11/1/1 4/1/1 10/1/1
f 12/1/1 6/1/1 5/1/1
f 12/2/1 5/2/1 11/2/1
f 13/2/1 7/2/1 6/2/1
f 13/1/1 6/1/1 12/1/1
f 14/1/1 8/1/1 7/1/1
f 14/2/1 7/2/1 13/2/1
f 15/2/1 2/2/1 8/2/1
f 15/1/1 8/1/1 14/1/1
f 16/2/1 2/2/1 15/2/1
f 21/2/1 18/2/1 17/2/1
f 22/2/1 20/2/1 19/2/1
f 23/2/1 21/2/1 17/2/1
f 23/2/1 22/2/1 21/2/1
f 24/2/1 20/2/1 22/2/1
f 24/2/1 22/2/1 23/2/1
f 27/2/1 26/2/1 25/2/1
f 28/2/1 26/2/1 27/2/1
f 33/2/1 30/2/1 29/2/1
f 34/2/1 30/2/1 33/2/1
f 35/2/1 32/2/1 31/2/1
f 36/2/1 32/2/1 35/2/1
f 37/2/2 38/2/2 41/2/2
f 41/2/2 38/2/2 42/2/2
f 39/2/2 40/2/2 43/2/2
f 43/2/2 40/2/2 44/2/2
f 45/2/2 46/2/2 47/2/2
f 47/2/2 46/2/2 48/2/2
f 49/2/2 50/2/2 53/2/2
f 51/2/2 52/2/2 54/2/2
f 49/2/2 53/2/2 55/2/2
f 53/2/2 54/2/2 55/2/2
f 54/2/2 52/2/2 56/2/2
f 55/2/2 54/2/2 56/2/2
f 57/2/2 58/2/2 59/2/2
f 59/2/2 58/2/2 60/2/2
f 60/2/2 58/2/2 61/2/2
f 61/2/2 58/2/2 62/2/2
f 57/2/2 59/2/2 63/2/2
f 59/1/2 60/1/2 64/1/2
f 63/2/2 59/2/2 64/2/2
f 60/2/2 61/2/2 65/2/2
f 64/1/2 60/1/2 65/1/2
f 61/1/2 62/1/2 66/1/2
f 65/2/2 61/2/2 66/2/2
f 62/2/2 58/2/2 67/2/2
f 66/1/2 62/1/2 67/1/2
f 67/2/2 58/2/2 68/2/2
f 71/2/3 70/2/3 69/2/3
f 72/2/3 70/2/3 71/2/3
f 75/2/3 74/2/3 73/2/3
f 76/2/3 74/2/3 75/2/3
f 78/2/3 74/2/3 76/2/3
f 79/2/3 78/2/3 77/2/3
f 80/2/3 74/2/3 78/2/3
f 80/2/3 78/2/3 79/2/3
f 83/2/3 82/2/3 81/2/3
f 84/2/3 82/2/3 83/2/3
f 87/2/3 86/2/3 85/2/3
f 88/2/3 86/2/3 87/2/3
f 91/2/3 90/2/3 89/2/3
f 92/2/3 90/2/3 91/2/3
f 93/2/4 94/2/4 95/2/4
f 95/2/4 94/2/4 96/2/4
f 97/2/4 98/2/4 99/2/4
f 99/2/4 98/2/4 100/2/4
f 101/2/4 102/2/4 103/2/4
f 103/2/4 102/2/4 104/2/4
f 105/2/4 106/2/4 107/2/4
f 107/2/4 106/2/4 108/2/4
f 108/2/4 106/2/4 110/2/4
f 109/2/4 110/2/4 111/2/4
f 110/2/4 106/2/4 112/2/4
f 111/2/4 110/2/4 112/2/4
f 113/2/4 114/2/4 115/2/4
f 115/2/4 114/2/4 116/2/4
f 121/2/5 118/2/5 117/2/5
f 122/2/5 118/2/5 121/2/5
f 123/2/5 120/2/5 119/2/5
f 124/2/5 120/2/5 123/2/5
f 129/2/5 126/2/5 125/2/5
f 130/2/5 126/2/5 129/2/5
f 131/2/5 128/2/5 127/2/5
f 132/2/5 128/2/5 131/2/5
f 136/2/5 134/2/5 133/2/5
f 137/2/5 134/2/5 136/2/5
f 138/2/5 134/2/5 137/2/5
f 139/2/5 134/2/5 138/2/5
f 141/2/5 136/2/5 135/2/5
f 141/2/5 137/2/5 136/2/5
f 142/2/5 137/2/5 141/2/5
f 143/2/5 137/2/5 142/2/5
f 144/2/5 140/2/5 139/2/5
f 144/2/5 139/2/5 138/2/5
f 145/2/5 140/2/5 144/2/5
f 146/2/5 140/2/5 145/2/5
f 147/2/5 143/2/5 142/2/5
f 147/2/5 145/2/5 144/2/5
f 147/2/5 144/2/5 143/2/5
f 148/2/5 145/2/5 147/2/5
f 151/2/5 150/2/5 149/2/5
f 152/2/5 150/2/5 151/2/5
f 155/2/5 154/2/5 153/2/5
f 156/2/5 154/2/5 155/2/5
f 157/2/5 155/2/5 153/2/5
f 158/2/5 154/2/5 156/2/5
f 159/2/5 157/2/5 153/2/5
f 159/2/5 158/2/5 157/2/5
f 160/2/5 154/2/5 158/2/5
f 160/2/5 158/2/5 159/2/5
f 161/2/6 162/2/6 163/2/6
f 163/2/6 162/2/6 164/2/6
f 161/2/6 163/2/6 165/2/6
f 163/1/6 164/1/6 165/1/6
f 164/2/6 162/2/6 166/2/6
f 165/1/6 164/1/6 166/1/6
f 161/2/6 165/2/6 167/2/6
f 165/2/6 166/2/6 167/2/6
f 167/2/6 166/2/6 168/2/6
f 168/2/6 166/2/6 169/2/6
f 166/2/6 162/2/6 170/2/6
f 169/2/6 166/2/6 170/2/6
f 167/1/6 168/1/6 171/1/6
f 168/2/6 169/2/6 172/2/6
f 171/1/6 168/1/6 172/1/6
f 169/1/6 170/1/6 173/1/6
f 172/2/6 169/2/6 173/2/6
f 170/2/6 162/2/6 174/2/6
f 173/1/6 170/1/6 174/1/6
f 174/2/6 162/2/6 175/2/6
f 175/2/6 162/2/6 176/2/6
f 172/2/6 173/2/6 177/2/6
f 171/2/6 172/2/6 177/2/6
f 175/1/6 176/1/6 177/1/6
f 174/2/6 175/2/6 177/2/6
f 173/2/6 174/2/6 177/2/6
f 177/1/6 176/1/6 178/1/6
f 171/2/6 177/2/6 179/2/6
f 177/2/6 178/2/6 179/2/6
f 179/2/6 178/2/6 180/2/6
f 171/2/6 179/2/6 181/2/6
f 179/1/6 180/1/6 181/1/6
f 180/2/6 178/2/6 182/2/6
f 181/1/6 180/1/6 182/1/6
f 181/2/6 182/2/6 183/2/6
f 182/2/6 178/2/6 184/2/6
f 183/2/6 182/2/6 184/2/6
f 181/2/6 183/2/6 185/2/6
f 183/1/6 184/1/6 185/1/6
f 184/2/6 178/2/6 186/2/6
f 185/1/6 184/1/6 186/1/6
f 171/2/6 181/2/6 187/2/6
f 181/2/6 185/2/6 187/2/6
f 185/2/6 186/2/6 187/2/6
f 187/2/6 186/2/6 188/2/6
f 187/1/6 188/1/6 189/1/6
f 188/2/6 186/2/6 190/2/6
f 189/1/6 188/1/6 190/1/6
f 190/2/6 186/2/6 191/2/6
f 191/2/6 186/2/6 192/2/6
f 192/2/6 186/2/6 193/2/6
f 189/2/6 190/2/6 194/2/6
f 190/1/6 191/1/6 194/1/6
f 191/2/6 192/2/6 195/2/6
f 194/1/6 191/1/6 195/1/6
f 192/1/6 193/1/6 196/1/6
f 195/2/6 192/2/6 196/2/6
f 193/2/6 186/2/6 197/2/6
f 196/1/6 193/1/6 197/1/6
f 195/2/6 196/2/6 198/2/6
f 194/2/6 195/2/6 198/2/6
f 196/2/6 197/2/6 198/2/6
f 198/2/6 197/2/6 199/2/6
f 199/2/6 197/2/6 200/2/6
f 200/2/6 197/2/6 201/2/6
f 201/2/6 197/2/6 202/2/6
f 197/2/6 186/2/6 203/2/6
f 202/2/6 197/2/6 203/2/6
f 194/2/6 198/2/6 204/2/6
f 198/1/6 199/1/6 204/1/6
f 199/2/6 200/2/6 205/2/6
f 204/1/6 199/1/6 205/1/6
f 200/1/6 201/1/6 206/1/6
f 205/2/6 200/2/6 206/2/6
f 201/2/6 202/2/6 207/2/6
f 206/1/6 201/1/6 207/1/6
f 202/1/6 203/1/6 208/1/6
f 207/2/6 202/2/6 208/2/6
f 203/2/6 186/2/6 209/2/6
f 208/1/6 203/1/6 209/1/6
f 205/2/6 206/2/6 210/2/6
f 207/2/6 208/2/6 210/2/6
f 208/2/6 209/2/6 210/2/6
f 204/2/6 205/2/6 210/2/6
f 194/2/6 204/2/6 210/2/6
f 206/2/6 207/2/6 210/2/6
f 186/2/6 178/2/6 211/2/6
f 210/2/6 209/2/6 211/2/6
f 209/2/6 186/2/6 211/2/6
f 194/2/6 210/2/6 212/2/6
f 210/1/6 211/1/6 212/1/6
f 212/1/6 211/1/6 213/1/6
f 212/2/6 213/2/6 214/2/6
f 214/2/6 213/2/6 215/2/6
f 212/2/6 214/2/6 216/2/6
f 216/2/6 214/2/6 217/2/6
f 214/1/6 215/1/6 218/1/6
f 217/2/6 214/2/6 218/2/6
f 215/2/6 213/2/6 219/2/6
f 218/1/6 215/1/6 219/1/6
f 212/2/6 216/2/6 220/2/6
f 216/1/6 217/1/6 221/1/6
f 220/2/6 216/2/6 221/2/6
f 217/2/6 218/2/6 222/2/6
f 221/1/6 217/1/6 222/1/6
f 218/2/6 219/2/6 222/2/6
f 222/2/6 219/2/6 223/2/6
f 219/2/6 213/2/6 224/2/6
f 223/2/6 219/2/6 224/2/6
f 220/1/6 221/1/6 225/1/6
f 212/2/6 220/2/6 225/2/6
f 222/2/6 223/2/6 226/2/6
f 225/1/6 221/1/6 226/1/6
f 221/2/6 222/2/6 226/2/6
f 224/2/6 213/2/6 227/2/6
f 227/2/6 213/2/6 228/2/6
f 226/2/6 223/2/6 229/2/6
f 223/1/6 224/1/6 229/1/6
f 225/2/6 226/2/6 229/2/6
f 224/2/6 227/2/6 230/2/6
f 229/1/6 224/1/6 230/1/6
f 227/1/6 228/1/6 231/1/6
f 230/2/6 227/2/6 231/2/6
f 228/2/6 213/2/6 232/2/6
f 231/1/6 228/1/6 232/1/6
f 189/2/6 194/2/6 233/2/6
f 194/2/6 212/2/6 233/2/6
f 231/2/6 232/2/6 233/2/6
f 225/2/6 229/2/6 233/2/6
f 212/2/6 225/2/6 233/2/6
f 229/2/6 230/2/6 233/2/6
f 230/2/6 231/2/6 233/2/6
f 233/2/6 232/2/6 234/2/6
f 233/1/6 234/1/6 235/1/6
f 234/2/6 232/2/6 236/2/6
f 235/1/6 234/1/6 236/1/6
f 235/2/6 236/2/6 237/2/6
f 236/2/6 232/2/6 237/2/6
f 232/2/6 213/2/6 238/2/6
f 237/2/6 232/2/6 238/2/6
f 235/2/6 237/2/6 239/2/6
f 237/1/6 238/1/6 239/1/6
f 238/2/6 213/2/6 240/2/6
f 239/1/6 238/1/6 240/1/6
f 239/2/6 240/2/6 241/2/6
f 241/2/6 240/2/6 242/2/6
f 242/2/6 240/2/6 243/2/6
f 240/2/6 213/2/6 244/2/6
f 243/2/6 240/2/6 244/2/6
f 239/2/6 241/2/6 245/2/6
f 241/1/6 242/1/6 246/1/6
f 245/2/6 241/2/6 246/2/6
f 242/2/6 243/2/6 247/2/6
f 246/1/6 242/1/6 247/1/6
f 243/1/6 244/1/6 248/1/6
f 247/2/6 243/2/6 248/2/6
f 244/2/6 213/2/6 249/2/6
f 248/1/6 244/1/6 249/1/6
f 245/1/6 246/1/6 250/1/6
f 239/2/6 245/2/6 250/2/6
f 247/2/6 248/2/6 251/2/6
f 250/1/6 246/1/6 251/1/6
f 248/2/6 249/2/6 251/2/6
f 246/2/6 247/2/6 251/2/6
f 235/2/6 239/2/6 252/2/6
f 239/2/6 250/2/6 252/2/6
f 250/2/6 251/2/6 252/2/6
f 251/2/6 249/2/6 253/2/6
f 252/2/6 251/2/6 253/2/6
f 249/2/6 213/2/6 253/2/6