# MagicaVoxel @ Ephtracy

# group
o 

# material

# normals
vn -1 0 0
vn 1 0 0
vn 0 0 1
vn 0 0 -1
vn 0 -1 0
vn 0 1 0

# texcoords
vt 0.923828 0.5
vt 0.994141 0.5

# verts
v 0 0.7 -0.3
v 0 0.7 -0.6
v 0 0.8 -0.3
v 0 0.8 -0.6
v 0.2 0 -0.2
v 0.2 0 -0.7
v 0.2 0.1 -0.1
v 0.2 0.1 -0.2
v 0.2 0.1 -0.7
v 0.2 0.1 -0.8
v 0.2 0.7 -0.3
v 0.2 0.7 -0.4
v 0.2 0.7 -0.5
v 0.2 0.7 -0.6
v 0.2 0.8 -0.3
v 0.2 0.8 -0.4
v 0.2 0.8 -0.5
v 0.2 0.8 -0.6
v 0.2 0.9 -0.1
v 0.2 0.9 -0.8
v 0.3 0 -0.1
v 0.3 0 -0.2
v 0.3 0 -0.7
v 0.3 0 -0.8
v 0.3 0.1 0
v 0.3 0.1 -0.1
v 0.3 0.1 -0.2
v 0.3 0.1 -0.7
v 0.3 0.1 -0.8
v 0.3 0.1 -0.9
v 0.3 0.9 0
v 0.3 0.9 -0.1
v 0.3 0.9 -0.8
v 0.3 0.9 -0.9
v 0.4 0 0
v 0.4 0 -0.1
v 0.4 0 -0.8
v 0.4 0 -0.9
v 0.4 0.1 0
v 0.4 0.1 -0.1
v 0.4 0.1 -0.8
v 0.4 0.1 -0.9
v 0.9 0.1 -0.2
v 0.9 0.1 -0.7
v 0.9 0.3 -0.1
v 0.9 0.3 -0.2
v 0.9 0.3 -0.7
v 0.9 0.3 -0.8
v 0.9 0.9 -0.1
v 0.9 0.9 -0.2
v 0.9 0.9 -0.7
v 0.9 0.9 -0.8
v 1 0.3 -0.2
v 1 0.3 -0.7
v 1 0.9 -0.2
v 1 0.9 -0.7
v 1.2 0.7 -0.4
v 1.2 0.7 -0.5
v 1.2 0.8 -0.4
v 1.2 0.8 -0.5
v 0.1 0.7 -0.4
v 0.1 0.7 -0.5
v 0.1 0.8 -0.4
v 0.1 0.8 -0.5
v 0.3 0.3 -0.2
v 0.3 0.3 -0.7
v 0.3 0.9 -0.2
v 0.3 0.9 -0.7
v 0.4 0.1 -0.2
v 0.4 0.1 -0.7
v 0.4 0.3 -0.1
v 0.4 0.3 -0.2
v 0.4 0.3 -0.7
v 0.4 0.3 -0.8
v 0.4 0.9 -0.1
v 0.4 0.9 -0.2
v 0.4 0.9 -0.7
v 0.4 0.9 -0.8
v 0.9 0 0
v 0.9 0 -0.1
v 0.9 0 -0.8
v 0.9 0 -0.9
v 0.9 0.1 0
v 0.9 0.1 -0.1
v 0.9 0.1 -0.8
v 0.9 0.1 -0.9
v 1 0 -0.1
v 1 0 -0.2
v 1 0 -0.7
v 1 0 -0.8
v 1 0.1 0
v 1 0.1 -0.1
v 1 0.1 -0.2
v 1 0.1 -0.7
v 1 0.1 -0.8
v 1 0.1 -0.9
v 1 0.9 0
v 1 0.9 -0.1
v 1 0.9 -0.8
v 1 0.9 -0.9
v 1.1 0 -0.2
v 1.1 0 -0.7
v 1.1 0.1 -0.1
v 1.1 0.1 -0.2
v 1.1 0.1 -0.7
v 1.1 0.1 -0.8
v 1.1 0.7 -0.3
v 1.1 0.7 -0.4
v 1.1 0.7 -0.5
v 1.1 0.7 -0.6
v 1.1 0.8 -0.3
v 1.1 0.8 -0.4
v 1.1 0.8 -0.5
v 1.1 0.8 -0.6
v 1.1 0.9 -0.1
v 1.1 0.9 -0.8
v 1.3 0.7 -0.3
v 1.3 0.7 -0.6
v 1.3 0.8 -0.3
v 1.3 0.8 -0.6
v 0.3 0.1 0
v 0.3 0.9 0
v 0.4 0 0
v 0.4 0.1 0
v 0.9 0 0
v 0.9 0.1 0
v 1 0.1 0
v 1 0.9 0
v 0.2 0.1 -0.1
v 0.2 0.9 -0.1
v 0.3 0 -0.1
v 0.3 0.1 -0.1
v 0.3 0.9 -0.1
v 0.4 0 -0.1
v 0.4 0.1 -0.1
v 0.9 0 -0.1
v 0.9 0.1 -0.1
v 1 0 -0.1
v 1 0.1 -0.1
v 1 0.9 -0.1
v 1.1 0.1 -0.1
v 1.1 0.9 -0.1
v 0.2 0 -0.2
v 0.2 0.1 -0.2
v 0.3 0 -0.2
v 0.3 0.1 -0.2
v 1 0 -0.2
v 1 0.1 -0.2
v 1.1 0 -0.2
v 1.1 0.1 -0.2
v 0 0.7 -0.3
v 0 0.8 -0.3
v 0.2 0.7 -0.3
v 0.2 0.8 -0.3
v 1.1 0.7 -0.3
v 1.1 0.8 -0.3
v 1.3 0.7 -0.3
v 1.3 0.8 -0.3
v 0.1 0.7 -0.5
v 0.1 0.8 -0.5
v 0.2 0.7 -0.5
v 0.2 0.8 -0.5
v 1.1 0.7 -0.5
v 1.1 0.8 -0.5
v 1.2 0.7 -0.5
v 1.2 0.8 -0.5
v 0.3 0.3 -0.7
v 0.3 0.9 -0.7
v 0.4 0.1 -0.7
v 0.4 0.3 -0.7
v 0.4 0.9 -0.7
v 0.9 0.1 -0.7
v 0.9 0.3 -0.7
v 0.9 0.9 -0.7
v 1 0.3 -0.7
v 1 0.9 -0.7
v 0.4 0.3 -0.8
v 0.4 0.9 -0.8
v 0.9 0.3 -0.8
v 0.9 0.9 -0.8
v 0.4 0.3 -0.1
v 0.4 0.9 -0.1
v 0.9 0.3 -0.1
v 0.9 0.9 -0.1
v 0.3 0.3 -0.2
v 0.3 0.9 -0.2
v 0.4 0.1 -0.2
v 0.4 0.3 -0.2
v 0.4 0.9 -0.2
v 0.9 0.1 -0.2
v 0.9 0.3 -0.2
v 0.9 0.9 -0.2
v 1 0.3 -0.2
v 1 0.9 -0.2
v 0.1 0.7 -0.4
v 0.1 0.8 -0.4
v 0.2 0.7 -0.4
v 0.2 0.8 -0.4
v 1.1 0.7 -0.4
v 1.1 0.8 -0.4
v 1.2 0.7 -0.4
v 1.2 0.8 -0.4
v 0 0.7 -0.6
v 0 0.8 -0.6
v 0.2 0.7 -0.6
v 0.2 0.8 -0.6
v 1.1 0.7 -0.6
v 1.1 0.8 -0.6
v 1.3 0.7 -0.6
v 1.3 0.8 -0.6
v 0.2 0 -0.7
v 0.2 0.1 -0.7
v 0.3 0 -0.7
v 0.3 0.1 -0.7
v 1 0 -0.7
v 1 0.1 -0.7
v 1.1 0 -0.7
v 1.1 0.1 -0.7
v 0.2 0.1 -0.8
v 0.2 0.9 -0.8
v 0.3 0 -0.8
v 0.3 0.1 -0.8
v 0.3 0.9 -0.8
v 0.4 0 -0.8
v 0.4 0.1 -0.8
v 0.9 0 -0.8
v 0.9 0.1 -0.8
v 1 0 -0.8
v 1 0.1 -0.8
v 1 0.9 -0.8
v 1.1 0.1 -0.8
v 1.1 0.9 -0.8
v 0.3 0.1 -0.9
v 0.3 0.9 -0.9
v 0.4 0 -0.9
v 0.4 0.1 -0.9
v 0.9 0 -0.9
v 0.9 0.1 -0.9
v 1 0.1 -0.9
v 1 0.9 -0.9
v 0.4 0 0
v 0.9 0 0
v 0.3 0 -0.1
v 0.4 0 -0.1
v 0.9 0 -0.1
v 1 0 -0.1
v 0.2 0 -0.2
v 0.3 0 -0.2
v 1 0 -0.2
v 1.1 0 -0.2
v 0.2 0 -0.7
v 0.3 0 -0.7
v 1 0 -0.7
v 1.1 0 -0.7
v 0.3 0 -0.8
v 0.4 0 -0.8
v 0.9 0 -0.8
v 1 0 -0.8
v 0.4 0 -0.9
v 0.9 0 -0.9
v 0.3 0.1 0
v 0.4 0.1 0
v 0.9 0.1 0
v 1 0.1 0
v 0.2 0.1 -0.1
v 0.3 0.1 -0.1
v 0.4 0.1 -0.1
v 0.9 0.1 -0.1
v 1 0.1 -0.1
v 1.1 0.1 -0.1
v 0.2 0.1 -0.2
v 0.3 0.1 -0.2
v 1 0.1 -0.2
v 1.1 0.1 -0.2
v 0.2 0.1 -0.7
v 0.3 0.1 -0.7
v 1 0.1 -0.7
v 1.1 0.1 -0.7
v 0.2 0.1 -0.8
v 0.3 0.1 -0.8
v 0.4 0.1 -0.8
v 0.9 0.1 -0.8
v 1 0.1 -0.8
v 1.1 0.1 -0.8
v 0.3 0.1 -0.9
v 0.4 0.1 -0.9
v 0.9 0.1 -0.9
v 1 0.1 -0.9
v 0 0.7 -0.3
v 0.2 0.7 -0.3
v 1.1 0.7 -0.3
v 1.3 0.7 -0.3
v 0.1 0.7 -0.4
v 0.2 0.7 -0.4
v 1.1 0.7 -0.4
v 1.2 0.7 -0.4
v 0.1 0.7 -0.5
v 0.2 0.7 -0.5
v 1.1 0.7 -0.5
v 1.2 0.7 -0.5
v 0 0.7 -0.6
v 0.2 0.7 -0.6
v 1.1 0.7 -0.6
v 1.3 0.7 -0.6
v 0.4 0.1 -0.2
v 0.9 0.1 -0.2
v 0.4 0.1 -0.7
v 0.9 0.1 -0.7
v 0.4 0.3 -0.1
v 0.9 0.3 -0.1
v 0.3 0.3 -0.2
v 0.4 0.3 -0.2
v 0.9 0.3 -0.2
v 1 0.3 -0.2
v 0.3 0.3 -0.7
v 0.4 0.3 -0.7
v 0.9 0.3 -0.7
v 1 0.3 -0.7
v 0.4 0.3 -0.8
v 0.9 0.3 -0.8
v 0 0.8 -0.3
v 0.2 0.8 -0.3
v 1.1 0.8 -0.3
v 1.3 0.8 -0.3
v 0.1 0.8 -0.4
v 0.2 0.8 -0.4
v 1.1 0.8 -0.4
v 1.2 0.8 -0.4
v 0.1 0.8 -0.5
v 0.2 0.8 -0.5
v 1.1 0.8 -0.5
v 1.2 0.8 -0.5
v 0 0.8 -0.6
v 0.2 0.8 -0.6
v 1.1 0.8 -0.6
v 1.3 0.8 -0.6
v 0.3 0.9 0
v 1 0.9 0
v 0.2 0.9 -0.1
v 0.3 0.9 -0.1
v 0.4 0.9 -0.1
v 0.9 0.9 -0.1
v 1 0.9 -0.1
v 1.1 0.9 -0.1
v 0.3 0.9 -0.2
v 0.4 0.9 -0.2
v 0.9 0.9 -0.2
v 1 0.9 -0.2
v 0.3 0.9 -0.7
v 0.4 0.9 -0.7
v 0.9 0.9 -0.7
v 1 0.9 -0.7
v 0.2 0.9 -0.8
v 0.3 0.9 -0.8
v 0.4 0.9 -0.8
v 0.9 0.9 -0.8
v 1 0.9 -0.8
v 1.1 0.9 -0.8
v 0.3 0.9 -0.9
v 1 0.9 -0.9

# faces
f 3/2/1 2/2/1 1/2/1
f 4/2/1 2/2/1 3/2/1
f 8/1/1 6/1/1 5/1/1
f 9/1/1 6/1/1 8/1/1
f 11/1/1 8/1/1 7/1/1
f 11/1/1 10/1/1 9/1/1
f 11/1/1 9/1/1 8/1/1
f 12/1/1 10/1/1 11/1/1
f 13/1/1 10/1/1 12/1/1
f 14/1/1 10/1/1 13/1/1
f 15/1/1 11/1/1 7/1/1
f 16/1/1 13/1/1 12/1/1
f 17/1/1 13/1/1 16/1/1
f 18/1/1 10/1/1 14/1/1
f 19/1/1 17/1/1 16/1/1
f 19/1/1 18/1/1 17/1/1
f 19/1/1 15/1/1 7/1/1
f 19/1/1 16/1/1 15/1/1
f 20/1/1 10/1/1 18/1/1
f 20/1/1 18/1/1 19/1/1
f 26/1/1 22/1/1 21/1/1
f 27/1/1 22/1/1 26/1/1
f 28/1/1 24/1/1 23/1/1
f 29/1/1 24/1/1 28/1/1
f 31/1/1 26/1/1 25/1/1
f 32/1/1 26/1/1 31/1/1
f 33/1/1 30/1/1 29/1/1
f 34/1/1 30/1/1 33/1/1
f 39/1/1 36/1/1 35/1/1
f 40/1/1 36/1/1 39/1/1
f 41/1/1 38/1/1 37/1/1
f 42/1/1 38/1/1 41/1/1
f 46/1/1 44/1/1 43/1/1
f 47/1/1 44/1/1 46/1/1
f 49/1/1 46/1/1 45/1/1
f 50/1/1 46/1/1 49/1/1
f 51/1/1 48/1/1 47/1/1
f 52/1/1 48/1/1 51/1/1
f 55/1/1 54/1/1 53/1/1
f 56/1/1 54/1/1 55/1/1
f 59/2/1 58/2/1 57/2/1
f 60/2/1 58/2/1 59/2/1
f 61/2/2 62/2/2 63/2/2
f 63/2/2 62/2/2 64/2/2
f 65/1/2 66/1/2 67/1/2
f 67/1/2 66/1/2 68/1/2
f 69/1/2 70/1/2 72/1/2
f 72/1/2 70/1/2 73/1/2
f 71/1/2 72/1/2 75/1/2
f 75/1/2 72/1/2 76/1/2
f 73/1/2 74/1/2 77/1/2
f 77/1/2 74/1/2 78/1/2
f 79/1/2 80/1/2 83/1/2
f 83/1/2 80/1/2 84/1/2
f 81/1/2 82/1/2 85/1/2
f 85/1/2 82/1/2 86/1/2
f 87/1/2 88/1/2 92/1/2
f 92/1/2 88/1/2 93/1/2
f 89/1/2 90/1/2 94/1/2
f 94/1/2 90/1/2 95/1/2
f 91/1/2 92/1/2 97/1/2
f 97/1/2 92/1/2 98/1/2
f 95/1/2 96/1/2 99/1/2
f 99/1/2 96/1/2 100/1/2
f 101/1/2 102/1/2 104/1/2
f 104/1/2 102/1/2 105/1/2
f 103/1/2 104/1/2 107/1/2
f 105/1/2 106/1/2 107/1/2
f 104/1/2 105/1/2 107/1/2
f 107/1/2 106/1/2 108/1/2
f 108/1/2 106/1/2 109/1/2
f 109/1/2 106/1/2 110/1/2
f 103/1/2 107/1/2 111/1/2
f 108/1/2 109/1/2 112/1/2
f 112/1/2 109/1/2 113/1/2
f 110/1/2 106/1/2 114/1/2
f 112/1/2 113/1/2 115/1/2
f 113/1/2 114/1/2 115/1/2
f 103/1/2 111/1/2 115/1/2
f 111/1/2 112/1/2 115/1/2
f 114/1/2 106/1/2 116/1/2
f 115/1/2 114/1/2 116/1/2
f 117/2/2 118/2/2 119/2/2
f 119/2/2 118/2/2 120/2/2
f 124/1/3 122/1/3 121/1/3
f 125/1/3 124/1/3 123/1/3
f 126/1/3 122/1/3 124/1/3
f 126/1/3 124/1/3 125/1/3
f 127/1/3 122/1/3 126/1/3
f 128/1/3 122/1/3 127/1/3
f 132/1/3 130/1/3 129/1/3
f 133/1/3 130/1/3 132/1/3
f 134/1/3 132/1/3 131/1/3
f 135/1/3 132/1/3 134/1/3
f 138/1/3 137/1/3 136/1/3
f 139/1/3 137/1/3 138/1/3
f 141/1/3 140/1/3 139/1/3
f 142/1/3 140/1/3 141/1/3
f 145/1/3 144/1/3 143/1/3
f 146/1/3 144/1/3 145/1/3
f 149/1/3 148/1/3 147/1/3
f 150/1/3 148/1/3 149/1/3
f 153/2/3 152/2/3 151/2/3
f 154/2/3 152/2/3 153/2/3
f 157/2/3 156/2/3 155/2/3
f 158/2/3 156/2/3 157/2/3
f 161/2/3 160/2/3 159/2/3
f 162/2/3 160/2/3 161/2/3
f 165/2/3 164/2/3 163/2/3
f 166/2/3 164/2/3 165/2/3
f 170/1/3 168/1/3 167/1/3
f 171/1/3 168/1/3 170/1/3
f 172/1/3 170/1/3 169/1/3
f 173/1/3 170/1/3 172/1/3
f 175/1/3 174/1/3 173/1/3
f 176/1/3 174/1/3 175/1/3
f 179/1/3 178/1/3 177/1/3
f 180/1/3 178/1/3 179/1/3
f 181/1/4 182/1/4 183/1/4
f 183/1/4 182/1/4 184/1/4
f 185/1/4 186/1/4 188/1/4
f 188/1/4 186/1/4 189/1/4
f 187/1/4 188/1/4 190/1/4
f 190/1/4 188/1/4 191/1/4
f 191/1/4 192/1/4 193/1/4
f 193/1/4 192/1/4 194/1/4
f 195/2/4 196/2/4 197/2/4
f 197/2/4 196/2/4 198/2/4
f 199/2/4 200/2/4 201/2/4
f 201/2/4 200/2/4 202/2/4
f 203/2/4 204/2/4 205/2/4
f 205/2/4 204/2/4 206/2/4
f 207/2/4 208/2/4 209/2/4
f 209/2/4 208/2/4 210/2/4
f 211/1/4 212/1/4 213/1/4
f 213/1/4 212/1/4 214/1/4
f 215/1/4 216/1/4 217/1/4
f 217/1/4 216/1/4 218/1/4
f 219/1/4 220/1/4 222/1/4
f 222/1/4 220/1/4 223/1/4
f 221/1/4 222/1/4 224/1/4
f 224/1/4 222/1/4 225/1/4
f 226/1/4 227/1/4 228/1/4
f 228/1/4 227/1/4 229/1/4
f 229/1/4 230/1/4 231/1/4
f 231/1/4 230/1/4 232/1/4
f 233/1/4 234/1/4 236/1/4
f 235/1/4 236/1/4 237/1/4
f 236/1/4 234/1/4 238/1/4
f 237/1/4 236/1/4 238/1/4
f 238/1/4 234/1/4 239/1/4
f 239/1/4 234/1/4 240/1/4
f 244/1/5 242/1/5 241/1/5
f 245/1/5 242/1/5 244/1/5
f 248/1/5 244/1/5 243/1/5
f 248/1/5 246/1/5 245/1/5
f 248/1/5 245/1/5 244/1/5
f 249/1/5 246/1/5 248/1/5
f 251/1/5 248/1/5 247/1/5
f 251/1/5 250/1/5 249/1/5
f 251/1/5 249/1/5 248/1/5
f 252/1/5 250/1/5 251/1/5
f 253/1/5 250/1/5 252/1/5
f 254/1/5 250/1/5 253/1/5
f 255/1/5 253/1/5 252/1/5
f 256/1/5 253/1/5 255/1/5
f 257/1/5 253/1/5 256/1/5
f 258/1/5 253/1/5 257/1/5
f 259/1/5 257/1/5 256/1/5
f 260/1/5 257/1/5 259/1/5
f 266/1/5 262/1/5 261/1/5
f 267/1/5 262/1/5 266/1/5
f 268/1/5 264/1/5 263/1/5
f 269/1/5 264/1/5 268/1/5
f 271/1/5 266/1/5 265/1/5
f 272/1/5 266/1/5 271/1/5
f 273/1/5 270/1/5 269/1/5
f 274/1/5 270/1/5 273/1/5
f 279/1/5 276/1/5 275/1/5
f 280/1/5 276/1/5 279/1/5
f 283/1/5 278/1/5 277/1/5
f 284/1/5 278/1/5 283/1/5
f 285/1/5 281/1/5 280/1/5
f 286/1/5 281/1/5 285/1/5
f 287/1/5 283/1/5 282/1/5
f 288/1/5 283/1/5 287/1/5
f 293/2/5 290/2/5 289/2/5
f 294/2/5 290/2/5 293/2/5
f 295/2/5 292/2/5 291/2/5
f 296/2/5 292/2/5 295/2/5
f 297/2/5 293/2/5 289/2/5
f 300/2/5 292/2/5 296/2/5
f 301/2/5 298/2/5 297/2/5
f 301/2/5 297/2/5 289/2/5
f 302/2/5 298/2/5 301/2/5
f 303/2/5 300/2/5 299/2/5
f 304/2/5 292/2/5 300/2/5
f 304/2/5 300/2/5 303/2/5
f 305/1/6 306/1/6 307/1/6
f 307/1/6 306/1/6 308/1/6
f 309/1/6 310/1/6 312/1/6
f 312/1/6 310/1/6 313/1/6
f 311/1/6 312/1/6 315/1/6
f 315/1/6 312/1/6 316/1/6
f 313/1/6 314/1/6 317/1/6
f 317/1/6 314/1/6 318/1/6
f 316/1/6 317/1/6 319/1/6
f 319/1/6 317/1/6 320/1/6
f 321/2/6 322/2/6 325/2/6
f 325/2/6 322/2/6 326/2/6
f 323/2/6 324/2/6 327/2/6
f 327/2/6 324/2/6 328/2/6
f 321/2/6 325/2/6 329/2/6
f 328/2/6 324/2/6 332/2/6
f 329/2/6 330/2/6 333/2/6
f 321/2/6 329/2/6 333/2/6
f 333/2/6 330/2/6 334/2/6
f 331/2/6 332/2/6 335/2/6
f 332/2/6 324/2/6 336/2/6
f 335/2/6 332/2/6 336/2/6
f 337/1/6 338/1/6 340/1/6
f 340/1/6 338/1/6 341/1/6
f 341/1/6 338/1/6 342/1/6
f 342/1/6 338/1/6 343/1/6
f 339/1/6 340/1/6 345/1/6
f 340/1/6 341/1/6 345/1/6
f 345/1/6 341/1/6 346/1/6
f 343/1/6 344/1/6 347/1/6
f 342/1/6 343/1/6 347/1/6
f 347/1/6 344/1/6 348/1/6
f 339/1/6 345/1/6 349/1/6
f 348/1/6 344/1/6 352/1/6
f 349/1/6 350/1/6 353/1/6
f 339/1/6 349/1/6 353/1/6
f 353/1/6 350/1/6 354/1/6
f 354/1/6 350/1/6 355/1/6
f 351/1/6 352/1/6 356/1/6
f 352/1/6 344/1/6 357/1/6
f 356/1/6 352/1/6 357/1/6
f 357/1/6 344/1/6 358/1/6
f 354/1/6 355/1/6 359/1/6
f 355/1/6 356/1/6 359/1/6
f 356/1/6 357/1/6 359/1/6
f 359/1/6 357/1/6 360/1/6