# MagicaVoxel @ Ephtracy

# normals
vn -1 0 0
vn 1 0 0
vn 0 0 1
vn 0 0 -1
vn 0 -1 0
vn 0 1 0

# texcoords
vt 0.310547 0.5
vt 0.318359 0.5
vt 0.958984 0.5

# verts
v -14 22 14
v -14 22 -14
v -14 23 13
v -14 23 12
v -14 23 -10
v -14 23 -11
v -14 24 14
v -14 24 13
v -14 24 12
v -14 24 -10
v -14 24 -11
v -14 24 -14
v -12 0 12
v -12 0 10
v -12 0 -10
v -12 0 -12
v -12 15 10
v -12 15 -10
v -12 22 12
v -12 22 -12
v -11 24 8
v -11 24 2
v -11 24 -0
v -11 24 -3
v -11 24 -4
v -11 24 -8
v -11 25 8
v -11 25 -8
v -8 24 6
v -8 24 4
v -8 24 3
v -8 24 -3
v -8 24 -4
v -8 24 -6
v -8 25 6
v -8 25 -6
v 10 0 12
v 10 0 10
v 10 0 -10
v 10 0 -12
v 10 15 12
v 10 15 10
v 10 15 -10
v 10 15 -12
v 10 21 10
v 10 21 -10
v -10 0 12
v -10 0 10
v -10 0 -10
v -10 0 -12
v -10 15 12
v -10 15 10
v -10 15 -10
v -10 15 -12
v -10 21 10
v -10 21 -10
v -10 24 6
v -10 24 4
v -10 24 3
v -10 24 -3
v -10 24 -4
v -10 24 -6
v -10 25 6
v -10 25 -6
v 11 24 8
v 11 24 7
v 11 24 6
v 11 24 -3
v 11 24 -4
v 11 24 -8
v 11 25 8
v 11 25 -8
v 12 0 12
v 12 0 10
v 12 0 -10
v 12 0 -12
v 12 15 10
v 12 15 -10
v 12 22 12
v 12 22 -12
v 14 22 14
v 14 22 -14
v 14 23 -3
v 14 23 -4
v 14 24 14
v 14 24 -3
v 14 24 -4
v 14 24 -14
v -14 22 14
v -14 24 14
v 14 22 14
v 14 24 14
v -12 0 12
v -12 22 12
v -10 0 12
v -10 15 12
v 10 0 12
v 10 15 12
v 12 0 12
v 12 22 12
v -11 24 8
v -11 25 8
v 11 24 8
v 11 25 8
v -10 24 -6
v -10 25 -6
v -8 24 -6
v -8 25 -6
v -12 0 -10
v -12 15 -10
v -10 0 -10
v -10 15 -10
v -10 21 -10
v 10 0 -10
v 10 15 -10
v 10 21 -10
v 12 0 -10
v 12 15 -10
v -12 0 10
v -12 15 10
v -10 0 10
v -10 15 10
v -10 21 10
v 10 0 10
v 10 15 10
v 10 21 10
v 12 0 10
v 12 15 10
v -10 24 6
v -10 25 6
v -8 24 6
v -8 25 6
v -11 24 -8
v -11 25 -8
v -6 24 -8
v 0 24 -8
v 3 24 -8
v 9 24 -8
v 11 24 -8
v 11 25 -8
v -12 0 -12
v -12 22 -12
v -10 0 -12
v -10 15 -12
v 10 0 -12
v 10 15 -12
v 12 0 -12
v 12 22 -12
v -14 22 -14
v -14 24 -14
v 14 22 -14
v 14 24 -14
v -12 0 12
v -10 0 12
v 10 0 12
v 12 0 12
v -12 0 10
v -10 0 10
v 10 0 10
v 12 0 10
v -12 0 -10
v -10 0 -10
v 10 0 -10
v 12 0 -10
v -12 0 -12
v -10 0 -12
v 10 0 -12
v 12 0 -12
v -10 15 12
v 10 15 12
v -12 15 10
v -10 15 10
v 10 15 10
v 12 15 10
v -12 15 -10
v -10 15 -10
v 10 15 -10
v 12 15 -10
v -10 15 -12
v 10 15 -12
v -10 21 10
v 10 21 10
v -10 21 -10
v 10 21 -10
v -14 22 14
v 14 22 14
v -12 22 12
v 12 22 12
v -12 22 -12
v 12 22 -12
v -14 22 -14
v 14 22 -14
v -14 24 14
v 14 24 14
v -14 24 13
v -11 24 13
v -3 24 13
v 11 24 13
v -14 24 12
v -11 24 12
v -3 24 12
v 11 24 12
v -13 24 10
v 3 24 10
v -13 24 9
v 3 24 9
v -11 24 8
v 11 24 8
v 11 24 7
v 13 24 7
v -10 24 6
v -8 24 6
v 11 24 6
v 13 24 6
v -10 24 4
v -8 24 4
v -10 24 3
v -8 24 3
v -12 24 2
v -11 24 2
v -12 24 -0
v -11 24 -0
v -12 24 -3
v -11 24 -3
v -10 24 -3
v -8 24 -3
v 11 24 -3
v 14 24 -3
v -12 24 -4
v -11 24 -4
v -10 24 -4
v -8 24 -4
v 11 24 -4
v 14 24 -4
v -10 24 -6
v -8 24 -6
v -11 24 -8
v -6 24 -8
v 0 24 -8
v 3 24 -8
v 9 24 -8
v 11 24 -8
v -6 24 -9
v 0 24 -9
v 3 24 -9
v 9 24 -9
v -14 24 -10
v -10 24 -10
v -14 24 -11
v -10 24 -11
v -10 24 -12
v 11 24 -12
v -10 24 -13
v 11 24 -13
v -14 24 -14
v 14 24 -14
v -11 25 8
v 11 25 8
v -10 25 6
v -8 25 6
v -10 25 -6
v -8 25 -6
v -11 25 -8
v 11 25 -8

# faces
f 3/2/1 2/2/1 1/2/1
f 4/2/1 2/2/1 3/2/1
f 5/2/1 2/2/1 4/2/1
f 6/2/1 2/2/1 5/2/1
f 7/2/1 3/2/1 1/2/1
f 8/1/1 4/1/1 3/1/1
f 8/2/1 3/2/1 7/2/1
f 9/2/1 5/2/1 4/2/1
f 9/1/1 4/1/1 8/1/1
f 10/1/1 6/1/1 5/1/1
f 10/2/1 5/2/1 9/2/1
f 11/2/1 2/2/1 6/2/1
f 11/1/1 6/1/1 10/1/1
f 12/2/1 2/2/1 11/2/1
f 17/2/1 14/2/1 13/2/1
f 18/2/1 16/2/1 15/2/1
f 19/2/1 17/2/1 13/2/1
f 19/2/1 18/2/1 17/2/1
f 20/2/1 16/2/1 18/2/1
f 20/2/1 18/2/1 19/2/1
f 27/3/1 22/3/1 21/3/1
f 27/3/1 26/3/1 25/3/1
f 27/3/1 25/3/1 24/3/1
f 27/3/1 24/3/1 23/3/1
f 27/3/1 23/3/1 22/3/1
f 28/3/1 26/3/1 27/3/1
f 35/3/1 30/3/1 29/3/1
f 35/3/1 34/3/1 33/3/1
f 35/3/1 33/3/1 32/3/1
f 35/3/1 32/3/1 31/3/1
f 35/3/1 31/3/1 30/3/1
f 36/3/1 34/3/1 35/3/1
f 41/2/1 38/2/1 37/2/1
f 42/2/1 38/2/1 41/2/1
f 43/2/1 40/2/1 39/2/1
f 44/2/1 40/2/1 43/2/1
f 45/2/1 43/2/1 42/2/1
f 46/2/1 43/2/1 45/2/1
f 47/2/2 48/2/2 51/2/2
f 51/2/2 48/2/2 52/2/2
f 49/2/2 50/2/2 53/2/2
f 53/2/2 50/2/2 54/2/2
f 52/2/2 53/2/2 55/2/2
f 55/2/2 53/2/2 56/2/2
f 57/3/2 58/3/2 63/3/2
f 61/3/2 62/3/2 63/3/2
f 60/3/2 61/3/2 63/3/2
f 59/3/2 60/3/2 63/3/2
f 58/3/2 59/3/2 63/3/2
f 63/3/2 62/3/2 64/3/2
f 65/3/2 66/3/2 71/3/2
f 69/3/2 70/3/2 71/3/2
f 68/3/2 69/3/2 71/3/2
f 67/3/2 68/3/2 71/3/2
f 66/3/2 67/3/2 71/3/2
f 71/3/2 70/3/2 72/3/2
f 73/2/2 74/2/2 77/2/2
f 75/2/2 76/2/2 78/2/2
f 73/2/2 77/2/2 79/2/2
f 77/2/2 78/2/2 79/2/2
f 78/2/2 76/2/2 80/2/2
f 79/2/2 78/2/2 80/2/2
f 81/2/2 82/2/2 83/2/2
f 83/2/2 82/2/2 84/2/2
f 81/2/2 83/2/2 85/2/2
f 83/1/2 84/1/2 86/1/2
f 85/2/2 83/2/2 86/2/2
f 84/2/2 82/2/2 87/2/2
f 86/1/2 84/1/2 87/1/2
f 87/2/2 82/2/2 88/2/2
f 91/2/3 90/2/3 89/2/3
f 92/2/3 90/2/3 91/2/3
f 95/2/3 94/2/3 93/2/3
f 96/2/3 94/2/3 95/2/3
f 98/2/3 94/2/3 96/2/3
f 99/2/3 98/2/3 97/2/3
f 100/2/3 94/2/3 98/2/3
f 100/2/3 98/2/3 99/2/3
f 103/3/3 102/3/3 101/3/3
f 104/3/3 102/3/3 103/3/3
f 107/3/3 106/3/3 105/3/3
f 108/3/3 106/3/3 107/3/3
f 111/2/3 110/2/3 109/2/3
f 112/2/3 110/2/3 111/2/3
f 115/2/3 113/2/3 112/2/3
f 116/2/3 113/2/3 115/2/3
f 117/2/3 115/2/3 114/2/3
f 118/2/3 115/2/3 117/2/3
f 119/2/4 120/2/4 121/2/4
f 121/2/4 120/2/4 122/2/4
f 122/2/4 123/2/4 125/2/4
f 125/2/4 123/2/4 126/2/4
f 124/2/4 125/2/4 127/2/4
f 127/2/4 125/2/4 128/2/4
f 129/3/4 130/3/4 131/3/4
f 131/3/4 130/3/4 132/3/4
f 133/3/4 134/3/4 135/3/4
f 135/3/4 134/3/4 136/3/4
f 136/3/4 134/3/4 137/3/4
f 137/3/4 134/3/4 138/3/4
f 138/3/4 134/3/4 139/3/4
f 139/3/4 134/3/4 140/3/4
f 141/2/4 142/2/4 143/2/4
f 143/2/4 142/2/4 144/2/4
f 144/2/4 142/2/4 146/2/4
f 145/2/4 146/2/4 147/2/4
f 146/2/4 142/2/4 148/2/4
f 147/2/4 146/2/4 148/2/4
f 149/2/4 150/2/4 151/2/4
f 151/2/4 150/2/4 152/2/4
f 157/2/5 154/2/5 153/2/5
f 158/2/5 154/2/5 157/2/5
f 159/2/5 156/2/5 155/2/5
f 160/2/5 156/2/5 159/2/5
f 165/2/5 162/2/5 161/2/5
f 166/2/5 162/2/5 165/2/5
f 167/2/5 164/2/5 163/2/5
f 168/2/5 164/2/5 167/2/5
f 172/2/5 170/2/5 169/2/5
f 173/2/5 170/2/5 172/2/5
f 175/2/5 172/2/5 171/2/5
f 176/2/5 172/2/5 175/2/5
f 177/2/5 174/2/5 173/2/5
f 178/2/5 174/2/5 177/2/5
f 179/2/5 177/2/5 176/2/5
f 180/2/5 177/2/5 179/2/5
f 183/2/5 182/2/5 181/2/5
f 184/2/5 182/2/5 183/2/5
f 187/2/5 186/2/5 185/2/5
f 188/2/5 186/2/5 187/2/5
f 189/2/5 187/2/5 185/2/5
f 190/2/5 186/2/5 188/2/5
f 191/2/5 189/2/5 185/2/5
f 191/2/5 190/2/5 189/2/5
f 192/2/5 186/2/5 190/2/5
f 192/2/5 190/2/5 191/2/5
f 193/2/6 194/2/6 195/2/6
f 195/2/6 194/2/6 196/2/6
f 196/2/6 194/2/6 197/2/6
f 197/2/6 194/2/6 198/2/6
f 195/1/6 196/1/6 199/1/6
f 196/2/6 197/2/6 200/2/6
f 199/1/6 196/1/6 200/1/6
f 197/1/6 198/1/6 201/1/6
f 200/2/6 197/2/6 201/2/6
f 198/2/6 194/2/6 202/2/6
f 201/1/6 198/1/6 202/1/6
f 200/2/6 201/2/6 203/2/6
f 199/2/6 200/2/6 203/2/6
f 201/2/6 202/2/6 203/2/6
f 203/2/6 202/2/6 204/2/6
f 199/2/6 203/2/6 205/2/6
f 203/1/6 204/1/6 205/1/6
f 204/2/6 202/2/6 206/2/6
f 205/1/6 204/1/6 206/1/6
f 205/2/6 206/2/6 207/2/6
f 202/2/6 194/2/6 208/2/6
f 207/2/6 206/2/6 208/2/6
f 206/2/6 202/2/6 208/2/6
f 208/2/6 194/2/6 209/2/6
f 209/2/6 194/2/6 210/2/6
f 209/1/6 210/1/6 213/1/6
f 210/2/6 194/2/6 214/2/6
f 213/1/6 210/1/6 214/1/6
f 211/2/6 212/2/6 215/2/6
f 215/2/6 212/2/6 216/2/6
f 215/1/6 216/1/6 217/1/6
f 217/1/6 216/1/6 218/1/6
f 205/2/6 207/2/6 219/2/6
f 219/2/6 207/2/6 220/2/6
f 205/2/6 219/2/6 221/2/6
f 219/1/6 220/1/6 221/1/6
f 221/1/6 220/1/6 222/1/6
f 205/2/6 221/2/6 223/2/6
f 221/2/6 222/2/6 223/2/6
f 223/2/6 222/2/6 224/2/6
f 217/2/6 218/2/6 225/2/6
f 225/2/6 218/2/6 226/2/6
f 213/2/6 214/2/6 227/2/6
f 214/2/6 194/2/6 228/2/6
f 227/2/6 214/2/6 228/2/6
f 205/2/6 223/2/6 229/2/6
f 223/1/6 224/1/6 229/1/6
f 229/1/6 224/1/6 230/1/6
f 225/1/6 226/1/6 231/1/6
f 231/1/6 226/1/6 232/1/6
f 227/1/6 228/1/6 233/1/6
f 233/1/6 228/1/6 234/1/6
f 231/2/6 232/2/6 235/2/6
f 235/2/6 232/2/6 236/2/6
f 229/2/6 230/2/6 237/2/6
f 233/2/6 234/2/6 242/2/6
f 237/2/6 238/2/6 243/2/6
f 238/1/6 239/1/6 243/1/6
f 239/2/6 240/2/6 244/2/6
f 243/1/6 239/1/6 244/1/6
f 240/1/6 241/1/6 245/1/6
f 244/2/6 240/2/6 245/2/6
f 241/2/6 242/2/6 246/2/6
f 245/1/6 241/1/6 246/1/6
f 229/2/6 237/2/6 247/2/6
f 199/2/6 205/2/6 247/2/6
f 245/2/6 246/2/6 247/2/6
f 205/2/6 229/2/6 247/2/6
f 237/2/6 243/2/6 247/2/6
f 243/2/6 244/2/6 247/2/6
f 244/2/6 245/2/6 247/2/6
f 247/2/6 246/2/6 248/2/6
f 247/1/6 248/1/6 249/1/6
f 248/2/6 246/2/6 250/2/6
f 249/1/6 248/1/6 250/1/6
f 249/2/6 250/2/6 251/2/6
f 250/2/6 246/2/6 251/2/6
f 246/2/6 242/2/6 252/2/6
f 251/2/6 246/2/6 252/2/6
f 242/2/6 234/2/6 252/2/6
f 249/2/6 251/2/6 253/2/6
f 251/1/6 252/1/6 253/1/6
f 252/2/6 234/2/6 254/2/6
f 253/1/6 252/1/6 254/1/6
f 249/2/6 253/2/6 255/2/6
f 253/2/6 254/2/6 255/2/6
f 254/2/6 234/2/6 256/2/6
f 255/2/6 254/2/6 256/2/6
f 257/3/6 258/3/6 259/3/6
f 259/3/6 258/3/6 260/3/6
f 257/3/6 259/3/6 261/3/6
f 260/3/6 258/3/6 262/3/6
f 257/3/6 261/3/6 263/3/6
f 261/3/6 262/3/6 263/3/6
f 262/3/6 258/3/6 264/3/6
f 263/3/6 262/3/6 264/3/6
