# MagicaVoxel @ Ephtracy

# normals
vn -1 0 0
vn 1 0 0
vn 0 0 1
vn 0 0 -1
vn 0 -1 0
vn 0 1 0

# texcoords
vt 0.583984 0.5
vt 0.591797 0.5
vt 0.935547 0.5

# verts
v -14 0 14
v -14 0 -14
v -14 23 14
v -14 23 -14
v 14 0 14
v 14 0 -14
v 14 23 14
v 14 23 -14
v -14 0 14
v -14 23 14
v 14 0 14
v 14 23 14
v -14 0 -14
v -14 23 -14
v 14 0 -14
v 14 23 -14
v -14 0 14
v 14 0 14
v -14 0 -14
v 14 0 -14
v -14 23 14
v 14 23 14
v -12 23 11
v -10 23 11
v -9 23 11
v 0 23 11
v 1 23 11
v 2 23 11
v -9 23 10
v -8 23 10
v 2 23 10
v 3 23 10
v -8 23 9
v -7 23 9
v 3 23 9
v 4 23 9
v -7 23 8
v -6 23 8
v 4 23 8
v 5 23 8
v -6 23 7
v -5 23 7
v 5 23 7
v 6 23 7
v -5 23 6
v -4 23 6
v 6 23 6
v 7 23 6
v -4 23 5
v -3 23 5
v 7 23 5
v 8 23 5
v -3 23 4
v -2 23 4
v 8 23 4
v 9 23 4
v -2 23 3
v -1 23 3
v 9 23 3
v 10 23 3
v -1 23 2
v 0 23 2
v 10 23 2
v 11 23 2
v 11 23 1
v 12 23 1
v 11 23 -1
v 12 23 -1
v -1 23 -2
v 0 23 -2
v 10 23 -2
v 11 23 -2
v -2 23 -3
v -1 23 -3
v 9 23 -3
v 10 23 -3
v -3 23 -4
v -2 23 -4
v 8 23 -4
v 9 23 -4
v -4 23 -5
v -3 23 -5
v 7 23 -5
v 8 23 -5
v -5 23 -6
v -4 23 -6
v 6 23 -6
v 7 23 -6
v -6 23 -7
v -5 23 -7
v 5 23 -7
v 6 23 -7
v -7 23 -8
v -6 23 -8
v 4 23 -8
v 5 23 -8
v -8 23 -9
v -7 23 -9
v 3 23 -9
v 4 23 -9
v -9 23 -10
v -8 23 -10
v 2 23 -10
v 3 23 -10
v -12 23 -11
v -10 23 -11
v -9 23 -11
v 0 23 -11
v 1 23 -11
v 2 23 -11
v -14 23 -14
v 14 23 -14

# faces
f 3/3/1 2/3/1 1/3/1
f 4/3/1 2/3/1 3/3/1
f 5/3/2 6/3/2 7/3/2
f 7/3/2 6/3/2 8/3/2
f 11/3/3 10/3/3 9/3/3
f 12/3/3 10/3/3 11/3/3
f 13/3/4 14/3/4 15/3/4
f 15/3/4 14/3/4 16/3/4
f 19/3/5 18/3/5 17/3/5
f 20/3/5 18/3/5 19/3/5
f 21/3/6 22/3/6 23/3/6
f 23/3/6 22/3/6 24/3/6
f 24/3/6 22/3/6 25/3/6
f 25/3/6 22/3/6 26/3/6
f 26/3/6 22/3/6 27/3/6
f 27/3/6 22/3/6 28/3/6
f 24/1/6 25/1/6 29/1/6
f 25/3/6 26/3/6 29/3/6
f 29/3/6 26/3/6 30/3/6
f 28/3/6 22/3/6 31/3/6
f 27/1/6 28/1/6 31/1/6
f 31/3/6 22/3/6 32/3/6
f 30/3/6 26/3/6 33/3/6
f 29/1/6 30/1/6 33/1/6
f 33/3/6 26/3/6 34/3/6
f 32/3/6 22/3/6 35/3/6
f 31/1/6 32/1/6 35/1/6
f 35/3/6 22/3/6 36/3/6
f 34/3/6 26/3/6 37/3/6
f 33/1/6 34/1/6 37/1/6
f 37/3/6 26/3/6 38/3/6
f 36/3/6 22/3/6 39/3/6
f 35/1/6 36/1/6 39/1/6
f 39/3/6 22/3/6 40/3/6
f 38/3/6 26/3/6 41/3/6
f 37/1/6 38/1/6 41/1/6
f 41/3/6 26/3/6 42/3/6
f 40/3/6 22/3/6 43/3/6
f 39/1/6 40/1/6 43/1/6
f 43/3/6 22/3/6 44/3/6
f 42/3/6 26/3/6 45/3/6
f 41/1/6 42/1/6 45/1/6
f 45/3/6 26/3/6 46/3/6
f 44/3/6 22/3/6 47/3/6
f 43/1/6 44/1/6 47/1/6
f 47/3/6 22/3/6 48/3/6
f 46/3/6 26/3/6 49/3/6
f 45/1/6 46/1/6 49/1/6
f 49/3/6 26/3/6 50/3/6
f 48/3/6 22/3/6 51/3/6
f 47/1/6 48/1/6 51/1/6
f 51/3/6 22/3/6 52/3/6
f 50/3/6 26/3/6 53/3/6
f 49/1/6 50/1/6 53/1/6
f 53/3/6 26/3/6 54/3/6
f 52/3/6 22/3/6 55/3/6
f 51/1/6 52/1/6 55/1/6
f 55/3/6 22/3/6 56/3/6
f 54/3/6 26/3/6 57/3/6
f 53/1/6 54/1/6 57/1/6
f 57/3/6 26/3/6 58/3/6
f 56/3/6 22/3/6 59/3/6
f 55/1/6 56/1/6 59/1/6
f 59/3/6 22/3/6 60/3/6
f 58/3/6 26/3/6 61/3/6
f 57/1/6 58/1/6 61/1/6
f 26/2/6 27/2/6 62/2/6
f 61/3/6 26/3/6 62/3/6
f 60/3/6 22/3/6 63/3/6
f 59/1/6 60/1/6 63/1/6
f 63/3/6 22/3/6 64/3/6
f 63/1/6 64/1/6 65/1/6
f 64/3/6 22/3/6 65/3/6
f 65/3/6 22/3/6 66/3/6
f 63/1/6 65/1/6 67/1/6
f 65/1/6 66/1/6 67/1/6
f 66/3/6 22/3/6 68/3/6
f 67/1/6 66/1/6 68/1/6
f 61/1/6 62/1/6 69/1/6
f 57/1/6 61/1/6 69/1/6
f 62/2/6 27/2/6 70/2/6
f 69/1/6 62/1/6 70/1/6
f 59/1/6 63/1/6 71/1/6
f 63/1/6 67/1/6 71/1/6
f 67/3/6 68/3/6 72/3/6
f 71/1/6 67/1/6 72/1/6
f 57/1/6 69/1/6 73/1/6
f 53/1/6 57/1/6 73/1/6
f 69/3/6 70/3/6 74/3/6
f 73/1/6 69/1/6 74/1/6
f 59/1/6 71/1/6 75/1/6
f 55/1/6 59/1/6 75/1/6
f 71/3/6 72/3/6 76/3/6
f 75/1/6 71/1/6 76/1/6
f 49/1/6 53/1/6 77/1/6
f 53/1/6 73/1/6 77/1/6
f 73/3/6 74/3/6 78/3/6
f 77/1/6 73/1/6 78/1/6
f 51/1/6 55/1/6 79/1/6
f 55/1/6 75/1/6 79/1/6
f 75/3/6 76/3/6 80/3/6
f 79/1/6 75/1/6 80/1/6
f 45/1/6 49/1/6 81/1/6
f 49/1/6 77/1/6 81/1/6
f 77/3/6 78/3/6 82/3/6
f 81/1/6 77/1/6 82/1/6
f 47/1/6 51/1/6 83/1/6
f 51/1/6 79/1/6 83/1/6
f 79/3/6 80/3/6 84/3/6
f 83/1/6 79/1/6 84/1/6
f 41/1/6 45/1/6 85/1/6
f 45/1/6 81/1/6 85/1/6
f 81/3/6 82/3/6 86/3/6
f 85/1/6 81/1/6 86/1/6
f 43/1/6 47/1/6 87/1/6
f 47/1/6 83/1/6 87/1/6
f 83/3/6 84/3/6 88/3/6
f 87/1/6 83/1/6 88/1/6
f 37/1/6 41/1/6 89/1/6
f 41/1/6 85/1/6 89/1/6
f 85/3/6 86/3/6 90/3/6
f 89/1/6 85/1/6 90/1/6
f 39/1/6 43/1/6 91/1/6
f 43/1/6 87/1/6 91/1/6
f 87/3/6 88/3/6 92/3/6
f 91/1/6 87/1/6 92/1/6
f 33/1/6 37/1/6 93/1/6
f 37/1/6 89/1/6 93/1/6
f 89/3/6 90/3/6 94/3/6
f 93/1/6 89/1/6 94/1/6
f 35/1/6 39/1/6 95/1/6
f 39/1/6 91/1/6 95/1/6
f 91/3/6 92/3/6 96/3/6
f 95/1/6 91/1/6 96/1/6
f 29/1/6 33/1/6 97/1/6
f 33/1/6 93/1/6 97/1/6
f 93/3/6 94/3/6 98/3/6
f 97/1/6 93/1/6 98/1/6
f 31/1/6 35/1/6 99/1/6
f 35/1/6 95/1/6 99/1/6
f 95/3/6 96/3/6 100/3/6
f 99/1/6 95/1/6 100/1/6
f 24/1/6 29/1/6 101/1/6
f 29/1/6 97/1/6 101/1/6
f 97/3/6 98/3/6 102/3/6
f 101/1/6 97/1/6 102/1/6
f 27/1/6 31/1/6 103/1/6
f 31/1/6 99/1/6 103/1/6
f 99/3/6 100/3/6 104/3/6
f 103/1/6 99/1/6 104/1/6
f 21/3/6 23/3/6 105/3/6
f 23/2/6 24/2/6 105/2/6
f 24/1/6 101/1/6 106/1/6
f 105/2/6 24/2/6 106/2/6
f 101/3/6 102/3/6 107/3/6
f 106/1/6 101/1/6 107/1/6
f 74/3/6 70/3/6 108/3/6
f 107/3/6 102/3/6 108/3/6
f 102/3/6 98/3/6 108/3/6
f 98/3/6 94/3/6 108/3/6
f 70/2/6 27/2/6 108/2/6
f 94/3/6 90/3/6 108/3/6
f 90/3/6 86/3/6 108/3/6
f 78/3/6 74/3/6 108/3/6
f 86/3/6 82/3/6 108/3/6
f 82/3/6 78/3/6 108/3/6
f 27/1/6 103/1/6 109/1/6
f 108/2/6 27/2/6 109/2/6
f 103/3/6 104/3/6 110/3/6
f 109/1/6 103/1/6 110/1/6
f 108/3/6 109/3/6 111/3/6
f 106/3/6 107/3/6 111/3/6
f 109/3/6 110/3/6 111/3/6
f 107/3/6 108/3/6 111/3/6
f 21/3/6 105/3/6 111/3/6
f 105/3/6 106/3/6 111/3/6
f 104/3/6 100/3/6 112/3/6
f 111/3/6 110/3/6 112/3/6
f 110/3/6 104/3/6 112/3/6
f 88/3/6 84/3/6 112/3/6
f 92/3/6 88/3/6 112/3/6
f 76/3/6 72/3/6 112/3/6
f 96/3/6 92/3/6 112/3/6
f 84/3/6 80/3/6 112/3/6
f 100/3/6 96/3/6 112/3/6
f 80/3/6 76/3/6 112/3/6
f 68/3/6 22/3/6 112/3/6
f 72/3/6 68/3/6 112/3/6
