# MagicaVoxel @ Ephtracy

# normals
vn -1 0 0
vn 1 0 0
vn 0 0 1
vn 0 0 -1
vn 0 -1 0
vn 0 1 0

# texcoords
vt 0.146484 0.5
vt 0.919922 0.5
vt 0.931641 0.5
vt 0.935547 0.5
vt 0.958984 0.5
vt 0.994141 0.5

# verts
v -14 22 14
v -14 22 -14
v -14 23 14
v -14 23 -14
v -12 0 12
v -12 0 -12
v -12 22 12
v -12 22 -12
v -11 23 5
v -11 23 -11
v -11 36 5
v -11 36 -11
v 6 25 7
v 6 25 5
v 6 26 6
v 6 26 5
v 6 33 6
v 6 33 5
v 6 34 7
v 6 34 5
v 9 23 -11
v 9 23 -12
v 9 25 6
v 9 25 5
v 9 25 -11
v 9 25 -12
v 9 27 6
v 9 27 5
v 9 28 6
v 9 28 5
v 9 30 6
v 9 30 5
v 9 31 6
v 9 31 5
v 9 34 6
v 9 34 5
v 10 22 -9
v 10 22 -10
v 10 23 -9
v 10 23 -10
v 8 25 7
v 8 25 5
v 8 26 6
v 8 26 5
v 8 33 6
v 8 33 5
v 8 34 7
v 8 34 5
v 9 22 -9
v 9 22 -10
v 9 23 -9
v 9 23 -10
v 10 23 -11
v 10 23 -12
v 10 25 6
v 10 25 5
v 10 25 -11
v 10 25 -12
v 10 27 6
v 10 27 5
v 10 28 6
v 10 28 5
v 10 30 6
v 10 30 5
v 10 31 6
v 10 31 5
v 10 34 6
v 10 34 5
v 11 23 5
v 11 23 -11
v 11 36 5
v 11 36 -11
v 12 0 12
v 12 0 -12
v 12 22 12
v 12 22 -12
v 14 22 14
v 14 22 -14
v 14 23 14
v 14 23 -14
v -14 22 14
v -14 23 14
v 14 22 14
v 14 23 14
v -12 0 12
v -12 22 12
v 12 0 12
v 12 22 12
v 6 25 7
v 6 34 7
v 8 25 7
v 8 34 7
v 9 25 6
v 9 27 6
v 9 28 6
v 9 30 6
v 9 31 6
v 9 34 6
v 10 25 6
v 10 27 6
v 10 28 6
v 10 30 6
v 10 31 6
v 10 34 6
v -11 23 5
v -11 36 5
v -10 34 5
v -10 35 5
v -9 25 5
v -9 34 5
v -9 35 5
v -8 29 5
v -8 30 5
v -7 25 5
v -7 26 5
v -7 29 5
v -7 30 5
v -7 31 5
v -6 25 5
v -6 26 5
v -6 27 5
v -6 30 5
v -6 31 5
v -6 32 5
v -5 26 5
v -5 27 5
v -5 28 5
v -5 31 5
v -5 32 5
v -5 33 5
v -4 27 5
v -4 28 5
v -4 29 5
v -4 32 5
v -4 33 5
v -3 28 5
v -3 29 5
v -3 30 5
v -2 29 5
v -2 30 5
v -2 31 5
v -1 30 5
v -1 31 5
v -1 32 5
v 0 26 5
v 0 27 5
v 0 31 5
v 0 32 5
v 0 33 5
v 1 26 5
v 1 27 5
v 1 28 5
v 1 32 5
v 1 33 5
v 2 27 5
v 2 28 5
v 2 29 5
v 3 28 5
v 3 29 5
v 3 30 5
v 4 29 5
v 4 30 5
v 5 25 5
v 5 34 5
v 6 25 5
v 6 26 5
v 6 33 5
v 6 34 5
v 8 25 5
v 8 26 5
v 8 33 5
v 8 34 5
v 9 25 5
v 9 27 5
v 9 28 5
v 9 30 5
v 9 31 5
v 9 34 5
v 10 25 5
v 10 27 5
v 10 28 5
v 10 30 5
v 10 31 5
v 10 34 5
v 11 23 5
v 11 36 5
v 9 22 -10
v 9 23 -10
v 10 22 -10
v 10 23 -10
v 6 26 6
v 6 33 6
v 8 26 6
v 8 33 6
v 9 22 -9
v 9 23 -9
v 10 22 -9
v 10 23 -9
v -11 23 -11
v -11 36 -11
v 9 23 -11
v 9 25 -11
v 10 23 -11
v 10 25 -11
v 11 23 -11
v 11 36 -11
v -12 0 -12
v -12 22 -12
v 9 22 -12
v 9 23 -12
v 9 25 -12
v 10 22 -12
v 10 23 -12
v 10 25 -12
v 12 0 -12
v 12 22 -12
v -14 22 -14
v -14 23 -14
v 14 22 -14
v 14 23 -14
v -12 0 12
v 12 0 12
v -12 0 -12
v 12 0 -12
v -14 22 14
v 14 22 14
v -12 22 12
v 12 22 12
v -12 22 -12
v 9 22 -12
v 10 22 -12
v 12 22 -12
v 9 22 -13
v 10 22 -13
v -14 22 -14
v 14 22 -14
v 9 23 -9
v 10 23 -9
v 9 23 -10
v 10 23 -10
v 6 25 7
v 8 25 7
v 9 25 6
v 10 25 6
v 6 25 5
v 8 25 5
v 9 25 5
v 10 25 5
v 9 28 6
v 10 28 6
v 9 28 5
v 10 28 5
v 9 31 6
v 10 31 6
v 9 31 5
v 10 31 5
v 6 33 6
v 8 33 6
v 6 33 5
v 8 33 5
v 9 22 -9
v 10 22 -9
v 9 22 -10
v 10 22 -10
v -14 23 14
v 14 23 14
v -11 23 5
v 11 23 5
v -11 23 -11
v 9 23 -11
v 10 23 -11
v 11 23 -11
v 9 23 -12
v 10 23 -12
v 9 23 -13
v 10 23 -13
v -14 23 -14
v 14 23 -14
v 9 25 -11
v 10 25 -11
v 9 25 -12
v 10 25 -12
v 6 26 6
v 8 26 6
v 6 26 5
v 8 26 5
v 9 27 6
v 10 27 6
v 9 27 5
v 10 27 5
v 9 30 6
v 10 30 6
v 9 30 5
v 10 30 5
v 6 34 7
v 8 34 7
v 9 34 6
v 10 34 6
v 6 34 5
v 8 34 5
v 9 34 5
v 10 34 5
v -11 36 5
v 11 36 5
v -11 36 -11
v 11 36 -11

# faces
f 3/4/1 2/4/1 1/4/1
f 4/4/1 2/4/1 3/4/1
f 7/4/1 6/4/1 5/4/1
f 8/4/1 6/4/1 7/4/1
f 11/5/1 10/5/1 9/5/1
f 12/5/1 10/5/1 11/5/1
f 15/6/1 14/6/1 13/6/1
f 16/6/1 14/6/1 15/6/1
f 17/6/1 15/6/1 13/6/1
f 19/6/1 17/6/1 13/6/1
f 19/6/1 18/6/1 17/6/1
f 20/6/1 18/6/1 19/6/1
f 25/6/1 22/6/1 21/6/1
f 26/6/1 22/6/1 25/6/1
f 27/2/1 24/2/1 23/2/1
f 28/2/1 24/2/1 27/2/1
f 31/2/1 30/2/1 29/2/1
f 32/2/1 30/2/1 31/2/1
f 35/2/1 34/2/1 33/2/1
f 36/2/1 34/2/1 35/2/1
f 39/4/1 38/4/1 37/4/1
f 40/4/1 38/4/1 39/4/1
f 41/6/2 42/6/2 43/6/2
f 43/6/2 42/6/2 44/6/2
f 41/6/2 43/6/2 45/6/2
f 41/6/2 45/6/2 47/6/2
f 45/6/2 46/6/2 47/6/2
f 47/6/2 46/6/2 48/6/2
f 49/4/2 50/4/2 51/4/2
f 51/4/2 50/4/2 52/4/2
f 53/6/2 54/6/2 57/6/2
f 57/6/2 54/6/2 58/6/2
f 55/2/2 56/2/2 59/2/2
f 59/2/2 56/2/2 60/2/2
f 61/2/2 62/2/2 63/2/2
f 63/2/2 62/2/2 64/2/2
f 65/2/2 66/2/2 67/2/2
f 67/2/2 66/2/2 68/2/2
f 69/5/2 70/5/2 71/5/2
f 71/5/2 70/5/2 72/5/2
f 73/4/2 74/4/2 75/4/2
f 75/4/2 74/4/2 76/4/2
f 77/4/2 78/4/2 79/4/2
f 79/4/2 78/4/2 80/4/2
f 83/4/3 82/4/3 81/4/3
f 84/4/3 82/4/3 83/4/3
f 87/4/3 86/4/3 85/4/3
f 88/4/3 86/4/3 87/4/3
f 91/6/3 90/6/3 89/6/3
f 92/6/3 90/6/3 91/6/3
f 99/2/3 94/2/3 93/2/3
f 100/2/3 94/2/3 99/2/3
f 101/2/3 96/2/3 95/2/3
f 102/2/3 96/2/3 101/2/3
f 103/2/3 98/2/3 97/2/3
f 104/2/3 98/2/3 103/2/3
f 107/5/3 106/5/3 105/5/3
f 108/5/3 106/5/3 107/5/3
f 109/5/3 107/5/3 105/5/3
f 110/1/3 108/1/3 107/1/3
f 110/5/3 107/5/3 109/5/3
f 111/5/3 106/5/3 108/5/3
f 111/1/3 108/1/3 110/1/3
f 112/3/3 110/3/3 109/3/3
f 113/3/3 110/3/3 112/3/3
f 114/5/3 109/5/3 105/5/3
f 114/3/3 112/3/3 109/3/3
f 115/3/3 112/3/3 114/3/3
f 116/4/3 113/4/3 112/4/3
f 116/3/3 112/3/3 115/3/3
f 117/3/3 110/3/3 113/3/3
f 117/4/3 113/4/3 116/4/3
f 118/3/3 110/3/3 117/3/3
f 119/4/3 115/4/3 114/4/3
f 119/5/3 114/5/3 105/5/3
f 120/3/3 116/3/3 115/3/3
f 120/4/3 115/4/3 119/4/3
f 120/3/3 117/3/3 116/3/3
f 121/3/3 117/3/3 120/3/3
f 122/4/3 118/4/3 117/4/3
f 122/3/3 117/3/3 121/3/3
f 123/3/3 110/3/3 118/3/3
f 123/4/3 118/4/3 122/4/3
f 124/3/3 110/3/3 123/3/3
f 125/4/3 121/4/3 120/4/3
f 125/3/3 120/3/3 119/3/3
f 126/3/3 122/3/3 121/3/3
f 126/4/3 121/4/3 125/4/3
f 126/3/3 123/3/3 122/3/3
f 127/3/3 123/3/3 126/3/3
f 128/4/3 124/4/3 123/4/3
f 128/3/3 123/3/3 127/3/3
f 129/3/3 110/3/3 124/3/3
f 129/4/3 124/4/3 128/4/3
f 130/3/3 110/3/3 129/3/3
f 131/4/3 127/4/3 126/4/3
f 131/3/3 126/3/3 125/3/3
f 132/3/3 128/3/3 127/3/3
f 132/4/3 127/4/3 131/4/3
f 132/3/3 129/3/3 128/3/3
f 133/3/3 129/3/3 132/3/3
f 134/4/3 130/4/3 129/4/3
f 134/3/3 129/3/3 133/3/3
f 135/3/3 110/3/3 130/3/3
f 135/4/3 130/4/3 134/4/3
f 136/4/3 133/4/3 132/4/3
f 136/3/3 132/3/3 131/3/3
f 137/3/3 134/3/3 133/3/3
f 137/4/3 133/4/3 136/4/3
f 137/3/3 135/3/3 134/3/3
f 138/3/3 135/3/3 137/3/3
f 139/3/3 137/3/3 136/3/3
f 139/4/3 138/4/3 137/4/3
f 140/3/3 135/3/3 138/3/3
f 140/4/3 138/4/3 139/4/3
f 141/3/3 135/3/3 140/3/3
f 142/3/3 140/3/3 139/3/3
f 142/4/3 141/4/3 140/4/3
f 143/3/3 135/3/3 141/3/3
f 143/4/3 141/4/3 142/4/3
f 144/3/3 135/3/3 143/3/3
f 145/3/3 125/3/3 119/3/3
f 145/3/3 131/3/3 125/3/3
f 145/3/3 136/3/3 131/3/3
f 145/3/3 143/3/3 142/3/3
f 145/3/3 142/3/3 139/3/3
f 145/3/3 139/3/3 136/3/3
f 146/3/3 143/3/3 145/3/3
f 147/4/3 144/4/3 143/4/3
f 147/3/3 143/3/3 146/3/3
f 148/3/3 135/3/3 144/3/3
f 148/4/3 144/4/3 147/4/3
f 149/3/3 110/3/3 135/3/3
f 149/3/3 135/3/3 148/3/3
f 150/4/3 146/4/3 145/4/3
f 150/3/3 145/3/3 119/3/3
f 151/3/3 147/3/3 146/3/3
f 151/4/3 146/4/3 150/4/3
f 151/3/3 148/3/3 147/3/3
f 152/3/3 148/3/3 151/3/3
f 153/4/3 149/4/3 148/4/3
f 153/3/3 148/3/3 152/3/3
f 154/3/3 110/3/3 149/3/3
f 154/4/3 149/4/3 153/4/3
f 155/4/3 152/4/3 151/4/3
f 155/3/3 151/3/3 150/3/3
f 156/3/3 153/3/3 152/3/3
f 156/4/3 152/4/3 155/4/3
f 156/3/3 154/3/3 153/3/3
f 157/3/3 154/3/3 156/3/3
f 158/3/3 156/3/3 155/3/3
f 158/4/3 157/4/3 156/4/3
f 159/3/3 154/3/3 157/3/3
f 159/4/3 157/4/3 158/4/3
f 160/3/3 154/3/3 159/3/3
f 161/3/3 159/3/3 158/3/3
f 161/4/3 160/4/3 159/4/3
f 162/3/3 154/3/3 160/3/3
f 162/4/3 160/4/3 161/4/3
f 163/5/3 119/5/3 105/5/3
f 163/3/3 150/3/3 119/3/3
f 163/3/3 162/3/3 161/3/3
f 163/3/3 161/3/3 158/3/3
f 163/3/3 158/3/3 155/3/3
f 163/3/3 155/3/3 150/3/3
f 164/3/3 154/3/3 162/3/3
f 164/3/3 162/3/3 163/3/3
f 164/5/3 111/5/3 110/5/3
f 164/3/3 110/3/3 154/3/3
f 165/5/3 163/5/3 105/5/3
f 165/5/3 164/5/3 163/5/3
f 166/5/3 164/5/3 165/5/3
f 167/5/3 164/5/3 166/5/3
f 168/5/3 111/5/3 164/5/3
f 168/5/3 164/5/3 167/5/3
f 169/5/3 165/5/3 105/5/3
f 170/5/3 167/5/3 166/5/3
f 171/5/3 167/5/3 170/5/3
f 172/5/3 111/5/3 168/5/3
f 173/5/3 169/5/3 105/5/3
f 173/5/3 172/5/3 171/5/3
f 173/5/3 171/5/3 170/5/3
f 173/5/3 170/5/3 169/5/3
f 174/5/3 172/5/3 173/5/3
f 175/5/3 172/5/3 174/5/3
f 176/5/3 172/5/3 175/5/3
f 177/5/3 172/5/3 176/5/3
f 178/5/3 111/5/3 172/5/3
f 178/5/3 172/5/3 177/5/3
f 179/5/3 173/5/3 105/5/3
f 180/5/3 175/5/3 174/5/3
f 181/5/3 175/5/3 180/5/3
f 182/5/3 177/5/3 176/5/3
f 183/5/3 177/5/3 182/5/3
f 184/5/3 111/5/3 178/5/3
f 185/5/3 181/5/3 180/5/3
f 185/5/3 184/5/3 183/5/3
f 185/5/3 183/5/3 182/5/3
f 185/5/3 179/5/3 105/5/3
f 185/5/3 182/5/3 181/5/3
f 185/5/3 180/5/3 179/5/3
f 186/5/3 106/5/3 111/5/3
f 186/5/3 184/5/3 185/5/3
f 186/5/3 111/5/3 184/5/3
f 189/4/3 188/4/3 187/4/3
f 190/4/3 188/4/3 189/4/3
f 191/6/4 192/6/4 193/6/4
f 193/6/4 192/6/4 194/6/4
f 195/4/4 196/4/4 197/4/4
f 197/4/4 196/4/4 198/4/4
f 199/5/4 200/5/4 201/5/4
f 201/5/4 200/5/4 202/5/4
f 202/5/4 200/5/4 204/5/4
f 203/5/4 204/5/4 205/5/4
f 204/5/4 200/5/4 206/5/4
f 205/5/4 204/5/4 206/5/4
f 207/4/4 208/4/4 209/4/4
f 207/4/4 209/4/4 212/4/4
f 210/6/4 211/6/4 213/6/4
f 213/6/4 211/6/4 214/6/4
f 207/4/4 212/4/4 215/4/4
f 215/4/4 212/4/4 216/4/4
f 217/4/4 218/4/4 219/4/4
f 219/4/4 218/4/4 220/4/4
f 223/4/5 222/4/5 221/4/5
f 224/4/5 222/4/5 223/4/5
f 227/4/5 226/4/5 225/4/5
f 228/4/5 226/4/5 227/4/5
f 229/4/5 227/4/5 225/4/5
f 232/4/5 226/4/5 228/4/5
f 233/6/5 231/6/5 230/6/5
f 233/4/5 230/4/5 229/4/5
f 234/4/5 232/4/5 231/4/5
f 234/6/5 231/6/5 233/6/5
f 235/4/5 233/4/5 229/4/5
f 235/4/5 229/4/5 225/4/5
f 235/4/5 234/4/5 233/4/5
f 236/4/5 232/4/5 234/4/5
f 236/4/5 234/4/5 235/4/5
f 236/4/5 226/4/5 232/4/5
f 239/5/5 238/5/5 237/5/5
f 240/5/5 238/5/5 239/5/5
f 245/6/5 242/6/5 241/6/5
f 246/6/5 242/6/5 245/6/5
f 247/2/5 244/2/5 243/2/5
f 248/2/5 244/2/5 247/2/5
f 251/2/5 250/2/5 249/2/5
f 252/2/5 250/2/5 251/2/5
f 255/2/5 254/2/5 253/2/5
f 256/2/5 254/2/5 255/2/5
f 259/6/5 258/6/5 257/6/5
f 260/6/5 258/6/5 259/6/5
f 261/4/6 262/4/6 263/4/6
f 263/4/6 262/4/6 264/4/6
f 265/4/6 266/4/6 267/4/6
f 267/4/6 266/4/6 268/4/6
f 265/4/6 267/4/6 269/4/6
f 268/4/6 266/4/6 272/4/6
f 269/4/6 270/4/6 273/4/6
f 271/4/6 272/4/6 274/4/6
f 269/4/6 273/4/6 275/4/6
f 273/6/6 274/6/6 275/6/6
f 274/4/6 272/4/6 276/4/6
f 275/6/6 274/6/6 276/6/6
f 269/4/6 275/4/6 277/4/6
f 265/4/6 269/4/6 277/4/6
f 275/4/6 276/4/6 277/4/6
f 276/4/6 272/4/6 278/4/6
f 277/4/6 276/4/6 278/4/6
f 272/4/6 266/4/6 278/4/6
f 279/6/6 280/6/6 281/6/6
f 281/6/6 280/6/6 282/6/6
f 283/6/6 284/6/6 285/6/6
f 285/6/6 284/6/6 286/6/6
f 287/2/6 288/2/6 289/2/6
f 289/2/6 288/2/6 290/2/6
f 291/2/6 292/2/6 293/2/6
f 293/2/6 292/2/6 294/2/6
f 295/6/6 296/6/6 299/6/6
f 299/6/6 296/6/6 300/6/6
f 297/2/6 298/2/6 301/2/6
f 301/2/6 298/2/6 302/2/6
f 303/5/6 304/5/6 305/5/6
f 305/5/6 304/5/6 306/5/6
