# MagicaVoxel @ Ephtracy

# normals
vn -1 0 0
vn 1 0 0
vn 0 0 1
vn 0 0 -1
vn 0 -1 0
vn 0 1 0

# texcoords
vt 0.314453 0.5
vt 0.912109 0.5
vt 0.958984 0.5
vt 0.994141 0.5

# verts
v -8 10 7
v -8 10 -7
v -8 16 -1
v -8 16 -7
v -8 17 7
v -8 17 -1
v -8 21 7
v -8 21 -7
v -7 4 1
v -7 4 -2
v -7 9 1
v -7 9 -2
v -7 26 4
v -7 26 -5
v -7 27 4
v -7 27 -5
v -6 21 3
v -6 21 -4
v -6 26 3
v -6 26 -4
v -5 2 5
v -5 2 -6
v -5 4 1
v -5 4 -2
v -5 8 5
v -5 8 1
v -5 8 -2
v -5 8 -6
v -5 9 1
v -5 9 -2
v -5 10 5
v -5 10 -6
v -4 0 1
v -4 0 -2
v -4 2 1
v -4 2 -2
v -2 1 -0
v -2 1 -1
v -2 2 -0
v -2 2 -1
v 0 0 1
v 0 0 -2
v 0 2 1
v 0 2 -2
v 2 1 -0
v 2 1 -1
v 2 2 -0
v 2 2 -1
v -3 1 -0
v -3 1 -1
v -3 2 -0
v -3 2 -1
v -1 0 1
v -1 0 -2
v -1 2 1
v -1 2 -2
v 1 1 -0
v 1 1 -1
v 1 2 -0
v 1 2 -1
v 3 0 1
v 3 0 -2
v 3 2 1
v 3 2 -2
v 4 2 5
v 4 2 -6
v 4 4 1
v 4 4 -2
v 4 8 5
v 4 8 1
v 4 8 -2
v 4 8 -6
v 4 9 1
v 4 9 -2
v 4 10 5
v 4 10 -6
v 5 21 3
v 5 21 -4
v 5 26 3
v 5 26 -4
v 6 4 1
v 6 4 -2
v 6 9 1
v 6 9 -2
v 6 26 4
v 6 26 -5
v 6 27 4
v 6 27 -5
v 7 10 7
v 7 10 -7
v 7 16 -1
v 7 16 -7
v 7 17 7
v 7 17 -1
v 7 21 7
v 7 21 -7
v -8 10 7
v -8 17 7
v -8 21 7
v -7 17 7
v -7 19 7
v -6 14 7
v -6 16 7
v -6 17 7
v -6 18 7
v -5 16 7
v -5 17 7
v -3 11 7
v -3 12 7
v -3 14 7
v -3 18 7
v 2 11 7
v 2 12 7
v 2 14 7
v 2 16 7
v 2 17 7
v 2 18 7
v 3 16 7
v 3 17 7
v 5 14 7
v 5 18 7
v 6 17 7
v 6 19 7
v 7 10 7
v 7 17 7
v 7 21 7
v -5 2 5
v -5 8 5
v -5 10 5
v -4 8 5
v -4 10 5
v -2 8 5
v -2 10 5
v 1 8 5
v 1 10 5
v 3 8 5
v 3 10 5
v 4 2 5
v 4 8 5
v 4 10 5
v -7 26 4
v -7 27 4
v 6 26 4
v 6 27 4
v -6 21 3
v -6 26 3
v 5 21 3
v 5 26 3
v -7 4 1
v -7 9 1
v -5 4 1
v -5 8 1
v -5 9 1
v -4 0 1
v -4 2 1
v -1 0 1
v -1 2 1
v 0 0 1
v 0 2 1
v 3 0 1
v 3 2 1
v 4 4 1
v 4 8 1
v 4 9 1
v 6 4 1
v 6 9 1
v -3 1 -1
v -3 2 -1
v -2 1 -1
v -2 2 -1
v 1 1 -1
v 1 2 -1
v 2 1 -1
v 2 2 -1
v -3 1 -0
v -3 2 -0
v -2 1 -0
v -2 2 -0
v 1 1 -0
v 1 2 -0
v 2 1 -0
v 2 2 -0
v -7 4 -2
v -7 9 -2
v -5 4 -2
v -5 8 -2
v -5 9 -2
v -4 0 -2
v -4 2 -2
v -1 0 -2
v -1 2 -2
v 0 0 -2
v 0 2 -2
v 3 0 -2
v 3 2 -2
v 4 4 -2
v 4 8 -2
v 4 9 -2
v 6 4 -2
v 6 9 -2
v -6 21 -4
v -6 26 -4
v 5 21 -4
v 5 26 -4
v -7 26 -5
v -7 27 -5
v 6 26 -5
v 6 27 -5
v -5 2 -6
v -5 8 -6
v -5 10 -6
v -4 8 -6
v -4 10 -6
v -2 8 -6
v -2 10 -6
v 1 8 -6
v 1 10 -6
v 3 8 -6
v 3 10 -6
v 4 2 -6
v 4 8 -6
v 4 10 -6
v -8 10 -7
v -8 16 -7
v -8 21 -7
v 7 10 -7
v 7 16 -7
v 7 21 -7
v -4 0 1
v -1 0 1
v 0 0 1
v 3 0 1
v -4 0 -2
v -1 0 -2
v 0 0 -2
v 3 0 -2
v -5 2 5
v 4 2 5
v -4 2 4
v 3 2 4
v -4 2 1
v -1 2 1
v 0 2 1
v 3 2 1
v -3 2 -0
v -2 2 -0
v 1 2 -0
v 2 2 -0
v -3 2 -1
v -2 2 -1
v 1 2 -1
v 2 2 -1
v -4 2 -2
v -1 2 -2
v 0 2 -2
v 3 2 -2
v -4 2 -5
v 3 2 -5
v -5 2 -6
v 4 2 -6
v -7 4 1
v -5 4 1
v 4 4 1
v 6 4 1
v -7 4 -2
v -5 4 -2
v 4 4 -2
v 6 4 -2
v -8 10 7
v 7 10 7
v -5 10 5
v -4 10 5
v -2 10 5
v 1 10 5
v 3 10 5
v 4 10 5
v -5 10 -6
v -4 10 -6
v -2 10 -6
v 1 10 -6
v 3 10 -6
v 4 10 -6
v -8 10 -7
v 7 10 -7
v -7 26 4
v 6 26 4
v -6 26 3
v 5 26 3
v -6 26 -4
v 5 26 -4
v -7 26 -5
v 6 26 -5
v -3 1 -0
v -2 1 -0
v 1 1 -0
v 2 1 -0
v -3 1 -1
v -2 1 -1
v 1 1 -1
v 2 1 -1
v -7 9 1
v -5 9 1
v 4 9 1
v 6 9 1
v -7 9 -2
v -5 9 -2
v 4 9 -2
v 6 9 -2
v -8 21 7
v 7 21 7
v -6 21 3
v 5 21 3
v -6 21 -4
v 5 21 -4
v -8 21 -7
v 7 21 -7
v -7 27 4
v 6 27 4
v -7 27 -5
v 6 27 -5

# faces
f 3/1/1 2/1/1 1/1/1
f 4/1/1 2/1/1 3/1/1
f 5/1/1 3/1/1 1/1/1
f 6/4/1 4/4/1 3/4/1
f 6/1/1 3/1/1 5/1/1
f 7/4/1 6/4/1 5/4/1
f 8/4/1 4/4/1 6/4/1
f 8/4/1 6/4/1 7/4/1
f 11/1/1 10/1/1 9/1/1
f 12/1/1 10/1/1 11/1/1
f 15/3/1 14/3/1 13/3/1
f 16/3/1 14/3/1 15/3/1
f 19/3/1 18/3/1 17/3/1
f 20/3/1 18/3/1 19/3/1
f 23/4/1 22/4/1 21/4/1
f 24/4/1 22/4/1 23/4/1
f 25/4/1 23/4/1 21/4/1
f 26/4/1 23/4/1 25/4/1
f 27/4/1 22/4/1 24/4/1
f 28/4/1 22/4/1 27/4/1
f 29/1/1 26/1/1 25/1/1
f 30/1/1 28/1/1 27/1/1
f 31/1/1 29/1/1 25/1/1
f 31/1/1 30/1/1 29/1/1
f 32/1/1 28/1/1 30/1/1
f 32/1/1 30/1/1 31/1/1
f 35/1/1 34/1/1 33/1/1
f 36/1/1 34/1/1 35/1/1
f 39/1/1 38/1/1 37/1/1
f 40/1/1 38/1/1 39/1/1
f 43/1/1 42/1/1 41/1/1
f 44/1/1 42/1/1 43/1/1
f 47/1/1 46/1/1 45/1/1
f 48/1/1 46/1/1 47/1/1
f 49/1/2 50/1/2 51/1/2
f 51/1/2 50/1/2 52/1/2
f 53/1/2 54/1/2 55/1/2
f 55/1/2 54/1/2 56/1/2
f 57/1/2 58/1/2 59/1/2
f 59/1/2 58/1/2 60/1/2
f 61/1/2 62/1/2 63/1/2
f 63/1/2 62/1/2 64/1/2
f 65/4/2 66/4/2 67/4/2
f 67/4/2 66/4/2 68/4/2
f 65/4/2 67/4/2 69/4/2
f 69/4/2 67/4/2 70/4/2
f 68/4/2 66/4/2 71/4/2
f 71/4/2 66/4/2 72/4/2
f 69/1/2 70/1/2 73/1/2
f 71/1/2 72/1/2 74/1/2
f 69/1/2 73/1/2 75/1/2
f 73/1/2 74/1/2 75/1/2
f 74/1/2 72/1/2 76/1/2
f 75/1/2 74/1/2 76/1/2
f 77/3/2 78/3/2 79/3/2
f 79/3/2 78/3/2 80/3/2
f 81/1/2 82/1/2 83/1/2
f 83/1/2 82/1/2 84/1/2
f 85/3/2 86/3/2 87/3/2
f 87/3/2 86/3/2 88/3/2
f 89/1/2 90/1/2 91/1/2
f 91/1/2 90/1/2 92/1/2
f 89/1/2 91/1/2 93/1/2
f 91/4/2 92/4/2 94/4/2
f 93/1/2 91/1/2 94/1/2
f 93/4/2 94/4/2 95/4/2
f 94/4/2 92/4/2 96/4/2
f 95/4/2 94/4/2 96/4/2
f 100/1/3 98/1/3 97/1/3
f 100/4/3 99/4/3 98/4/3
f 101/4/3 99/4/3 100/4/3
f 102/1/3 100/1/3 97/1/3
f 102/1/3 101/1/3 100/1/3
f 103/1/3 101/1/3 102/1/3
f 104/1/3 101/1/3 103/1/3
f 105/1/3 101/1/3 104/1/3
f 106/4/3 103/4/3 102/4/3
f 106/2/3 104/2/3 103/2/3
f 107/4/3 105/4/3 104/4/3
f 107/2/3 104/2/3 106/2/3
f 108/1/3 102/1/3 97/1/3
f 109/1/3 102/1/3 108/1/3
f 110/4/3 106/4/3 102/4/3
f 110/1/3 102/1/3 109/1/3
f 110/4/3 107/4/3 106/4/3
f 111/4/3 105/4/3 107/4/3
f 111/4/3 107/4/3 110/4/3
f 111/1/3 101/1/3 105/1/3
f 112/1/3 108/1/3 97/1/3
f 112/4/3 109/4/3 108/4/3
f 113/1/3 110/1/3 109/1/3
f 113/4/3 109/4/3 112/4/3
f 113/1/3 111/1/3 110/1/3
f 114/1/3 111/1/3 113/1/3
f 115/1/3 111/1/3 114/1/3
f 116/1/3 111/1/3 115/1/3
f 117/1/3 101/1/3 111/1/3
f 117/1/3 111/1/3 116/1/3
f 118/2/3 116/2/3 115/2/3
f 118/4/3 115/4/3 114/4/3
f 119/4/3 117/4/3 116/4/3
f 119/2/3 116/2/3 118/2/3
f 120/1/3 113/1/3 112/1/3
f 120/1/3 114/1/3 113/1/3
f 120/4/3 119/4/3 118/4/3
f 120/4/3 118/4/3 114/4/3
f 121/1/3 101/1/3 117/1/3
f 121/4/3 119/4/3 120/4/3
f 121/4/3 117/4/3 119/4/3
f 122/1/3 121/1/3 120/1/3
f 123/4/3 99/4/3 101/4/3
f 123/1/3 121/1/3 122/1/3
f 123/1/3 101/1/3 121/1/3
f 124/1/3 122/1/3 120/1/3
f 124/1/3 112/1/3 97/1/3
f 124/1/3 120/1/3 112/1/3
f 125/4/3 123/4/3 122/4/3
f 125/1/3 122/1/3 124/1/3
f 126/4/3 99/4/3 123/4/3
f 126/4/3 123/4/3 125/4/3
f 130/4/3 128/4/3 127/4/3
f 130/1/3 129/1/3 128/1/3
f 131/1/3 129/1/3 130/1/3
f 132/4/3 130/4/3 127/4/3
f 132/4/3 131/4/3 130/4/3
f 133/4/3 131/4/3 132/4/3
f 134/4/3 132/4/3 127/4/3
f 134/1/3 133/1/3 132/1/3
f 135/1/3 133/1/3 134/1/3
f 136/4/3 134/4/3 127/4/3
f 136/4/3 135/4/3 134/4/3
f 137/4/3 135/4/3 136/4/3
f 138/4/3 136/4/3 127/4/3
f 139/1/3 137/1/3 136/1/3
f 139/4/3 136/4/3 138/4/3
f 140/1/3 137/1/3 139/1/3
f 143/3/3 142/3/3 141/3/3
f 144/3/3 142/3/3 143/3/3
f 147/3/3 146/3/3 145/3/3
f 148/3/3 146/3/3 147/3/3
f 151/1/3 150/1/3 149/1/3
f 152/1/3 150/1/3 151/1/3
f 153/1/3 150/1/3 152/1/3
f 156/1/3 155/1/3 154/1/3
f 157/1/3 155/1/3 156/1/3
f 160/1/3 159/1/3 158/1/3
f 161/1/3 159/1/3 160/1/3
f 165/1/3 163/1/3 162/1/3
f 165/1/3 164/1/3 163/1/3
f 166/1/3 164/1/3 165/1/3
f 169/1/3 168/1/3 167/1/3
f 170/1/3 168/1/3 169/1/3
f 173/1/3 172/1/3 171/1/3
f 174/1/3 172/1/3 173/1/3
f 175/1/4 176/1/4 177/1/4
f 177/1/4 176/1/4 178/1/4
f 179/1/4 180/1/4 181/1/4
f 181/1/4 180/1/4 182/1/4
f 183/1/4 184/1/4 185/1/4
f 185/1/4 184/1/4 186/1/4
f 186/1/4 184/1/4 187/1/4
f 188/1/4 189/1/4 190/1/4
f 190/1/4 189/1/4 191/1/4
f 192/1/4 193/1/4 194/1/4
f 194/1/4 193/1/4 195/1/4
f 196/1/4 197/1/4 199/1/4
f 197/1/4 198/1/4 199/1/4
f 199/1/4 198/1/4 200/1/4
f 201/3/4 202/3/4 203/3/4
f 203/3/4 202/3/4 204/3/4
f 205/3/4 206/3/4 207/3/4
f 207/3/4 206/3/4 208/3/4
f 209/4/4 210/4/4 212/4/4
f 210/1/4 211/1/4 212/1/4
f 212/1/4 211/1/4 213/1/4
f 209/4/4 212/4/4 214/4/4
f 212/4/4 213/4/4 214/4/4
f 214/4/4 213/4/4 215/4/4
f 209/4/4 214/4/4 216/4/4
f 214/1/4 215/1/4 216/1/4
f 216/1/4 215/1/4 217/1/4
f 209/4/4 216/4/4 218/4/4
f 216/4/4 217/4/4 218/4/4
f 218/4/4 217/4/4 219/4/4
f 209/4/4 218/4/4 220/4/4
f 218/1/4 219/1/4 221/1/4
f 220/4/4 218/4/4 221/4/4
f 221/1/4 219/1/4 222/1/4
f 223/1/4 224/1/4 226/1/4
f 224/4/4 225/4/4 227/4/4
f 226/1/4 224/1/4 227/1/4
f 227/4/4 225/4/4 228/4/4
f 233/1/5 230/1/5 229/1/5
f 234/1/5 230/1/5 233/1/5
f 235/1/5 232/1/5 231/1/5
f 236/1/5 232/1/5 235/1/5
f 239/4/5 238/4/5 237/4/5
f 240/4/5 238/4/5 239/4/5
f 241/4/5 239/4/5 237/4/5
f 241/1/5 240/1/5 239/1/5
f 242/1/5 240/1/5 241/1/5
f 243/1/5 240/1/5 242/1/5
f 244/4/5 238/4/5 240/4/5
f 244/1/5 240/1/5 243/1/5
f 249/1/5 246/1/5 245/1/5
f 250/1/5 246/1/5 249/1/5
f 251/1/5 248/1/5 247/1/5
f 252/1/5 248/1/5 251/1/5
f 253/4/5 241/4/5 237/4/5
f 254/1/5 243/1/5 242/1/5
f 255/1/5 243/1/5 254/1/5
f 256/4/5 238/4/5 244/4/5
f 257/4/5 253/4/5 237/4/5
f 257/1/5 256/1/5 255/1/5
f 257/1/5 255/1/5 254/1/5
f 257/1/5 254/1/5 253/1/5
f 258/4/5 238/4/5 256/4/5
f 258/1/5 256/1/5 257/1/5
f 259/4/5 257/4/5 237/4/5
f 259/4/5 258/4/5 257/4/5
f 260/4/5 238/4/5 258/4/5
f 260/4/5 258/4/5 259/4/5
f 265/1/5 262/1/5 261/1/5
f 266/1/5 262/1/5 265/1/5
f 267/1/5 264/1/5 263/1/5
f 268/1/5 264/1/5 267/1/5
f 271/1/5 270/1/5 269/1/5
f 272/1/5 270/1/5 271/1/5
f 273/1/5 270/1/5 272/1/5
f 274/1/5 270/1/5 273/1/5
f 275/1/5 270/1/5 274/1/5
f 276/1/5 270/1/5 275/1/5
f 277/1/5 271/1/5 269/1/5
f 282/1/5 270/1/5 276/1/5
f 283/1/5 281/1/5 280/1/5
f 283/1/5 282/1/5 281/1/5
f 283/1/5 277/1/5 269/1/5
f 283/1/5 278/1/5 277/1/5
f 283/1/5 280/1/5 279/1/5
f 283/1/5 279/1/5 278/1/5
f 284/1/5 270/1/5 282/1/5
f 284/1/5 282/1/5 283/1/5
f 287/3/5 286/3/5 285/3/5
f 288/3/5 286/3/5 287/3/5
f 289/3/5 287/3/5 285/3/5
f 290/3/5 286/3/5 288/3/5
f 291/3/5 289/3/5 285/3/5
f 291/3/5 290/3/5 289/3/5
f 292/3/5 286/3/5 290/3/5
f 292/3/5 290/3/5 291/3/5
f 293/1/6 294/1/6 297/1/6
f 297/1/6 294/1/6 298/1/6
f 295/1/6 296/1/6 299/1/6
f 299/1/6 296/1/6 300/1/6
f 301/1/6 302/1/6 305/1/6
f 305/1/6 302/1/6 306/1/6
f 303/1/6 304/1/6 307/1/6
f 307/1/6 304/1/6 308/1/6
f 309/4/6 310/4/6 311/4/6
f 311/4/6 310/4/6 312/4/6
f 309/4/6 311/4/6 313/4/6
f 312/4/6 310/4/6 314/4/6
f 309/4/6 313/4/6 315/4/6
f 313/4/6 314/4/6 315/4/6
f 314/4/6 310/4/6 316/4/6
f 315/4/6 314/4/6 316/4/6
f 317/3/6 318/3/6 319/3/6
f 319/3/6 318/3/6 320/3/6
