# MagicaVoxel @ Ephtracy

# material
mtllib table_0.mtl
usemtl palette

# normals
vn -1 0 0
vn 1 0 0
vn 0 0 1
vn 0 0 -1
vn 0 -1 0
vn 0 1 0

# texcoords
vt 0.310547 0.5
vt 0.318359 0.5

# verts
v -14 22 14
v -14 22 -14
v -14 23 13
v -14 23 12
v -14 23 -10
v -14 23 -11
v -14 24 14
v -14 24 13
v -14 24 12
v -14 24 -10
v -14 24 -11
v -14 24 -14
v -12 0 12
v -12 0 10
v -12 0 -10
v -12 0 -12
v -12 15 10
v -12 15 -10
v -12 22 12
v -12 22 -12
v 10 0 12
v 10 0 10
v 10 0 -10
v 10 0 -12
v 10 15 12
v 10 15 10
v 10 15 -10
v 10 15 -12
v 10 21 10
v 10 21 -10
v -10 0 12
v -10 0 10
v -10 0 -10
v -10 0 -12
v -10 15 12
v -10 15 10
v -10 15 -10
v -10 15 -12
v -10 21 10
v -10 21 -10
v 12 0 12
v 12 0 10
v 12 0 -10
v 12 0 -12
v 12 15 10
v 12 15 -10
v 12 22 12
v 12 22 -12
v 14 22 14
v 14 22 -14
v 14 23 -3
v 14 23 -4
v 14 24 14
v 14 24 -3
v 14 24 -4
v 14 24 -14
v -14 22 14
v -14 24 14
v 14 22 14
v 14 24 14
v -12 0 12
v -12 22 12
v -10 0 12
v -10 15 12
v 10 0 12
v 10 15 12
v 12 0 12
v 12 22 12
v -12 0 -10
v -12 15 -10
v -10 0 -10
v -10 15 -10
v -10 21 -10
v 10 0 -10
v 10 15 -10
v 10 21 -10
v 12 0 -10
v 12 15 -10
v -12 0 10
v -12 15 10
v -10 0 10
v -10 15 10
v -10 21 10
v 10 0 10
v 10 15 10
v 10 21 10
v 12 0 10
v 12 15 10
v -12 0 -12
v -12 22 -12
v -10 0 -12
v -10 15 -12
v 10 0 -12
v 10 15 -12
v 12 0 -12
v 12 22 -12
v -14 22 -14
v -14 24 -14
v 14 22 -14
v 14 24 -14
v -12 0 12
v -10 0 12
v 10 0 12
v 12 0 12
v -12 0 10
v -10 0 10
v 10 0 10
v 12 0 10
v -12 0 -10
v -10 0 -10
v 10 0 -10
v 12 0 -10
v -12 0 -12
v -10 0 -12
v 10 0 -12
v 12 0 -12
v -10 15 12
v 10 15 12
v -12 15 10
v -10 15 10
v 10 15 10
v 12 15 10
v -12 15 -10
v -10 15 -10
v 10 15 -10
v 12 15 -10
v -10 15 -12
v 10 15 -12
v -10 21 10
v 10 21 10
v -10 21 -10
v 10 21 -10
v -14 22 14
v 14 22 14
v -12 22 12
v 12 22 12
v -12 22 -12
v 12 22 -12
v -14 22 -14
v 14 22 -14
v -14 24 14
v 14 24 14
v -14 24 13
v -11 24 13
v -3 24 13
v 11 24 13
v -14 24 12
v -11 24 12
v -3 24 12
v 11 24 12
v -13 24 10
v 3 24 10
v -13 24 9
v 3 24 9
v -5 24 7
v 13 24 7
v -5 24 6
v 13 24 6
v -10 24 4
v 9 24 4
v -10 24 3
v 9 24 3
v -12 24 2
v -10 24 2
v -5 24 1
v -3 24 1
v -1 24 1
v 9 24 1
v -12 24 -0
v -10 24 -0
v -5 24 -0
v -3 24 -0
v -1 24 -0
v 9 24 -0
v -12 24 -3
v 14 24 -3
v -12 24 -4
v 14 24 -4
v -7 24 -5
v -4 24 -5
v -9 24 -6
v -8 24 -6
v -7 24 -6
v -4 24 -6
v -11 24 -7
v -9 24 -7
v -8 24 -7
v -6 24 -7
v 0 24 -7
v -11 24 -8
v -9 24 -8
v 3 24 -8
v 9 24 -8
v -6 24 -9
v 0 24 -9
v 3 24 -9
v 9 24 -9
v -14 24 -10
v -10 24 -10
v -14 24 -11
v -10 24 -11
v -10 24 -12
v 11 24 -12
v -10 24 -13
v 11 24 -13
v -14 24 -14
v 14 24 -14

# faces
f 3/2/1 2/2/1 1/2/1
f 4/2/1 2/2/1 3/2/1
f 5/2/1 2/2/1 4/2/1
f 6/2/1 2/2/1 5/2/1
f 7/2/1 3/2/1 1/2/1
f 8/1/1 4/1/1 3/1/1
f 8/2/1 3/2/1 7/2/1
f 9/2/1 5/2/1 4/2/1
f 9/1/1 4/1/1 8/1/1
f 10/1/1 6/1/1 5/1/1
f 10/2/1 5/2/1 9/2/1
f 11/2/1 2/2/1 6/2/1
f 11/1/1 6/1/1 10/1/1
f 12/2/1 2/2/1 11/2/1
f 17/2/1 14/2/1 13/2/1
f 18/2/1 16/2/1 15/2/1
f 19/2/1 17/2/1 13/2/1
f 19/2/1 18/2/1 17/2/1
f 20/2/1 16/2/1 18/2/1
f 20/2/1 18/2/1 19/2/1
f 25/2/1 22/2/1 21/2/1
f 26/2/1 22/2/1 25/2/1
f 27/2/1 24/2/1 23/2/1
f 28/2/1 24/2/1 27/2/1
f 29/2/1 27/2/1 26/2/1
f 30/2/1 27/2/1 29/2/1
f 31/2/2 32/2/2 35/2/2
f 35/2/2 32/2/2 36/2/2
f 33/2/2 34/2/2 37/2/2
f 37/2/2 34/2/2 38/2/2
f 36/2/2 37/2/2 39/2/2
f 39/2/2 37/2/2 40/2/2
f 41/2/2 42/2/2 45/2/2
f 43/2/2 44/2/2 46/2/2
f 41/2/2 45/2/2 47/2/2
f 45/2/2 46/2/2 47/2/2
f 46/2/2 44/2/2 48/2/2
f 47/2/2 46/2/2 48/2/2
f 49/2/2 50/2/2 51/2/2
f 51/2/2 50/2/2 52/2/2
f 49/2/2 51/2/2 53/2/2
f 51/1/2 52/1/2 54/1/2
f 53/2/2 51/2/2 54/2/2
f 52/2/2 50/2/2 55/2/2
f 54/1/2 52/1/2 55/1/2
f 55/2/2 50/2/2 56/2/2
f 59/2/3 58/2/3 57/2/3
f 60/2/3 58/2/3 59/2/3
f 63/2/3 62/2/3 61/2/3
f 64/2/3 62/2/3 63/2/3
f 66/2/3 62/2/3 64/2/3
f 67/2/3 66/2/3 65/2/3
f 68/2/3 62/2/3 66/2/3
f 68/2/3 66/2/3 67/2/3
f 71/2/3 70/2/3 69/2/3
f 72/2/3 70/2/3 71/2/3
f 75/2/3 73/2/3 72/2/3
f 76/2/3 73/2/3 75/2/3
f 77/2/3 75/2/3 74/2/3
f 78/2/3 75/2/3 77/2/3
f 79/2/4 80/2/4 81/2/4
f 81/2/4 80/2/4 82/2/4
f 82/2/4 83/2/4 85/2/4
f 85/2/4 83/2/4 86/2/4
f 84/2/4 85/2/4 87/2/4
f 87/2/4 85/2/4 88/2/4
f 89/2/4 90/2/4 91/2/4
f 91/2/4 90/2/4 92/2/4
f 92/2/4 90/2/4 94/2/4
f 93/2/4 94/2/4 95/2/4
f 94/2/4 90/2/4 96/2/4
f 95/2/4 94/2/4 96/2/4
f 97/2/4 98/2/4 99/2/4
f 99/2/4 98/2/4 100/2/4
f 105/2/5 102/2/5 101/2/5
f 106/2/5 102/2/5 105/2/5
f 107/2/5 104/2/5 103/2/5
f 108/2/5 104/2/5 107/2/5
f 113/2/5 110/2/5 109/2/5
f 114/2/5 110/2/5 113/2/5
f 115/2/5 112/2/5 111/2/5
f 116/2/5 112/2/5 115/2/5
f 120/2/5 118/2/5 117/2/5
f 121/2/5 118/2/5 120/2/5
f 123/2/5 120/2/5 119/2/5
f 124/2/5 120/2/5 123/2/5
f 125/2/5 122/2/5 121/2/5
f 126/2/5 122/2/5 125/2/5
f 127/2/5 125/2/5 124/2/5
f 128/2/5 125/2/5 127/2/5
f 131/2/5 130/2/5 129/2/5
f 132/2/5 130/2/5 131/2/5
f 135/2/5 134/2/5 133/2/5
f 136/2/5 134/2/5 135/2/5
f 137/2/5 135/2/5 133/2/5
f 138/2/5 134/2/5 136/2/5
f 139/2/5 137/2/5 133/2/5
f 139/2/5 138/2/5 137/2/5
f 140/2/5 134/2/5 138/2/5
f 140/2/5 138/2/5 139/2/5
f 141/2/6 142/2/6 143/2/6
f 143/2/6 142/2/6 144/2/6
f 144/2/6 142/2/6 145/2/6
f 145/2/6 142/2/6 146/2/6
f 143/1/6 144/1/6 147/1/6
f 144/2/6 145/2/6 148/2/6
f 147/1/6 144/1/6 148/1/6
f 145/1/6 146/1/6 149/1/6
f 148/2/6 145/2/6 149/2/6
f 146/2/6 142/2/6 150/2/6
f 149/1/6 146/1/6 150/1/6
f 148/2/6 149/2/6 151/2/6
f 147/2/6 148/2/6 151/2/6
f 149/2/6 150/2/6 151/2/6
f 151/2/6 150/2/6 152/2/6
f 147/2/6 151/2/6 153/2/6
f 151/1/6 152/1/6 153/1/6
f 152/2/6 150/2/6 154/2/6
f 153/1/6 152/1/6 154/1/6
f 153/2/6 154/2/6 155/2/6
f 150/2/6 142/2/6 156/2/6
f 155/2/6 154/2/6 156/2/6
f 154/2/6 150/2/6 156/2/6
f 153/2/6 155/2/6 157/2/6
f 155/1/6 156/1/6 157/1/6
f 156/2/6 142/2/6 158/2/6
f 157/1/6 156/1/6 158/1/6
f 153/2/6 157/2/6 159/2/6
f 157/2/6 158/2/6 159/2/6
f 159/2/6 158/2/6 160/2/6
f 153/2/6 159/2/6 161/2/6
f 159/1/6 160/1/6 161/1/6
f 160/2/6 158/2/6 162/2/6
f 161/1/6 160/1/6 162/1/6
f 153/2/6 161/2/6 163/2/6
f 161/2/6 162/2/6 163/2/6
f 163/2/6 162/2/6 164/2/6
f 164/2/6 162/2/6 165/2/6
f 165/2/6 162/2/6 166/2/6
f 166/2/6 162/2/6 167/2/6
f 162/2/6 158/2/6 168/2/6
f 167/2/6 162/2/6 168/2/6
f 153/2/6 163/2/6 169/2/6
f 163/1/6 164/1/6 169/1/6
f 164/2/6 165/2/6 170/2/6
f 169/1/6 164/1/6 170/1/6
f 165/1/6 166/1/6 171/1/6
f 170/2/6 165/2/6 171/2/6
f 166/2/6 167/2/6 172/2/6
f 171/1/6 166/1/6 172/1/6
f 167/1/6 168/1/6 173/1/6
f 172/2/6 167/2/6 173/2/6
f 168/2/6 158/2/6 174/2/6
f 173/1/6 168/1/6 174/1/6
f 170/2/6 171/2/6 175/2/6
f 172/2/6 173/2/6 175/2/6
f 173/2/6 174/2/6 175/2/6
f 169/2/6 170/2/6 175/2/6
f 153/2/6 169/2/6 175/2/6
f 171/2/6 172/2/6 175/2/6
f 158/2/6 142/2/6 176/2/6
f 175/2/6 174/2/6 176/2/6
f 174/2/6 158/2/6 176/2/6
f 153/2/6 175/2/6 177/2/6
f 175/1/6 176/1/6 177/1/6
f 177/1/6 176/1/6 178/1/6
f 177/2/6 178/2/6 179/2/6
f 179/2/6 178/2/6 180/2/6
f 177/2/6 179/2/6 181/2/6
f 181/2/6 179/2/6 182/2/6
f 179/1/6 180/1/6 183/1/6
f 182/2/6 179/2/6 183/2/6
f 180/2/6 178/2/6 184/2/6
f 183/1/6 180/1/6 184/1/6
f 177/2/6 181/2/6 185/2/6
f 181/1/6 182/1/6 186/1/6
f 185/2/6 181/2/6 186/2/6
f 182/2/6 183/2/6 187/2/6
f 186/1/6 182/1/6 187/1/6
f 183/2/6 184/2/6 187/2/6
f 187/2/6 184/2/6 188/2/6
f 184/2/6 178/2/6 189/2/6
f 188/2/6 184/2/6 189/2/6
f 185/1/6 186/1/6 190/1/6
f 177/2/6 185/2/6 190/2/6
f 187/2/6 188/2/6 191/2/6
f 190/1/6 186/1/6 191/1/6
f 186/2/6 187/2/6 191/2/6
f 189/2/6 178/2/6 192/2/6
f 192/2/6 178/2/6 193/2/6
f 191/2/6 188/2/6 194/2/6
f 188/1/6 189/1/6 194/1/6
f 190/2/6 191/2/6 194/2/6
f 189/2/6 192/2/6 195/2/6
f 194/1/6 189/1/6 195/1/6
f 192/1/6 193/1/6 196/1/6
f 195/2/6 192/2/6 196/2/6
f 193/2/6 178/2/6 197/2/6
f 196/1/6 193/1/6 197/1/6
f 147/2/6 153/2/6 198/2/6
f 153/2/6 177/2/6 198/2/6
f 196/2/6 197/2/6 198/2/6
f 190/2/6 194/2/6 198/2/6
f 177/2/6 190/2/6 198/2/6
f 194/2/6 195/2/6 198/2/6
f 195/2/6 196/2/6 198/2/6
f 198/2/6 197/2/6 199/2/6
f 198/1/6 199/1/6 200/1/6
f 199/2/6 197/2/6 201/2/6
f 200/1/6 199/1/6 201/1/6
f 200/2/6 201/2/6 202/2/6
f 201/2/6 197/2/6 202/2/6
f 197/2/6 178/2/6 203/2/6
f 202/2/6 197/2/6 203/2/6
f 200/2/6 202/2/6 204/2/6
f 202/1/6 203/1/6 204/1/6
f 203/2/6 178/2/6 205/2/6
f 204/1/6 203/1/6 205/1/6
f 200/2/6 204/2/6 206/2/6
f 204/2/6 205/2/6 206/2/6
f 205/2/6 178/2/6 207/2/6
f 206/2/6 205/2/6 207/2/6
